{"glyphs":{"0":{"ha":976,"x_min":79,"x_max":899,"o":"m 489 -19 q 273 45 365 -19 q 130 226 181 110 q 79 494 79 343 q 131 753 79 640 q 275 929 182 867 q 489 992 368 992 q 704 929 611 992 q 848 754 797 867 q 899 494 899 642 q 848 226 899 343 q 705 45 797 110 q 489 -19 613 -19 m 489 125 q 668 218 603 125 q 733 494 733 311 q 667 758 733 668 q 489 849 600 849 q 310 758 378 849 q 243 494 243 668 q 309 219 243 313 q 489 125 375 125 z "},"1":{"ha":490,"x_min":57,"x_max":365,"o":"m 206 743 q 75 681 140 696 l 57 821 q 165 878 107 833 q 246 972 222 924 l 365 972 l 365 0 l 206 0 l 206 743 z "},"2":{"ha":732,"x_min":68,"x_max":660,"o":"m 326 397 q 435 581 404 515 q 467 703 467 646 q 431 804 467 767 q 331 842 394 842 q 94 726 210 842 l 75 890 q 358 992 201 992 q 503 956 443 992 q 594 861 564 921 q 625 728 625 801 q 590 559 625 643 q 467 342 554 475 l 340 150 l 660 150 l 660 0 l 68 0 l 326 397 z "},"3":{"ha":750,"x_min":50,"x_max":667,"o":"m 493 513 q 621 424 575 485 q 667 272 667 363 q 573 58 667 136 q 325 -19 479 -19 q 175 -1 246 -19 q 50 47 104 18 l 89 188 q 326 121 214 121 q 456 160 408 121 q 503 271 503 200 q 453 389 503 349 q 306 429 404 429 l 221 429 l 221 579 l 304 579 q 429 616 385 579 q 474 719 474 653 q 435 817 474 782 q 326 851 397 851 q 220 833 271 851 q 113 781 169 815 l 89 929 q 344 992 201 992 q 558 922 482 992 q 633 740 633 853 q 597 602 633 661 q 493 513 560 543 z "},"4":{"ha":840,"x_min":17,"x_max":781,"o":"m 781 365 l 781 233 l 656 233 l 656 0 l 499 0 l 499 233 l 17 233 l 544 972 l 656 972 l 656 365 l 781 365 m 499 365 l 499 689 l 271 365 l 499 365 z "},"5":{"ha":747,"x_min":69,"x_max":681,"o":"m 361 613 q 529 574 457 613 q 641 466 601 536 q 681 303 681 396 q 636 133 681 206 q 514 21 592 60 q 338 -18 436 -18 q 191 2 260 -18 q 69 58 122 22 l 107 204 q 219 151 165 169 q 333 133 272 133 q 467 179 417 133 q 518 303 518 225 q 462 434 518 388 q 306 481 406 481 q 118 457 225 481 l 181 972 l 639 972 l 629 817 l 304 817 l 278 607 q 361 613 331 613 z "},"6":{"ha":783,"x_min":74,"x_max":725,"o":"m 439 585 q 586 547 521 585 q 688 442 651 508 q 725 290 725 375 q 685 128 725 199 q 574 19 646 58 q 406 -19 501 -19 q 229 26 304 -19 q 114 153 154 71 q 74 343 74 235 q 139 617 74 489 q 304 841 204 746 q 513 992 404 936 l 625 899 q 411 749 517 846 q 257 533 306 651 q 439 585 331 585 m 407 115 q 526 164 479 115 q 572 285 572 213 q 526 402 572 356 q 407 449 479 449 q 288 402 335 449 q 240 285 240 356 q 288 164 240 213 q 407 115 335 115 z "},"7":{"ha":704,"x_min":58,"x_max":693,"o":"m 693 972 l 282 0 l 114 0 l 460 821 l 58 821 l 58 972 l 693 972 z "},"8":{"ha":840,"x_min":79,"x_max":760,"o":"m 613 531 q 722 428 683 493 q 760 279 760 363 q 718 124 760 192 q 599 18 676 56 q 419 -19 522 -19 q 240 18 317 -19 q 121 124 163 56 q 79 279 79 192 q 118 428 79 363 q 228 531 157 493 q 151 617 179 565 q 124 729 124 668 q 155 857 124 797 q 253 954 186 917 q 419 992 319 992 q 585 954 519 992 q 680 857 650 917 q 710 729 710 797 q 685 615 710 667 q 613 531 660 564 m 419 860 q 310 824 350 860 q 271 728 271 788 q 311 633 271 671 q 419 596 351 596 q 526 633 489 596 q 563 728 563 671 q 526 824 563 788 q 419 860 489 860 m 419 121 q 557 165 507 121 q 607 286 607 210 q 557 408 607 361 q 419 454 507 454 q 283 408 333 454 q 233 286 233 361 q 283 165 233 210 q 419 121 332 121 z "},"9":{"ha":783,"x_min":64,"x_max":715,"o":"m 383 992 q 560 947 485 992 q 675 819 635 901 q 715 629 715 738 q 652 363 715 488 q 492 147 589 239 q 290 0 394 54 l 178 93 q 381 234 279 143 q 531 438 482 325 q 350 388 457 388 q 203 426 268 388 q 101 531 138 464 q 64 682 64 597 q 103 844 64 774 q 215 953 143 914 q 383 992 288 992 m 382 526 q 500 572 454 526 q 546 688 546 618 q 500 806 546 758 q 382 853 454 853 q 265 806 311 853 q 218 688 218 758 q 265 572 218 618 q 382 526 311 526 z "},"\r":{"ha":313,"x_min":0,"x_max":0,"o":""}," ":{"ha":313,"x_min":0,"x_max":0,"o":""},"A":{"ha":864,"x_min":6,"x_max":857,"o":"m 613 242 l 251 242 l 167 0 l 6 0 l 353 972 l 511 972 l 857 0 l 697 0 l 613 242 m 561 385 l 432 754 l 301 385 l 561 385 z "},"Á":{"ha":864,"x_min":6,"x_max":857,"o":"m 613 242 l 251 242 l 167 0 l 6 0 l 353 972 l 511 972 l 857 0 l 697 0 l 613 242 m 561 385 l 432 754 l 301 385 l 561 385 m 299 1147 l 567 1279 l 567 1138 l 299 1057 l 299 1147 z "},"Ă":{"ha":864,"x_min":6,"x_max":857,"o":"m 613 242 l 251 242 l 167 0 l 6 0 l 353 972 l 511 972 l 857 0 l 697 0 l 613 242 m 561 385 l 432 754 l 301 385 l 561 385 m 432 1063 q 278 1114 335 1063 q 222 1240 222 1165 l 338 1240 q 363 1176 338 1199 q 432 1154 389 1154 q 501 1176 475 1154 q 526 1240 526 1199 l 642 1240 q 585 1114 642 1165 q 432 1063 529 1063 z "},"Ắ":{"ha":864,"x_min":6,"x_max":857,"o":"m 613 242 l 251 242 l 167 0 l 6 0 l 353 972 l 511 972 l 857 0 l 697 0 l 613 242 m 561 385 l 432 754 l 301 385 l 561 385 m 432 1063 q 278 1114 335 1063 q 222 1240 222 1165 l 338 1240 q 363 1176 338 1199 q 432 1154 389 1154 q 501 1176 475 1154 q 526 1240 526 1199 l 642 1240 q 585 1114 642 1165 q 432 1063 529 1063 m 299 1393 l 567 1525 l 567 1383 l 299 1303 l 299 1393 z "},"Ặ":{"ha":864,"x_min":6,"x_max":857,"o":"m 613 242 l 251 242 l 167 0 l 6 0 l 353 972 l 511 972 l 857 0 l 697 0 l 613 242 m 561 385 l 432 754 l 301 385 l 561 385 m 432 1093 q 278 1147 335 1093 q 222 1281 222 1201 l 338 1281 q 363 1216 338 1239 q 432 1193 389 1193 q 501 1216 475 1193 q 526 1281 526 1239 l 642 1281 q 585 1147 642 1201 q 432 1093 529 1093 m 361 -112 l 503 -112 l 503 -243 l 361 -243 l 361 -112 z "},"Ằ":{"ha":864,"x_min":6,"x_max":857,"o":"m 613 242 l 251 242 l 167 0 l 6 0 l 353 972 l 511 972 l 857 0 l 697 0 l 613 242 m 561 385 l 432 754 l 301 385 l 561 385 m 432 1061 q 278 1113 335 1061 q 222 1239 222 1164 l 338 1239 q 363 1175 338 1197 q 432 1153 389 1153 q 501 1175 475 1153 q 526 1239 526 1197 l 642 1239 q 585 1113 642 1164 q 432 1061 529 1061 m 297 1382 l 297 1524 l 565 1392 l 565 1301 l 297 1382 z "},"Ẳ":{"ha":864,"x_min":6,"x_max":857,"o":"m 613 242 l 251 242 l 167 0 l 6 0 l 353 972 l 511 972 l 857 0 l 697 0 l 613 242 m 561 385 l 432 754 l 301 385 l 561 385 m 432 1063 q 278 1114 335 1063 q 222 1240 222 1165 l 338 1240 q 363 1176 338 1199 q 432 1154 389 1154 q 501 1176 475 1154 q 526 1240 526 1199 l 642 1240 q 585 1114 642 1165 q 432 1063 529 1063 m 426 1321 q 465 1340 453 1328 q 476 1371 476 1351 q 424 1411 476 1411 q 338 1385 388 1411 l 314 1465 q 425 1492 367 1492 q 524 1462 485 1492 q 563 1379 563 1432 q 533 1303 563 1332 q 440 1261 504 1275 l 426 1321 z "},"Ẵ":{"ha":864,"x_min":6,"x_max":857,"o":"m 613 242 l 251 242 l 167 0 l 6 0 l 353 972 l 511 972 l 857 0 l 697 0 l 613 242 m 561 385 l 432 754 l 301 385 l 561 385 m 432 1063 q 278 1114 335 1063 q 222 1240 222 1165 l 338 1240 q 363 1176 338 1199 q 432 1154 389 1154 q 501 1176 475 1154 q 526 1240 526 1199 l 642 1240 q 585 1114 642 1165 q 432 1063 529 1063 m 551 1307 q 506 1315 529 1307 q 444 1339 483 1322 q 408 1353 438 1342 q 357 1365 378 1365 q 322 1353 335 1365 q 310 1317 310 1340 l 210 1317 q 235 1423 210 1386 q 313 1460 261 1460 q 358 1452 335 1460 q 419 1428 381 1444 q 456 1413 426 1425 q 507 1401 486 1401 q 542 1414 529 1401 q 554 1451 554 1426 l 654 1451 q 628 1344 654 1381 q 551 1307 603 1307 z "},"Â":{"ha":864,"x_min":6,"x_max":857,"o":"m 613 242 l 251 242 l 167 0 l 6 0 l 353 972 l 511 972 l 857 0 l 697 0 l 613 242 m 561 385 l 432 754 l 301 385 l 561 385 m 613 1136 l 613 1039 l 432 1136 l 251 1039 l 251 1136 l 432 1263 l 613 1136 z "},"Ấ":{"ha":864,"x_min":6,"x_max":857,"o":"m 613 242 l 251 242 l 167 0 l 6 0 l 353 972 l 511 972 l 857 0 l 697 0 l 613 242 m 561 385 l 432 754 l 301 385 l 561 385 m 629 1426 l 779 1426 l 640 1256 l 538 1256 l 629 1426 m 613 1144 l 613 1047 l 432 1144 l 251 1047 l 251 1144 l 432 1271 l 613 1144 z "},"Ậ":{"ha":864,"x_min":6,"x_max":857,"o":"m 613 242 l 251 242 l 167 0 l 6 0 l 353 972 l 511 972 l 857 0 l 697 0 l 613 242 m 561 385 l 432 754 l 301 385 l 561 385 m 251 1158 l 432 1313 l 613 1158 l 613 1058 l 432 1172 l 251 1058 l 251 1158 m 361 -112 l 503 -112 l 503 -243 l 361 -243 l 361 -112 z "},"Ầ":{"ha":864,"x_min":6,"x_max":857,"o":"m 613 242 l 251 242 l 167 0 l 6 0 l 353 972 l 511 972 l 857 0 l 697 0 l 613 242 m 561 385 l 432 754 l 301 385 l 561 385 m 564 1256 l 447 1426 l 590 1426 l 663 1256 l 564 1256 m 613 1144 l 613 1047 l 432 1144 l 251 1047 l 251 1144 l 432 1271 l 613 1144 z "},"Ẩ":{"ha":864,"x_min":6,"x_max":857,"o":"m 613 242 l 251 242 l 167 0 l 6 0 l 353 972 l 511 972 l 857 0 l 697 0 l 613 242 m 561 385 l 432 754 l 301 385 l 561 385 m 613 1136 l 613 1039 l 432 1136 l 251 1039 l 251 1136 l 432 1263 l 613 1136 m 551 1271 q 590 1290 578 1278 q 601 1321 601 1301 q 549 1361 601 1361 q 463 1335 513 1361 l 439 1415 q 550 1442 492 1442 q 649 1412 610 1442 q 688 1329 688 1382 q 658 1253 688 1282 q 565 1211 629 1225 l 551 1271 z "},"Ẫ":{"ha":864,"x_min":6,"x_max":857,"o":"m 613 242 l 251 242 l 167 0 l 6 0 l 353 972 l 511 972 l 857 0 l 697 0 l 613 242 m 561 385 l 432 754 l 301 385 l 561 385 m 613 1136 l 613 1039 l 432 1136 l 251 1039 l 251 1136 l 432 1263 l 613 1136 m 551 1315 q 506 1323 529 1315 q 444 1347 483 1331 q 408 1362 438 1350 q 357 1374 378 1374 q 322 1361 335 1374 q 310 1325 310 1349 l 210 1325 q 235 1431 210 1394 q 313 1468 261 1468 q 358 1460 335 1468 q 419 1436 381 1453 q 456 1422 426 1433 q 507 1410 486 1410 q 542 1422 529 1410 q 554 1460 554 1435 l 654 1460 q 628 1352 654 1389 q 551 1315 603 1315 z "},"Ȁ":{"ha":864,"x_min":6,"x_max":857,"o":"m 613 242 l 251 242 l 167 0 l 6 0 l 353 972 l 511 972 l 857 0 l 697 0 l 613 242 m 561 385 l 432 754 l 301 385 l 561 385 m 278 1094 l 142 1308 l 293 1308 l 382 1094 l 278 1094 m 479 1094 l 353 1308 l 503 1308 l 582 1094 l 479 1094 z "},"Ä":{"ha":864,"x_min":6,"x_max":857,"o":"m 613 242 l 251 242 l 167 0 l 6 0 l 353 972 l 511 972 l 857 0 l 697 0 l 613 242 m 561 385 l 432 754 l 301 385 l 561 385 m 231 1207 l 358 1207 l 358 1093 l 231 1093 l 231 1207 m 506 1207 l 633 1207 l 633 1093 l 506 1093 l 506 1207 z "},"Ạ":{"ha":864,"x_min":6,"x_max":857,"o":"m 613 242 l 251 242 l 167 0 l 6 0 l 353 972 l 511 972 l 857 0 l 697 0 l 613 242 m 561 385 l 432 754 l 301 385 l 561 385 m 361 -112 l 503 -112 l 503 -243 l 361 -243 l 361 -112 z "},"À":{"ha":864,"x_min":6,"x_max":857,"o":"m 613 242 l 251 242 l 167 0 l 6 0 l 353 972 l 511 972 l 857 0 l 697 0 l 613 242 m 561 385 l 432 754 l 301 385 l 561 385 m 297 1138 l 297 1279 l 565 1147 l 565 1057 l 297 1138 z "},"Ả":{"ha":864,"x_min":6,"x_max":857,"o":"m 613 242 l 251 242 l 167 0 l 6 0 l 353 972 l 511 972 l 857 0 l 697 0 l 613 242 m 561 385 l 432 754 l 301 385 l 561 385 m 413 1115 q 451 1134 439 1122 q 463 1165 463 1146 q 410 1206 463 1206 q 324 1179 374 1206 l 300 1260 q 411 1286 353 1286 q 510 1256 471 1286 q 549 1174 549 1226 q 519 1098 549 1126 q 426 1056 490 1069 l 413 1115 z "},"Ȃ":{"ha":864,"x_min":6,"x_max":857,"o":"m 613 242 l 251 242 l 167 0 l 6 0 l 353 972 l 511 972 l 857 0 l 697 0 l 613 242 m 561 385 l 432 754 l 301 385 l 561 385 m 432 1261 q 585 1210 529 1261 q 642 1083 642 1158 l 526 1083 q 501 1147 526 1124 q 432 1169 475 1169 q 363 1147 389 1169 q 338 1083 338 1124 l 222 1083 q 278 1210 222 1158 q 432 1261 335 1261 z "},"Ā":{"ha":864,"x_min":6,"x_max":857,"o":"m 613 242 l 251 242 l 167 0 l 6 0 l 353 972 l 511 972 l 857 0 l 697 0 l 613 242 m 561 385 l 432 754 l 301 385 l 561 385 m 206 1203 l 658 1203 l 658 1101 l 206 1101 l 206 1203 z "},"Ą":{"ha":864,"x_min":6,"x_max":886,"o":"m 613 242 l 251 242 l 167 0 l 6 0 l 353 972 l 511 972 l 857 0 l 697 0 l 613 242 m 561 385 l 432 754 l 301 385 l 561 385 m 819 0 q 739 -74 767 -39 q 711 -146 711 -110 q 729 -195 711 -178 q 778 -212 747 -212 q 863 -190 821 -212 l 886 -264 q 767 -292 833 -292 q 665 -260 706 -292 q 625 -171 625 -228 q 658 -76 625 -121 q 738 0 692 -31 l 819 0 z "},"Å":{"ha":864,"x_min":6,"x_max":857,"o":"m 613 242 l 251 242 l 167 0 l 6 0 l 353 972 l 511 972 l 857 0 l 697 0 l 613 242 m 561 385 l 432 754 l 301 385 l 561 385 m 432 1049 q 326 1088 365 1049 q 286 1183 286 1126 q 326 1280 286 1240 q 432 1319 365 1319 q 538 1280 499 1319 q 578 1183 578 1240 q 538 1088 578 1126 q 432 1049 499 1049 m 432 1117 q 481 1135 461 1117 q 500 1183 500 1154 q 481 1232 500 1213 q 432 1251 461 1251 q 383 1232 403 1251 q 364 1183 364 1213 q 383 1135 364 1154 q 432 1117 403 1117 z "},"Ǻ":{"ha":864,"x_min":6,"x_max":857,"o":"m 613 242 l 251 242 l 167 0 l 6 0 l 353 972 l 511 972 l 857 0 l 697 0 l 613 242 m 561 385 l 432 754 l 301 385 l 561 385 m 432 1049 q 326 1088 365 1049 q 286 1183 286 1126 q 326 1280 286 1240 q 432 1319 365 1319 q 538 1280 499 1319 q 578 1183 578 1240 q 538 1088 578 1126 q 432 1049 499 1049 m 432 1117 q 481 1135 461 1117 q 500 1183 500 1154 q 481 1232 500 1213 q 432 1251 461 1251 q 383 1232 403 1251 q 364 1183 364 1213 q 383 1135 364 1154 q 432 1117 403 1117 m 299 1450 l 567 1582 l 567 1440 l 299 1360 l 299 1450 z "},"Ã":{"ha":864,"x_min":6,"x_max":857,"o":"m 613 242 l 251 242 l 167 0 l 6 0 l 353 972 l 511 972 l 857 0 l 697 0 l 613 242 m 561 385 l 432 754 l 301 385 l 561 385 m 551 1085 q 506 1092 529 1085 q 444 1117 483 1100 q 408 1131 438 1119 q 357 1143 378 1143 q 322 1131 335 1143 q 310 1094 310 1118 l 210 1094 q 235 1201 210 1164 q 313 1238 261 1238 q 358 1230 335 1238 q 419 1206 381 1222 q 456 1191 426 1203 q 507 1179 486 1179 q 542 1192 529 1179 q 554 1229 554 1204 l 654 1229 q 628 1122 654 1158 q 551 1085 603 1085 z "},"Æ":{"ha":1203,"x_min":-14,"x_max":1154,"o":"m 461 972 l 1142 972 l 1142 818 l 722 818 l 722 583 l 1046 583 l 1046 431 l 722 431 l 722 153 l 1154 153 l 1154 0 l 549 0 l 549 240 l 269 240 l 151 0 l -14 0 l 461 972 m 549 396 l 549 815 l 343 396 l 549 396 z "},"Ǽ":{"ha":1203,"x_min":-14,"x_max":1154,"o":"m 461 972 l 1142 972 l 1142 818 l 722 818 l 722 583 l 1046 583 l 1046 431 l 722 431 l 722 153 l 1154 153 l 1154 0 l 549 0 l 549 240 l 269 240 l 151 0 l -14 0 l 461 972 m 549 396 l 549 815 l 343 396 l 549 396 m 668 1147 l 936 1279 l 936 1138 l 668 1057 l 668 1147 z "},"B":{"ha":854,"x_min":108,"x_max":814,"o":"m 628 531 q 814 276 814 476 q 730 74 814 147 q 500 0 646 0 l 108 0 l 108 972 l 453 972 q 661 913 590 972 q 732 736 732 853 q 706 613 732 665 q 628 531 679 561 m 269 582 l 431 582 q 535 610 500 582 q 571 706 571 639 q 535 801 571 772 q 431 829 500 829 l 269 829 l 269 582 m 479 144 q 644 290 644 144 q 601 403 644 369 q 479 438 557 438 l 269 438 l 269 144 l 479 144 z "},"C":{"ha":850,"x_min":50,"x_max":806,"o":"m 546 -19 q 289 43 401 -19 q 113 220 176 106 q 50 486 50 335 q 115 752 50 638 q 293 929 179 867 q 551 992 407 992 q 689 976 624 992 q 806 935 754 961 l 789 782 q 550 839 668 839 q 374 794 447 839 q 264 669 301 749 q 226 486 226 589 q 263 303 226 383 q 372 178 300 224 q 547 133 444 133 q 670 147 613 133 q 789 189 728 161 l 806 38 q 546 -19 689 -19 z "},"Ć":{"ha":850,"x_min":50,"x_max":806,"o":"m 546 -19 q 289 43 401 -19 q 113 220 176 106 q 50 486 50 335 q 115 752 50 638 q 293 929 179 867 q 551 992 407 992 q 689 976 624 992 q 806 935 754 961 l 789 782 q 550 839 668 839 q 374 794 447 839 q 264 669 301 749 q 226 486 226 589 q 263 303 226 383 q 372 178 300 224 q 547 133 444 133 q 670 147 613 133 q 789 189 728 161 l 806 38 q 546 -19 689 -19 m 386 1147 l 654 1279 l 654 1138 l 386 1057 l 386 1147 z "},"Č":{"ha":850,"x_min":50,"x_max":806,"o":"m 546 -19 q 289 43 401 -19 q 113 220 176 106 q 50 486 50 335 q 115 752 50 638 q 293 929 179 867 q 551 992 407 992 q 689 976 624 992 q 806 935 754 961 l 789 782 q 550 839 668 839 q 374 794 447 839 q 264 669 301 749 q 226 486 226 589 q 263 303 226 383 q 372 178 300 224 q 547 133 444 133 q 670 147 613 133 q 789 189 728 161 l 806 38 q 546 -19 689 -19 m 339 1204 l 339 1301 l 519 1204 l 700 1301 l 700 1204 l 519 1078 l 339 1204 z "},"Ç":{"ha":850,"x_min":50,"x_max":806,"o":"m 806 38 q 558 -19 693 -18 l 542 -75 l 547 -75 q 641 -106 607 -75 q 675 -193 675 -137 q 632 -291 675 -257 q 521 -325 589 -325 q 410 -299 457 -325 l 433 -222 q 522 -246 483 -246 q 571 -233 553 -246 q 589 -197 589 -221 q 571 -159 589 -172 q 518 -146 553 -146 q 453 -157 485 -146 l 486 -17 q 258 61 357 -4 q 105 236 160 126 q 50 486 50 346 q 115 752 50 638 q 293 929 179 867 q 551 992 407 992 q 689 976 624 992 q 806 935 754 961 l 789 782 q 550 839 668 839 q 374 794 447 839 q 264 669 301 749 q 226 486 226 589 q 263 303 226 383 q 372 178 300 224 q 547 133 444 133 q 670 147 613 133 q 789 189 728 161 l 806 38 z "},"Ḉ":{"ha":850,"x_min":50,"x_max":806,"o":"m 654 1138 l 386 1057 l 386 1147 l 654 1279 l 654 1138 m 806 38 q 558 -19 693 -18 l 542 -75 l 547 -75 q 641 -106 607 -75 q 675 -193 675 -137 q 632 -291 675 -257 q 521 -325 589 -325 q 410 -299 457 -325 l 433 -222 q 522 -246 483 -246 q 571 -233 553 -246 q 589 -197 589 -221 q 571 -159 589 -172 q 518 -146 553 -146 q 453 -157 485 -146 l 486 -17 q 258 61 357 -4 q 105 236 160 126 q 50 486 50 346 q 115 752 50 638 q 293 929 179 867 q 551 992 407 992 q 689 976 624 992 q 806 935 754 961 l 789 782 q 550 839 668 839 q 374 794 447 839 q 264 669 301 749 q 226 486 226 589 q 263 303 226 383 q 372 178 300 224 q 547 133 444 133 q 670 147 613 133 q 789 189 728 161 l 806 38 z "},"Ĉ":{"ha":850,"x_min":50,"x_max":806,"o":"m 546 -19 q 289 43 401 -19 q 113 220 176 106 q 50 486 50 335 q 115 752 50 638 q 293 929 179 867 q 551 992 407 992 q 689 976 624 992 q 806 935 754 961 l 789 782 q 550 839 668 839 q 374 794 447 839 q 264 669 301 749 q 226 486 226 589 q 263 303 226 383 q 372 178 300 224 q 547 133 444 133 q 670 147 613 133 q 789 189 728 161 l 806 38 q 546 -19 689 -19 m 700 1136 l 700 1039 l 519 1136 l 339 1039 l 339 1136 l 519 1263 l 700 1136 z "},"Ċ":{"ha":850,"x_min":50,"x_max":806,"o":"m 546 -19 q 289 43 401 -19 q 113 220 176 106 q 50 486 50 335 q 115 752 50 638 q 293 929 179 867 q 551 992 407 992 q 689 976 624 992 q 806 935 754 961 l 789 782 q 550 839 668 839 q 374 794 447 839 q 264 669 301 749 q 226 486 226 589 q 263 303 226 383 q 372 178 300 224 q 547 133 444 133 q 670 147 613 133 q 789 189 728 161 l 806 38 q 546 -19 689 -19 m 449 1231 l 590 1231 l 590 1100 l 449 1100 l 449 1231 z "},"D":{"ha":1004,"x_min":108,"x_max":951,"o":"m 108 972 l 471 972 q 720 914 611 972 q 890 746 829 856 q 951 486 951 636 q 890 226 951 336 q 720 58 829 117 q 471 0 611 0 l 108 0 l 108 972 m 471 144 q 697 235 619 144 q 775 486 775 326 q 697 737 775 646 q 471 828 619 828 l 269 828 l 269 144 l 471 144 z "},"Ǆ":{"ha":1740,"x_min":108,"x_max":1731,"o":"m 108 972 l 471 972 q 720 914 611 972 q 890 746 829 856 q 951 486 951 636 q 890 226 951 336 q 720 58 829 117 q 471 0 611 0 l 108 0 l 108 972 m 471 144 q 697 235 619 144 q 775 486 775 326 q 697 737 775 646 q 471 828 619 828 l 269 828 l 269 144 l 471 144 m 1243 144 l 1724 144 l 1724 0 l 990 0 l 1478 828 l 1053 828 l 1053 972 l 1731 972 l 1243 144 m 1211 1204 l 1211 1301 l 1392 1204 l 1572 1301 l 1572 1204 l 1392 1078 l 1211 1204 z "},"Ð":{"ha":1014,"x_min":29,"x_max":963,"o":"m 122 431 l 29 431 l 29 557 l 122 557 l 122 972 l 483 972 q 731 914 622 972 q 901 746 840 856 q 963 486 963 636 q 901 226 963 336 q 731 58 840 117 q 483 0 622 0 l 122 0 l 122 431 m 483 153 q 710 242 632 153 q 788 486 788 331 q 710 731 788 642 q 483 819 632 819 l 281 819 l 281 557 l 456 557 l 456 431 l 281 431 l 281 153 l 483 153 z "},"Ď":{"ha":1004,"x_min":108,"x_max":951,"o":"m 108 972 l 471 972 q 720 914 611 972 q 890 746 829 856 q 951 486 951 636 q 890 226 951 336 q 720 58 829 117 q 471 0 611 0 l 108 0 l 108 972 m 471 144 q 697 235 619 144 q 775 486 775 326 q 697 737 775 646 q 471 828 619 828 l 269 828 l 269 144 l 471 144 m 321 1204 l 321 1301 l 501 1204 l 682 1301 l 682 1204 l 501 1078 l 321 1204 z "},"Đ":{"ha":1014,"x_min":29,"x_max":963,"o":"m 122 431 l 29 431 l 29 557 l 122 557 l 122 972 l 483 972 q 731 914 622 972 q 901 746 840 856 q 963 486 963 636 q 901 226 963 336 q 731 58 840 117 q 483 0 622 0 l 122 0 l 122 431 m 483 153 q 710 242 632 153 q 788 486 788 331 q 710 731 788 642 q 483 819 632 819 l 281 819 l 281 557 l 456 557 l 456 431 l 281 431 l 281 153 l 483 153 z "},"Ḍ":{"ha":1004,"x_min":108,"x_max":951,"o":"m 108 972 l 471 972 q 720 914 611 972 q 890 746 829 856 q 951 486 951 636 q 890 226 951 336 q 720 58 829 117 q 471 0 611 0 l 108 0 l 108 972 m 471 144 q 697 235 619 144 q 775 486 775 326 q 697 737 775 646 q 471 828 619 828 l 269 828 l 269 144 l 471 144 m 431 -112 l 572 -112 l 572 -243 l 431 -243 l 431 -112 z "},"Ḏ":{"ha":1004,"x_min":108,"x_max":951,"o":"m 108 972 l 471 972 q 720 914 611 972 q 890 746 829 856 q 951 486 951 636 q 890 226 951 336 q 720 58 829 117 q 471 0 611 0 l 108 0 l 108 972 m 471 144 q 697 235 619 144 q 775 486 775 326 q 697 737 775 646 q 471 828 619 828 l 269 828 l 269 144 l 471 144 m 275 -126 l 728 -126 l 728 -233 l 275 -233 l 275 -126 z "},"ǅ":{"ha":1651,"x_min":108,"x_max":1624,"o":"m 108 972 l 471 972 q 720 914 611 972 q 890 746 829 856 q 951 486 951 636 q 890 226 951 336 q 720 58 829 117 q 471 0 611 0 l 108 0 l 108 972 m 471 144 q 697 235 619 144 q 775 486 775 326 q 697 737 775 646 q 471 828 619 828 l 269 828 l 269 144 l 471 144 m 1271 133 l 1622 133 l 1622 0 l 1022 0 l 1375 557 l 1051 557 l 1051 689 l 1624 689 l 1271 133 m 1151 936 l 1151 1036 l 1332 922 l 1513 1036 l 1513 936 l 1332 782 l 1151 936 z "},"E":{"ha":782,"x_min":108,"x_max":733,"o":"m 108 972 l 719 972 l 719 819 l 272 819 l 272 583 l 624 583 l 624 431 l 272 431 l 272 153 l 733 153 l 733 0 l 108 0 l 108 972 z "},"É":{"ha":782,"x_min":108,"x_max":733,"o":"m 108 972 l 719 972 l 719 819 l 272 819 l 272 583 l 624 583 l 624 431 l 272 431 l 272 153 l 733 153 l 733 0 l 108 0 l 108 972 m 294 1147 l 563 1279 l 563 1138 l 294 1057 l 294 1147 z "},"Ĕ":{"ha":782,"x_min":108,"x_max":733,"o":"m 108 972 l 719 972 l 719 819 l 272 819 l 272 583 l 624 583 l 624 431 l 272 431 l 272 153 l 733 153 l 733 0 l 108 0 l 108 972 m 428 1093 q 274 1147 331 1093 q 218 1281 218 1201 l 333 1281 q 359 1216 333 1239 q 428 1193 385 1193 q 497 1216 471 1193 q 522 1281 522 1239 l 638 1281 q 581 1147 638 1201 q 428 1093 525 1093 z "},"Ě":{"ha":782,"x_min":108,"x_max":733,"o":"m 108 972 l 719 972 l 719 819 l 272 819 l 272 583 l 624 583 l 624 431 l 272 431 l 272 153 l 733 153 l 733 0 l 108 0 l 108 972 m 247 1214 l 247 1314 l 428 1200 l 608 1314 l 608 1214 l 428 1060 l 247 1214 z "},"Ḝ":{"ha":782,"x_min":108,"x_max":733,"o":"m 108 972 l 719 972 l 719 819 l 272 819 l 272 583 l 624 583 l 624 431 l 272 431 l 272 153 l 733 153 l 733 0 l 108 0 l 108 972 m 454 -75 q 548 -106 514 -75 q 582 -193 582 -137 q 539 -291 582 -257 q 428 -325 496 -325 q 317 -299 364 -325 l 340 -222 q 429 -246 390 -246 q 478 -233 460 -246 q 496 -197 496 -221 q 478 -159 496 -172 q 425 -146 460 -146 q 360 -157 392 -146 l 397 0 l 471 0 l 449 -75 l 454 -75 m 428 1063 q 274 1114 331 1063 q 218 1240 218 1165 l 333 1240 q 359 1176 333 1199 q 428 1154 385 1154 q 497 1176 471 1154 q 522 1240 522 1199 l 638 1240 q 581 1114 638 1165 q 428 1063 525 1063 z "},"Ê":{"ha":782,"x_min":108,"x_max":733,"o":"m 108 972 l 719 972 l 719 819 l 272 819 l 272 583 l 624 583 l 624 431 l 272 431 l 272 153 l 733 153 l 733 0 l 108 0 l 108 972 m 608 1136 l 608 1039 l 428 1136 l 247 1039 l 247 1136 l 428 1263 l 608 1136 z "},"Ế":{"ha":782,"x_min":108,"x_max":775,"o":"m 108 972 l 719 972 l 719 819 l 272 819 l 272 583 l 624 583 l 624 431 l 272 431 l 272 153 l 733 153 l 733 0 l 108 0 l 108 972 m 625 1426 l 775 1426 l 636 1256 l 533 1256 l 625 1426 m 608 1144 l 608 1047 l 428 1144 l 247 1047 l 247 1144 l 428 1271 l 608 1144 z "},"Ệ":{"ha":782,"x_min":108,"x_max":733,"o":"m 108 972 l 719 972 l 719 819 l 272 819 l 272 583 l 624 583 l 624 431 l 272 431 l 272 153 l 733 153 l 733 0 l 108 0 l 108 972 m 247 1158 l 428 1313 l 608 1158 l 608 1058 l 428 1172 l 247 1058 l 247 1158 m 360 -112 l 501 -112 l 501 -243 l 360 -243 l 360 -112 z "},"Ề":{"ha":782,"x_min":108,"x_max":733,"o":"m 108 972 l 719 972 l 719 819 l 272 819 l 272 583 l 624 583 l 624 431 l 272 431 l 272 153 l 733 153 l 733 0 l 108 0 l 108 972 m 560 1256 l 443 1426 l 586 1426 l 658 1256 l 560 1256 m 608 1144 l 608 1047 l 428 1144 l 247 1047 l 247 1144 l 428 1271 l 608 1144 z "},"Ể":{"ha":782,"x_min":108,"x_max":733,"o":"m 108 972 l 719 972 l 719 819 l 272 819 l 272 583 l 624 583 l 624 431 l 272 431 l 272 153 l 733 153 l 733 0 l 108 0 l 108 972 m 608 1136 l 608 1039 l 428 1136 l 247 1039 l 247 1136 l 428 1263 l 608 1136 m 547 1271 q 585 1290 574 1278 q 597 1321 597 1301 q 544 1361 597 1361 q 458 1335 508 1361 l 435 1415 q 546 1442 488 1442 q 644 1412 606 1442 q 683 1329 683 1382 q 654 1253 683 1282 q 561 1211 625 1225 l 547 1271 z "},"Ễ":{"ha":782,"x_min":108,"x_max":733,"o":"m 108 972 l 719 972 l 719 819 l 272 819 l 272 583 l 624 583 l 624 431 l 272 431 l 272 153 l 733 153 l 733 0 l 108 0 l 108 972 m 608 1136 l 608 1039 l 428 1136 l 247 1039 l 247 1136 l 428 1263 l 608 1136 m 547 1315 q 502 1323 525 1315 q 440 1347 479 1331 q 403 1362 433 1350 q 353 1374 374 1374 q 318 1361 331 1374 q 306 1325 306 1349 l 206 1325 q 231 1431 206 1394 q 308 1468 257 1468 q 353 1460 331 1468 q 415 1436 376 1453 q 452 1422 422 1433 q 503 1410 482 1410 q 538 1422 525 1410 q 550 1460 550 1435 l 650 1460 q 624 1352 650 1389 q 547 1315 599 1315 z "},"Ȅ":{"ha":782,"x_min":108,"x_max":733,"o":"m 108 972 l 719 972 l 719 819 l 272 819 l 272 583 l 624 583 l 624 431 l 272 431 l 272 153 l 733 153 l 733 0 l 108 0 l 108 972 m 274 1094 l 138 1308 l 289 1308 l 378 1094 l 274 1094 m 475 1094 l 349 1308 l 499 1308 l 578 1094 l 475 1094 z "},"Ë":{"ha":782,"x_min":108,"x_max":733,"o":"m 108 972 l 719 972 l 719 819 l 272 819 l 272 583 l 624 583 l 624 431 l 272 431 l 272 153 l 733 153 l 733 0 l 108 0 l 108 972 m 226 1224 l 354 1224 l 354 1104 l 226 1104 l 226 1224 m 501 1224 l 629 1224 l 629 1104 l 501 1104 l 501 1224 z "},"Ė":{"ha":782,"x_min":108,"x_max":733,"o":"m 108 972 l 719 972 l 719 819 l 272 819 l 272 583 l 624 583 l 624 431 l 272 431 l 272 153 l 733 153 l 733 0 l 108 0 l 108 972 m 357 1231 l 499 1231 l 499 1100 l 357 1100 l 357 1231 z "},"Ẹ":{"ha":782,"x_min":108,"x_max":733,"o":"m 108 972 l 719 972 l 719 819 l 272 819 l 272 583 l 624 583 l 624 431 l 272 431 l 272 153 l 733 153 l 733 0 l 108 0 l 108 972 m 360 -112 l 501 -112 l 501 -243 l 360 -243 l 360 -112 z "},"È":{"ha":782,"x_min":108,"x_max":733,"o":"m 108 972 l 719 972 l 719 819 l 272 819 l 272 583 l 624 583 l 624 431 l 272 431 l 272 153 l 733 153 l 733 0 l 108 0 l 108 972 m 293 1138 l 293 1279 l 561 1147 l 561 1057 l 293 1138 z "},"Ẻ":{"ha":782,"x_min":108,"x_max":733,"o":"m 108 972 l 719 972 l 719 819 l 272 819 l 272 583 l 624 583 l 624 431 l 272 431 l 272 153 l 733 153 l 733 0 l 108 0 l 108 972 m 408 1115 q 447 1134 435 1122 q 458 1165 458 1146 q 406 1206 458 1206 q 319 1179 369 1206 l 296 1260 q 407 1286 349 1286 q 506 1256 467 1286 q 544 1174 544 1226 q 515 1098 544 1126 q 422 1056 486 1069 l 408 1115 z "},"Ȇ":{"ha":782,"x_min":108,"x_max":733,"o":"m 108 972 l 719 972 l 719 819 l 272 819 l 272 583 l 624 583 l 624 431 l 272 431 l 272 153 l 733 153 l 733 0 l 108 0 l 108 972 m 428 1261 q 581 1210 525 1261 q 638 1083 638 1158 l 522 1083 q 497 1147 522 1124 q 428 1169 471 1169 q 359 1147 385 1169 q 333 1083 333 1124 l 218 1083 q 274 1210 218 1158 q 428 1261 331 1261 z "},"Ē":{"ha":782,"x_min":108,"x_max":733,"o":"m 108 972 l 719 972 l 719 819 l 272 819 l 272 583 l 624 583 l 624 431 l 272 431 l 272 153 l 733 153 l 733 0 l 108 0 l 108 972 m 201 1203 l 654 1203 l 654 1101 l 201 1101 l 201 1203 z "},"Ḗ":{"ha":782,"x_min":108,"x_max":733,"o":"m 108 972 l 719 972 l 719 819 l 272 819 l 272 583 l 624 583 l 624 431 l 272 431 l 272 153 l 733 153 l 733 0 l 108 0 l 108 972 m 201 1203 l 654 1203 l 654 1101 l 201 1101 l 201 1203 m 294 1386 l 563 1518 l 563 1376 l 294 1296 l 294 1386 z "},"Ḕ":{"ha":782,"x_min":108,"x_max":733,"o":"m 108 972 l 719 972 l 719 819 l 272 819 l 272 583 l 624 583 l 624 431 l 272 431 l 272 153 l 733 153 l 733 0 l 108 0 l 108 972 m 201 1203 l 654 1203 l 654 1101 l 201 1101 l 201 1203 m 293 1376 l 293 1518 l 561 1386 l 561 1296 l 293 1376 z "},"Ę":{"ha":782,"x_min":108,"x_max":801,"o":"m 108 972 l 719 972 l 719 819 l 272 819 l 272 583 l 624 583 l 624 431 l 272 431 l 272 153 l 733 153 l 733 0 l 108 0 l 108 972 m 735 0 q 654 -74 682 -39 q 626 -146 626 -110 q 644 -195 626 -178 q 693 -212 663 -212 q 778 -190 736 -212 l 801 -264 q 682 -292 749 -292 q 581 -260 621 -292 q 540 -171 540 -228 q 574 -76 540 -121 q 653 0 607 -31 l 735 0 z "},"Ẽ":{"ha":782,"x_min":108,"x_max":733,"o":"m 108 972 l 719 972 l 719 819 l 272 819 l 272 583 l 624 583 l 624 431 l 272 431 l 272 153 l 733 153 l 733 0 l 108 0 l 108 972 m 543 1088 q 495 1097 519 1088 q 440 1121 471 1106 q 391 1142 411 1135 q 353 1150 371 1150 q 318 1136 331 1150 q 306 1099 306 1122 l 193 1099 q 226 1219 196 1178 q 313 1261 257 1261 q 360 1252 336 1261 q 415 1228 385 1243 q 465 1206 444 1214 q 503 1199 485 1199 q 538 1213 525 1199 q 550 1250 550 1226 l 663 1250 q 629 1129 660 1171 q 543 1088 599 1088 z "},"F":{"ha":728,"x_min":108,"x_max":706,"o":"m 108 972 l 706 972 l 706 819 l 269 819 l 269 583 l 606 583 l 606 431 l 269 431 l 269 0 l 108 0 l 108 972 z "},"G":{"ha":926,"x_min":50,"x_max":858,"o":"m 536 -19 q 280 43 390 -19 q 110 220 169 106 q 50 488 50 335 q 115 752 50 638 q 294 929 179 867 q 557 992 410 992 q 703 976 632 992 q 826 935 774 961 l 810 786 q 558 839 685 839 q 310 742 394 839 q 226 489 226 646 q 310 231 226 328 q 554 133 394 133 q 697 151 626 133 l 697 350 l 557 350 l 557 488 l 858 488 l 858 54 q 717 1 801 22 q 536 -19 633 -19 z "},"Ğ":{"ha":926,"x_min":50,"x_max":858,"o":"m 536 -19 q 280 43 390 -19 q 110 220 169 106 q 50 488 50 335 q 115 752 50 638 q 294 929 179 867 q 557 992 410 992 q 703 976 632 992 q 826 935 774 961 l 810 786 q 558 839 685 839 q 310 742 394 839 q 226 489 226 646 q 310 231 226 328 q 554 133 394 133 q 697 151 626 133 l 697 350 l 557 350 l 557 488 l 858 488 l 858 54 q 717 1 801 22 q 536 -19 633 -19 m 558 1063 q 405 1114 461 1063 q 349 1240 349 1165 l 464 1240 q 490 1176 464 1199 q 558 1154 515 1154 q 627 1176 601 1154 q 653 1240 653 1199 l 768 1240 q 712 1114 768 1165 q 558 1063 656 1063 z "},"Ǧ":{"ha":926,"x_min":50,"x_max":858,"o":"m 536 -19 q 280 43 390 -19 q 110 220 169 106 q 50 488 50 335 q 115 752 50 638 q 294 929 179 867 q 557 992 410 992 q 703 976 632 992 q 826 935 774 961 l 810 786 q 558 839 685 839 q 310 742 394 839 q 226 489 226 646 q 310 231 226 328 q 554 133 394 133 q 697 151 626 133 l 697 350 l 557 350 l 557 488 l 858 488 l 858 54 q 717 1 801 22 q 536 -19 633 -19 m 378 1204 l 378 1301 l 558 1204 l 739 1301 l 739 1204 l 558 1078 l 378 1204 z "},"Ĝ":{"ha":926,"x_min":50,"x_max":858,"o":"m 536 -19 q 280 43 390 -19 q 110 220 169 106 q 50 488 50 335 q 115 752 50 638 q 294 929 179 867 q 557 992 410 992 q 703 976 632 992 q 826 935 774 961 l 810 786 q 558 839 685 839 q 310 742 394 839 q 226 489 226 646 q 310 231 226 328 q 554 133 394 133 q 697 151 626 133 l 697 350 l 557 350 l 557 488 l 858 488 l 858 54 q 717 1 801 22 q 536 -19 633 -19 m 739 1136 l 739 1039 l 558 1136 l 378 1039 l 378 1136 l 558 1263 l 739 1136 z "},"Ģ":{"ha":926,"x_min":50,"x_max":858,"o":"m 536 -19 q 280 43 390 -19 q 110 220 169 106 q 50 488 50 335 q 115 752 50 638 q 294 929 179 867 q 557 992 410 992 q 703 976 632 992 q 826 935 774 961 l 810 786 q 558 839 685 839 q 310 742 394 839 q 226 489 226 646 q 310 231 226 328 q 554 133 394 133 q 697 151 626 133 l 697 350 l 557 350 l 557 488 l 858 488 l 858 54 q 717 1 801 22 q 536 -19 633 -19 m 472 -431 l 525 -279 l 467 -279 l 467 -126 l 629 -126 l 629 -264 l 549 -431 l 472 -431 z "},"Ġ":{"ha":926,"x_min":50,"x_max":858,"o":"m 536 -19 q 280 43 390 -19 q 110 220 169 106 q 50 488 50 335 q 115 752 50 638 q 294 929 179 867 q 557 992 410 992 q 703 976 632 992 q 826 935 774 961 l 810 786 q 558 839 685 839 q 310 742 394 839 q 226 489 226 646 q 310 231 226 328 q 554 133 394 133 q 697 151 626 133 l 697 350 l 557 350 l 557 488 l 858 488 l 858 54 q 717 1 801 22 q 536 -19 633 -19 m 488 1231 l 629 1231 l 629 1100 l 488 1100 l 488 1231 z "},"Ḡ":{"ha":926,"x_min":50,"x_max":858,"o":"m 536 -19 q 280 43 390 -19 q 110 220 169 106 q 50 488 50 335 q 115 752 50 638 q 294 929 179 867 q 557 992 410 992 q 703 976 632 992 q 826 935 774 961 l 810 786 q 558 839 685 839 q 310 742 394 839 q 226 489 226 646 q 310 231 226 328 q 554 133 394 133 q 697 151 626 133 l 697 350 l 557 350 l 557 488 l 858 488 l 858 54 q 717 1 801 22 q 536 -19 633 -19 m 332 1203 l 785 1203 l 785 1101 l 332 1101 l 332 1203 z "},"H":{"ha":1001,"x_min":108,"x_max":893,"o":"m 108 972 l 269 972 l 269 582 l 732 582 l 732 972 l 893 972 l 893 0 l 732 0 l 732 431 l 269 431 l 269 0 l 108 0 l 108 972 z "},"Ħ":{"ha":1031,"x_min":15,"x_max":1015,"o":"m 1015 682 l 922 682 l 922 0 l 761 0 l 761 431 l 269 431 l 269 0 l 108 0 l 108 682 l 15 682 l 15 797 l 108 797 l 108 972 l 269 972 l 269 797 l 761 797 l 761 972 l 922 972 l 922 797 l 1015 797 l 1015 682 m 761 682 l 269 682 l 269 585 l 761 585 l 761 682 z "},"Ḫ":{"ha":1001,"x_min":108,"x_max":893,"o":"m 108 972 l 269 972 l 269 582 l 732 582 l 732 972 l 893 972 l 893 0 l 732 0 l 732 431 l 269 431 l 269 0 l 108 0 l 108 972 m 501 -314 q 348 -260 404 -314 q 292 -126 292 -206 l 407 -126 q 433 -191 407 -168 q 501 -214 458 -214 q 570 -191 544 -214 q 596 -126 596 -168 l 711 -126 q 655 -260 711 -206 q 501 -314 599 -314 z "},"Ĥ":{"ha":1001,"x_min":108,"x_max":893,"o":"m 108 972 l 269 972 l 269 582 l 732 582 l 732 972 l 893 972 l 893 0 l 732 0 l 732 431 l 269 431 l 269 0 l 108 0 l 108 972 m 682 1136 l 682 1039 l 501 1136 l 321 1039 l 321 1136 l 501 1263 l 682 1136 z "},"Ḥ":{"ha":1001,"x_min":108,"x_max":893,"o":"m 108 972 l 269 972 l 269 582 l 732 582 l 732 972 l 893 972 l 893 0 l 732 0 l 732 431 l 269 431 l 269 0 l 108 0 l 108 972 m 431 -112 l 572 -112 l 572 -243 l 431 -243 l 431 -112 z "},"I":{"ha":378,"x_min":108,"x_max":269,"o":"m 108 972 l 269 972 l 269 0 l 108 0 l 108 972 z "},"Ĳ":{"ha":963,"x_min":97,"x_max":865,"o":"m 97 972 l 258 972 l 258 457 l 97 457 l 97 972 m 265 335 q 330 185 281 238 q 481 133 379 133 q 658 217 611 133 q 704 457 704 301 l 704 972 l 865 972 l 865 415 q 769 96 865 211 q 481 -19 672 -19 q 222 67 317 -19 q 104 311 128 154 l 265 335 z "},"Í":{"ha":378,"x_min":56,"x_max":324,"o":"m 108 972 l 269 972 l 269 0 l 108 0 l 108 972 m 56 1147 l 324 1279 l 324 1138 l 56 1057 l 56 1147 z "},"Ĭ":{"ha":378,"x_min":-21,"x_max":399,"o":"m 108 972 l 269 972 l 269 0 l 108 0 l 108 972 m 189 1093 q 35 1147 92 1093 q -21 1281 -21 1201 l 94 1281 q 120 1216 94 1239 q 189 1193 146 1193 q 258 1216 232 1193 q 283 1281 283 1239 l 399 1281 q 342 1147 399 1201 q 189 1093 286 1093 z "},"Î":{"ha":378,"x_min":8,"x_max":369,"o":"m 108 972 l 269 972 l 269 0 l 108 0 l 108 972 m 369 1136 l 369 1039 l 189 1136 l 8 1039 l 8 1136 l 189 1263 l 369 1136 z "},"Ȉ":{"ha":378,"x_min":-101,"x_max":339,"o":"m 108 972 l 269 972 l 269 0 l 108 0 l 108 972 m 35 1094 l -101 1308 l 50 1308 l 139 1094 l 35 1094 m 236 1094 l 110 1308 l 260 1308 l 339 1094 l 236 1094 z "},"Ï":{"ha":378,"x_min":-12,"x_max":390,"o":"m 108 972 l 269 972 l 269 0 l 108 0 l 108 972 m -12 1207 l 115 1207 l 115 1093 l -12 1093 l -12 1207 m 263 1207 l 390 1207 l 390 1093 l 263 1093 l 263 1207 z "},"Ḯ":{"ha":378,"x_min":-12,"x_max":390,"o":"m 108 972 l 269 972 l 269 0 l 108 0 l 108 972 m -12 1207 l 115 1207 l 115 1093 l -12 1093 l -12 1207 m 263 1207 l 390 1207 l 390 1093 l 263 1093 l 263 1207 m 56 1361 l 324 1493 l 324 1351 l 56 1271 l 56 1361 z "},"İ":{"ha":378,"x_min":108,"x_max":269,"o":"m 108 972 l 269 972 l 269 0 l 108 0 l 108 972 m 118 1231 l 260 1231 l 260 1100 l 118 1100 l 118 1231 z "},"Ị":{"ha":378,"x_min":108,"x_max":269,"o":"m 108 972 l 269 972 l 269 0 l 108 0 l 108 972 m 118 -112 l 260 -112 l 260 -243 l 118 -243 l 118 -112 z "},"Ì":{"ha":378,"x_min":54,"x_max":322,"o":"m 108 972 l 269 972 l 269 0 l 108 0 l 108 972 m 54 1138 l 54 1279 l 322 1147 l 322 1057 l 54 1138 z "},"Ỉ":{"ha":378,"x_min":57,"x_max":306,"o":"m 108 972 l 269 972 l 269 0 l 108 0 l 108 972 m 161 1069 q 207 1118 194 1100 q 219 1160 219 1136 q 167 1206 219 1206 q 81 1179 131 1206 l 57 1260 q 168 1286 110 1286 q 267 1253 228 1286 q 306 1164 306 1221 q 283 1090 306 1121 q 211 1021 261 1058 l 161 1069 z "},"Ȋ":{"ha":378,"x_min":-21,"x_max":399,"o":"m 108 972 l 269 972 l 269 0 l 108 0 l 108 972 m 189 1261 q 342 1210 286 1261 q 399 1083 399 1158 l 283 1083 q 258 1147 283 1124 q 189 1169 232 1169 q 120 1147 146 1169 q 94 1083 94 1124 l -21 1083 q 35 1210 -21 1158 q 189 1261 92 1261 z "},"Ī":{"ha":378,"x_min":-37,"x_max":415,"o":"m 108 972 l 269 972 l 269 0 l 108 0 l 108 972 m -37 1203 l 415 1203 l 415 1101 l -37 1101 l -37 1203 z "},"Į":{"ha":378,"x_min":76,"x_max":338,"o":"m 108 972 l 269 972 l 269 0 l 108 0 l 108 972 m 271 0 q 190 -74 218 -39 q 163 -146 163 -110 q 181 -195 163 -178 q 229 -212 199 -212 q 314 -190 272 -212 l 338 -264 q 218 -292 285 -292 q 117 -260 157 -292 q 76 -171 76 -228 q 110 -76 76 -121 q 189 0 143 -31 l 271 0 z "},"Ĩ":{"ha":378,"x_min":-33,"x_max":411,"o":"m 108 972 l 269 972 l 269 0 l 108 0 l 108 972 m 308 1085 q 263 1092 286 1085 q 201 1117 240 1100 q 165 1131 194 1119 q 114 1143 135 1143 q 79 1131 92 1143 q 67 1094 67 1118 l -33 1094 q -8 1201 -33 1164 q 69 1238 18 1238 q 115 1230 92 1238 q 176 1206 138 1222 q 213 1191 183 1203 q 264 1179 243 1179 q 299 1192 286 1179 q 311 1229 311 1204 l 411 1229 q 385 1122 411 1158 q 308 1085 360 1085 z "},"J":{"ha":378,"x_min":-14,"x_max":269,"o":"m -14 -100 q 81 -72 53 -100 q 108 25 108 -44 l 108 972 l 269 972 l 269 -11 q 213 -184 269 -129 q 47 -239 157 -239 l 3 -239 l -14 -100 z "},"Ĵ":{"ha":378,"x_min":-14,"x_max":369,"o":"m -14 -100 q 81 -72 53 -100 q 108 25 108 -44 l 108 972 l 269 972 l 269 -11 q 213 -184 269 -129 q 47 -239 157 -239 l 3 -239 l -14 -100 m 369 1136 l 369 1039 l 189 1136 l 8 1039 l 8 1136 l 189 1263 l 369 1136 z "},"K":{"ha":840,"x_min":108,"x_max":835,"o":"m 108 972 l 269 972 l 269 0 l 108 0 l 108 972 m 283 514 l 643 972 l 833 972 l 469 515 l 835 0 l 643 0 l 283 514 z "},"Ķ":{"ha":840,"x_min":108,"x_max":835,"o":"m 108 972 l 269 972 l 269 0 l 108 0 l 108 972 m 283 514 l 643 972 l 833 972 l 469 515 l 835 0 l 643 0 l 283 514 m 390 -431 l 443 -279 l 385 -279 l 385 -126 l 547 -126 l 547 -264 l 467 -431 l 390 -431 z "},"L":{"ha":694,"x_min":108,"x_max":686,"o":"m 108 972 l 269 972 l 269 144 l 686 144 l 686 0 l 108 0 l 108 972 z "},"Ǉ":{"ha":1072,"x_min":108,"x_max":964,"o":"m 108 972 l 269 972 l 269 144 l 686 144 l 686 0 l 108 0 l 108 972 m 681 -100 q 775 -72 747 -100 q 803 25 803 -44 l 803 972 l 964 972 l 964 -11 q 908 -184 964 -129 q 742 -239 851 -239 l 697 -239 l 681 -100 z "},"Ĺ":{"ha":694,"x_min":56,"x_max":686,"o":"m 108 972 l 269 972 l 269 144 l 686 144 l 686 0 l 108 0 l 108 972 m 56 1147 l 324 1279 l 324 1138 l 56 1057 l 56 1147 z "},"Ľ":{"ha":694,"x_min":108,"x_max":686,"o":"m 108 972 l 269 972 l 269 144 l 686 144 l 686 0 l 108 0 l 108 972 m 551 972 l 686 972 l 647 732 l 551 732 l 551 972 z "},"Ļ":{"ha":694,"x_min":108,"x_max":686,"o":"m 108 972 l 269 972 l 269 144 l 686 144 l 686 0 l 108 0 l 108 972 m 324 -431 l 376 -279 l 318 -279 l 318 -126 l 481 -126 l 481 -264 l 400 -431 l 324 -431 z "},"Ŀ":{"ha":694,"x_min":108,"x_max":686,"o":"m 108 972 l 269 972 l 269 144 l 686 144 l 686 0 l 108 0 l 108 972 m 456 624 l 617 624 l 617 457 l 456 457 l 456 624 z "},"Ḷ":{"ha":694,"x_min":108,"x_max":686,"o":"m 108 972 l 269 972 l 269 144 l 686 144 l 686 0 l 108 0 l 108 972 m 326 -112 l 468 -112 l 468 -243 l 326 -243 l 326 -112 z "},"ǈ":{"ha":1014,"x_min":108,"x_max":932,"o":"m 108 972 l 269 972 l 269 144 l 686 144 l 686 0 l 108 0 l 108 972 m 776 972 l 932 972 l 932 813 l 776 813 l 776 972 m 686 -211 q 758 -185 740 -210 q 776 -90 776 -160 l 776 689 l 932 689 l 932 -153 q 885 -290 932 -250 q 751 -333 838 -329 l 701 -336 l 686 -211 z "},"Ḻ":{"ha":694,"x_min":108,"x_max":686,"o":"m 108 972 l 269 972 l 269 144 l 686 144 l 686 0 l 108 0 l 108 972 m 171 -126 l 624 -126 l 624 -233 l 171 -233 l 171 -126 z "},"Ł":{"ha":694,"x_min":15,"x_max":686,"o":"m 686 153 l 686 0 l 108 0 l 108 519 l 15 494 l 15 617 l 108 642 l 108 972 l 269 972 l 269 683 l 557 758 l 557 636 l 269 561 l 269 153 l 686 153 z "},"M":{"ha":1146,"x_min":63,"x_max":1083,"o":"m 196 972 l 331 972 l 574 515 l 817 972 l 950 972 l 1083 0 l 915 0 l 829 682 l 575 214 l 318 681 l 231 0 l 63 0 l 196 972 z "},"Ṃ":{"ha":1146,"x_min":63,"x_max":1083,"o":"m 196 972 l 331 972 l 574 515 l 817 972 l 950 972 l 1083 0 l 915 0 l 829 682 l 575 214 l 318 681 l 231 0 l 63 0 l 196 972 m 503 -112 l 644 -112 l 644 -243 l 503 -243 l 503 -112 z "},"N":{"ha":981,"x_min":108,"x_max":872,"o":"m 108 972 l 272 972 l 710 308 l 710 972 l 872 972 l 872 0 l 739 0 l 269 704 l 269 0 l 108 0 l 108 972 z "},"Ǌ":{"ha":1358,"x_min":108,"x_max":1250,"o":"m 108 972 l 272 972 l 710 308 l 710 972 l 872 972 l 872 0 l 739 0 l 269 704 l 269 0 l 108 0 l 108 972 m 967 -100 q 1061 -72 1033 -100 q 1089 25 1089 -44 l 1089 972 l 1250 972 l 1250 -11 q 1194 -184 1250 -129 q 1028 -239 1138 -239 l 983 -239 l 967 -100 z "},"Ń":{"ha":981,"x_min":108,"x_max":872,"o":"m 108 972 l 272 972 l 710 308 l 710 972 l 872 972 l 872 0 l 739 0 l 269 704 l 269 0 l 108 0 l 108 972 m 358 1147 l 626 1279 l 626 1138 l 358 1057 l 358 1147 z "},"Ň":{"ha":981,"x_min":108,"x_max":872,"o":"m 108 972 l 272 972 l 710 308 l 710 972 l 872 972 l 872 0 l 739 0 l 269 704 l 269 0 l 108 0 l 108 972 m 311 1204 l 311 1301 l 492 1204 l 672 1301 l 672 1204 l 492 1078 l 311 1204 z "},"Ņ":{"ha":981,"x_min":108,"x_max":872,"o":"m 108 972 l 272 972 l 710 308 l 710 972 l 872 972 l 872 0 l 739 0 l 269 704 l 269 0 l 108 0 l 108 972 m 431 -431 l 483 -279 l 425 -279 l 425 -126 l 588 -126 l 588 -264 l 507 -431 l 431 -431 z "},"Ṅ":{"ha":981,"x_min":108,"x_max":872,"o":"m 108 972 l 272 972 l 710 308 l 710 972 l 872 972 l 872 0 l 739 0 l 269 704 l 269 0 l 108 0 l 108 972 m 421 1231 l 563 1231 l 563 1100 l 421 1100 l 421 1231 z "},"Ṇ":{"ha":981,"x_min":108,"x_max":872,"o":"m 108 972 l 272 972 l 710 308 l 710 972 l 872 972 l 872 0 l 739 0 l 269 704 l 269 0 l 108 0 l 108 972 m 433 -112 l 575 -112 l 575 -243 l 433 -243 l 433 -112 z "},"Ŋ":{"ha":994,"x_min":108,"x_max":900,"o":"m 900 69 q 808 -187 900 -100 q 560 -275 715 -275 q 443 -258 497 -275 l 461 -111 q 564 -122 506 -122 q 692 -76 644 -122 q 739 57 739 -31 l 739 579 q 680 772 739 706 q 506 839 621 839 q 367 813 428 839 q 269 739 307 786 l 269 0 l 108 0 l 108 972 l 246 972 l 254 879 q 385 963 310 935 q 543 992 460 992 q 809 887 718 992 q 900 601 900 782 l 900 69 z "},"ǋ":{"ha":1288,"x_min":108,"x_max":1206,"o":"m 108 972 l 272 972 l 710 308 l 710 972 l 872 972 l 872 0 l 739 0 l 269 704 l 269 0 l 108 0 l 108 972 m 1050 972 l 1206 972 l 1206 813 l 1050 813 l 1050 972 m 960 -211 q 1032 -185 1014 -210 q 1050 -90 1050 -160 l 1050 689 l 1206 689 l 1206 -153 q 1158 -290 1206 -250 q 1025 -333 1111 -329 l 975 -336 l 960 -211 z "},"Ṉ":{"ha":981,"x_min":108,"x_max":872,"o":"m 108 972 l 272 972 l 710 308 l 710 972 l 872 972 l 872 0 l 739 0 l 269 704 l 269 0 l 108 0 l 108 972 m 278 -126 l 731 -126 l 731 -233 l 278 -233 l 278 -126 z "},"Ñ":{"ha":981,"x_min":108,"x_max":872,"o":"m 108 972 l 272 972 l 710 308 l 710 972 l 872 972 l 872 0 l 739 0 l 269 704 l 269 0 l 108 0 l 108 972 m 611 1085 q 566 1092 589 1085 q 504 1117 543 1100 q 467 1131 497 1119 q 417 1143 438 1143 q 382 1131 394 1143 q 369 1094 369 1118 l 269 1094 q 295 1201 269 1164 q 372 1238 321 1238 q 417 1230 394 1238 q 479 1206 440 1222 q 516 1191 486 1203 q 567 1179 546 1179 q 601 1192 589 1179 q 614 1229 614 1204 l 714 1229 q 688 1122 714 1158 q 611 1085 663 1085 z "},"O":{"ha":1061,"x_min":51,"x_max":1010,"o":"m 531 -19 q 283 43 392 -19 q 113 220 175 106 q 51 486 51 335 q 113 752 51 638 q 283 929 175 867 q 531 992 392 992 q 778 929 669 992 q 948 752 886 867 q 1010 486 1010 638 q 948 220 1010 335 q 778 43 886 106 q 531 -19 669 -19 m 531 136 q 759 233 679 136 q 839 486 839 331 q 759 739 839 642 q 531 836 679 836 q 301 739 382 836 q 221 486 221 642 q 301 233 221 331 q 531 136 382 136 z "},"Ó":{"ha":1061,"x_min":51,"x_max":1010,"o":"m 531 -19 q 283 43 392 -19 q 113 220 175 106 q 51 486 51 335 q 113 752 51 638 q 283 929 175 867 q 531 992 392 992 q 778 929 669 992 q 948 752 886 867 q 1010 486 1010 638 q 948 220 1010 335 q 778 43 886 106 q 531 -19 669 -19 m 531 136 q 759 233 679 136 q 839 486 839 331 q 759 739 839 642 q 531 836 679 836 q 301 739 382 836 q 221 486 221 642 q 301 233 221 331 q 531 136 382 136 m 397 1147 l 665 1279 l 665 1138 l 397 1057 l 397 1147 z "},"Ŏ":{"ha":1061,"x_min":51,"x_max":1010,"o":"m 531 -19 q 283 43 392 -19 q 113 220 175 106 q 51 486 51 335 q 113 752 51 638 q 283 929 175 867 q 531 992 392 992 q 778 929 669 992 q 948 752 886 867 q 1010 486 1010 638 q 948 220 1010 335 q 778 43 886 106 q 531 -19 669 -19 m 531 136 q 759 233 679 136 q 839 486 839 331 q 759 739 839 642 q 531 836 679 836 q 301 739 382 836 q 221 486 221 642 q 301 233 221 331 q 531 136 382 136 m 531 1063 q 377 1114 433 1063 q 321 1240 321 1165 l 436 1240 q 462 1176 436 1199 q 531 1154 488 1154 q 599 1176 574 1154 q 625 1240 625 1199 l 740 1240 q 684 1114 740 1165 q 531 1063 628 1063 z "},"Ô":{"ha":1061,"x_min":51,"x_max":1010,"o":"m 531 -19 q 283 43 392 -19 q 113 220 175 106 q 51 486 51 335 q 113 752 51 638 q 283 929 175 867 q 531 992 392 992 q 778 929 669 992 q 948 752 886 867 q 1010 486 1010 638 q 948 220 1010 335 q 778 43 886 106 q 531 -19 669 -19 m 531 136 q 759 233 679 136 q 839 486 839 331 q 759 739 839 642 q 531 836 679 836 q 301 739 382 836 q 221 486 221 642 q 301 233 221 331 q 531 136 382 136 m 711 1136 l 711 1039 l 531 1136 l 350 1039 l 350 1136 l 531 1263 l 711 1136 z "},"Ố":{"ha":1061,"x_min":51,"x_max":1010,"o":"m 531 -19 q 283 43 392 -19 q 113 220 175 106 q 51 486 51 335 q 113 752 51 638 q 283 929 175 867 q 531 992 392 992 q 778 929 669 992 q 948 752 886 867 q 1010 486 1010 638 q 948 220 1010 335 q 778 43 886 106 q 531 -19 669 -19 m 531 136 q 759 233 679 136 q 839 486 839 331 q 759 739 839 642 q 531 836 679 836 q 301 739 382 836 q 221 486 221 642 q 301 233 221 331 q 531 136 382 136 m 728 1426 l 878 1426 l 739 1256 l 636 1256 l 728 1426 m 711 1144 l 711 1047 l 531 1144 l 350 1047 l 350 1144 l 531 1271 l 711 1144 z "},"Ộ":{"ha":1061,"x_min":51,"x_max":1010,"o":"m 531 -19 q 283 43 392 -19 q 113 220 175 106 q 51 486 51 335 q 113 752 51 638 q 283 929 175 867 q 531 992 392 992 q 778 929 669 992 q 948 752 886 867 q 1010 486 1010 638 q 948 220 1010 335 q 778 43 886 106 q 531 -19 669 -19 m 531 136 q 759 233 679 136 q 839 486 839 331 q 759 739 839 642 q 531 836 679 836 q 301 739 382 836 q 221 486 221 642 q 301 233 221 331 q 531 136 382 136 m 350 1158 l 531 1313 l 711 1158 l 711 1058 l 531 1172 l 350 1058 l 350 1158 m 460 -112 l 601 -112 l 601 -243 l 460 -243 l 460 -112 z "},"Ồ":{"ha":1061,"x_min":51,"x_max":1010,"o":"m 531 -19 q 283 43 392 -19 q 113 220 175 106 q 51 486 51 335 q 113 752 51 638 q 283 929 175 867 q 531 992 392 992 q 778 929 669 992 q 948 752 886 867 q 1010 486 1010 638 q 948 220 1010 335 q 778 43 886 106 q 531 -19 669 -19 m 531 136 q 759 233 679 136 q 839 486 839 331 q 759 739 839 642 q 531 836 679 836 q 301 739 382 836 q 221 486 221 642 q 301 233 221 331 q 531 136 382 136 m 663 1256 l 546 1426 l 689 1426 l 761 1256 l 663 1256 m 711 1144 l 711 1047 l 531 1144 l 350 1047 l 350 1144 l 531 1271 l 711 1144 z "},"Ổ":{"ha":1061,"x_min":51,"x_max":1010,"o":"m 531 -19 q 283 43 392 -19 q 113 220 175 106 q 51 486 51 335 q 113 752 51 638 q 283 929 175 867 q 531 992 392 992 q 778 929 669 992 q 948 752 886 867 q 1010 486 1010 638 q 948 220 1010 335 q 778 43 886 106 q 531 -19 669 -19 m 531 136 q 759 233 679 136 q 839 486 839 331 q 759 739 839 642 q 531 836 679 836 q 301 739 382 836 q 221 486 221 642 q 301 233 221 331 q 531 136 382 136 m 711 1136 l 711 1039 l 531 1136 l 350 1039 l 350 1136 l 531 1263 l 711 1136 m 650 1271 q 688 1290 676 1278 q 700 1321 700 1301 q 647 1361 700 1361 q 561 1335 611 1361 l 538 1415 q 649 1442 590 1442 q 747 1412 708 1442 q 786 1329 786 1382 q 757 1253 786 1282 q 664 1211 728 1225 l 650 1271 z "},"Ỗ":{"ha":1061,"x_min":51,"x_max":1010,"o":"m 531 -19 q 283 43 392 -19 q 113 220 175 106 q 51 486 51 335 q 113 752 51 638 q 283 929 175 867 q 531 992 392 992 q 778 929 669 992 q 948 752 886 867 q 1010 486 1010 638 q 948 220 1010 335 q 778 43 886 106 q 531 -19 669 -19 m 531 136 q 759 233 679 136 q 839 486 839 331 q 759 739 839 642 q 531 836 679 836 q 301 739 382 836 q 221 486 221 642 q 301 233 221 331 q 531 136 382 136 m 711 1136 l 711 1039 l 531 1136 l 350 1039 l 350 1136 l 531 1263 l 711 1136 m 650 1315 q 605 1323 628 1315 q 543 1347 582 1331 q 506 1362 536 1350 q 456 1374 476 1374 q 421 1361 433 1374 q 408 1325 408 1349 l 308 1325 q 334 1431 308 1394 q 411 1468 360 1468 q 456 1460 433 1468 q 518 1436 479 1453 q 555 1422 525 1433 q 606 1410 585 1410 q 640 1422 628 1410 q 653 1460 653 1435 l 753 1460 q 727 1352 753 1389 q 650 1315 701 1315 z "},"Ȍ":{"ha":1061,"x_min":51,"x_max":1010,"o":"m 531 -19 q 283 43 392 -19 q 113 220 175 106 q 51 486 51 335 q 113 752 51 638 q 283 929 175 867 q 531 992 392 992 q 778 929 669 992 q 948 752 886 867 q 1010 486 1010 638 q 948 220 1010 335 q 778 43 886 106 q 531 -19 669 -19 m 531 136 q 759 233 679 136 q 839 486 839 331 q 759 739 839 642 q 531 836 679 836 q 301 739 382 836 q 221 486 221 642 q 301 233 221 331 q 531 136 382 136 m 376 1094 l 240 1308 l 392 1308 l 481 1094 l 376 1094 m 578 1094 l 451 1308 l 601 1308 l 681 1094 l 578 1094 z "},"Ö":{"ha":1061,"x_min":51,"x_max":1010,"o":"m 531 -19 q 283 43 392 -19 q 113 220 175 106 q 51 486 51 335 q 113 752 51 638 q 283 929 175 867 q 531 992 392 992 q 778 929 669 992 q 948 752 886 867 q 1010 486 1010 638 q 948 220 1010 335 q 778 43 886 106 q 531 -19 669 -19 m 531 136 q 759 233 679 136 q 839 486 839 331 q 759 739 839 642 q 531 836 679 836 q 301 739 382 836 q 221 486 221 642 q 301 233 221 331 q 531 136 382 136 m 329 1207 l 457 1207 l 457 1093 l 329 1093 l 329 1207 m 604 1207 l 732 1207 l 732 1093 l 604 1093 l 604 1207 z "},"Ȫ":{"ha":1061,"x_min":51,"x_max":1010,"o":"m 531 -19 q 283 43 392 -19 q 113 220 175 106 q 51 486 51 335 q 113 752 51 638 q 283 929 175 867 q 531 992 392 992 q 778 929 669 992 q 948 752 886 867 q 1010 486 1010 638 q 948 220 1010 335 q 778 43 886 106 q 531 -19 669 -19 m 531 136 q 759 233 679 136 q 839 486 839 331 q 759 739 839 642 q 531 836 679 836 q 301 739 382 836 q 221 486 221 642 q 301 233 221 331 q 531 136 382 136 m 329 1207 l 457 1207 l 457 1093 l 329 1093 l 329 1207 m 604 1207 l 732 1207 l 732 1093 l 604 1093 l 604 1207 m 304 1417 l 757 1417 l 757 1315 l 304 1315 l 304 1417 z "},"Ȱ":{"ha":1061,"x_min":51,"x_max":1010,"o":"m 531 -19 q 283 43 392 -19 q 113 220 175 106 q 51 486 51 335 q 113 752 51 638 q 283 929 175 867 q 531 992 392 992 q 778 929 669 992 q 948 752 886 867 q 1010 486 1010 638 q 948 220 1010 335 q 778 43 886 106 q 531 -19 669 -19 m 531 136 q 759 233 679 136 q 839 486 839 331 q 759 739 839 642 q 531 836 679 836 q 301 739 382 836 q 221 486 221 642 q 301 233 221 331 q 531 136 382 136 m 460 1231 l 601 1231 l 601 1100 l 460 1100 l 460 1231 m 304 1446 l 757 1446 l 757 1344 l 304 1344 l 304 1446 z "},"Ọ":{"ha":1061,"x_min":51,"x_max":1010,"o":"m 531 -19 q 283 43 392 -19 q 113 220 175 106 q 51 486 51 335 q 113 752 51 638 q 283 929 175 867 q 531 992 392 992 q 778 929 669 992 q 948 752 886 867 q 1010 486 1010 638 q 948 220 1010 335 q 778 43 886 106 q 531 -19 669 -19 m 531 136 q 759 233 679 136 q 839 486 839 331 q 759 739 839 642 q 531 836 679 836 q 301 739 382 836 q 221 486 221 642 q 301 233 221 331 q 531 136 382 136 m 460 -112 l 601 -112 l 601 -243 l 460 -243 l 460 -112 z "},"Ò":{"ha":1061,"x_min":51,"x_max":1010,"o":"m 531 -19 q 283 43 392 -19 q 113 220 175 106 q 51 486 51 335 q 113 752 51 638 q 283 929 175 867 q 531 992 392 992 q 778 929 669 992 q 948 752 886 867 q 1010 486 1010 638 q 948 220 1010 335 q 778 43 886 106 q 531 -19 669 -19 m 531 136 q 759 233 679 136 q 839 486 839 331 q 759 739 839 642 q 531 836 679 836 q 301 739 382 836 q 221 486 221 642 q 301 233 221 331 q 531 136 382 136 m 396 1138 l 396 1279 l 664 1147 l 664 1057 l 396 1138 z "},"Ỏ":{"ha":1061,"x_min":51,"x_max":1010,"o":"m 531 -19 q 283 43 392 -19 q 113 220 175 106 q 51 486 51 335 q 113 752 51 638 q 283 929 175 867 q 531 992 392 992 q 778 929 669 992 q 948 752 886 867 q 1010 486 1010 638 q 948 220 1010 335 q 778 43 886 106 q 531 -19 669 -19 m 531 136 q 759 233 679 136 q 839 486 839 331 q 759 739 839 642 q 531 836 679 836 q 301 739 382 836 q 221 486 221 642 q 301 233 221 331 q 531 136 382 136 m 511 1115 q 549 1134 538 1122 q 561 1165 561 1146 q 508 1206 561 1206 q 422 1179 472 1206 l 399 1260 q 510 1286 451 1286 q 608 1256 569 1286 q 647 1174 647 1226 q 618 1098 647 1126 q 525 1056 589 1069 l 511 1115 z "},"Ơ":{"ha":1061,"x_min":51,"x_max":1010,"o":"m 815 904 q 958 731 907 839 q 1010 486 1010 624 q 948 220 1010 335 q 778 43 886 106 q 531 -19 669 -19 q 283 43 392 -19 q 113 220 175 106 q 51 486 51 335 q 113 752 51 638 q 283 929 175 867 q 531 992 392 992 q 675 972 604 992 q 781 1075 781 975 l 918 1075 q 890 977 918 1021 q 815 904 863 933 m 531 136 q 759 233 679 136 q 839 486 839 331 q 759 739 839 642 q 531 836 679 836 q 301 739 382 836 q 221 486 221 642 q 301 233 221 331 q 531 136 382 136 z "},"Ớ":{"ha":1061,"x_min":51,"x_max":1010,"o":"m 815 904 q 958 731 907 839 q 1010 486 1010 624 q 948 220 1010 335 q 778 43 886 106 q 531 -19 669 -19 q 283 43 392 -19 q 113 220 175 106 q 51 486 51 335 q 113 752 51 638 q 283 929 175 867 q 531 992 392 992 q 675 972 604 992 q 781 1075 781 975 l 918 1075 q 890 977 918 1021 q 815 904 863 933 m 531 136 q 759 233 679 136 q 839 486 839 331 q 759 739 839 642 q 531 836 679 836 q 301 739 382 836 q 221 486 221 642 q 301 233 221 331 q 531 136 382 136 m 397 1179 l 665 1333 l 665 1182 l 397 1078 l 397 1179 z "},"Ợ":{"ha":1061,"x_min":51,"x_max":1010,"o":"m 815 904 q 958 731 907 839 q 1010 486 1010 624 q 948 220 1010 335 q 778 43 886 106 q 531 -19 669 -19 q 283 43 392 -19 q 113 220 175 106 q 51 486 51 335 q 113 752 51 638 q 283 929 175 867 q 531 992 392 992 q 675 972 604 992 q 781 1075 781 975 l 918 1075 q 890 977 918 1021 q 815 904 863 933 m 531 136 q 759 233 679 136 q 839 486 839 331 q 759 739 839 642 q 531 836 679 836 q 301 739 382 836 q 221 486 221 642 q 301 233 221 331 q 531 136 382 136 m 460 -112 l 601 -112 l 601 -243 l 460 -243 l 460 -112 z "},"Ờ":{"ha":1061,"x_min":51,"x_max":1010,"o":"m 815 904 q 958 731 907 839 q 1010 486 1010 624 q 948 220 1010 335 q 778 43 886 106 q 531 -19 669 -19 q 283 43 392 -19 q 113 220 175 106 q 51 486 51 335 q 113 752 51 638 q 283 929 175 867 q 531 992 392 992 q 675 972 604 992 q 781 1075 781 975 l 918 1075 q 890 977 918 1021 q 815 904 863 933 m 531 136 q 759 233 679 136 q 839 486 839 331 q 759 739 839 642 q 531 836 679 836 q 301 739 382 836 q 221 486 221 642 q 301 233 221 331 q 531 136 382 136 m 396 1182 l 396 1333 l 664 1179 l 664 1078 l 396 1182 z "},"Ở":{"ha":1061,"x_min":51,"x_max":1010,"o":"m 815 904 q 958 731 907 839 q 1010 486 1010 624 q 948 220 1010 335 q 778 43 886 106 q 531 -19 669 -19 q 283 43 392 -19 q 113 220 175 106 q 51 486 51 335 q 113 752 51 638 q 283 929 175 867 q 531 992 392 992 q 675 972 604 992 q 781 1075 781 975 l 918 1075 q 890 977 918 1021 q 815 904 863 933 m 531 136 q 759 233 679 136 q 839 486 839 331 q 759 739 839 642 q 531 836 679 836 q 301 739 382 836 q 221 486 221 642 q 301 233 221 331 q 531 136 382 136 m 511 1115 q 549 1134 538 1122 q 561 1165 561 1146 q 508 1206 561 1206 q 422 1179 472 1206 l 399 1260 q 510 1286 451 1286 q 608 1256 569 1286 q 647 1174 647 1226 q 618 1098 647 1126 q 525 1056 589 1069 l 511 1115 z "},"Ỡ":{"ha":1061,"x_min":51,"x_max":1010,"o":"m 815 904 q 958 731 907 839 q 1010 486 1010 624 q 948 220 1010 335 q 778 43 886 106 q 531 -19 669 -19 q 283 43 392 -19 q 113 220 175 106 q 51 486 51 335 q 113 752 51 638 q 283 929 175 867 q 531 992 392 992 q 675 972 604 992 q 781 1075 781 975 l 918 1075 q 890 977 918 1021 q 815 904 863 933 m 531 136 q 759 233 679 136 q 839 486 839 331 q 759 739 839 642 q 531 836 679 836 q 301 739 382 836 q 221 486 221 642 q 301 233 221 331 q 531 136 382 136 m 646 1088 q 598 1097 622 1088 q 543 1121 574 1106 q 494 1142 514 1135 q 456 1150 474 1150 q 421 1136 433 1150 q 408 1099 408 1122 l 296 1099 q 329 1219 299 1178 q 415 1261 360 1261 q 463 1252 439 1261 q 518 1228 488 1243 q 567 1206 547 1214 q 606 1199 588 1199 q 640 1213 628 1199 q 653 1250 653 1226 l 765 1250 q 732 1129 763 1171 q 646 1088 701 1088 z "},"Ő":{"ha":1061,"x_min":51,"x_max":1010,"o":"m 531 -19 q 283 43 392 -19 q 113 220 175 106 q 51 486 51 335 q 113 752 51 638 q 283 929 175 867 q 531 992 392 992 q 778 929 669 992 q 948 752 886 867 q 1010 486 1010 638 q 948 220 1010 335 q 778 43 886 106 q 531 -19 669 -19 m 531 136 q 759 233 679 136 q 839 486 839 331 q 759 739 839 642 q 531 836 679 836 q 301 739 382 836 q 221 486 221 642 q 301 233 221 331 q 531 136 382 136 m 465 1308 l 617 1308 l 478 1094 l 374 1094 l 465 1308 m 676 1308 l 828 1308 l 678 1094 l 575 1094 l 676 1308 z "},"Ȏ":{"ha":1061,"x_min":51,"x_max":1010,"o":"m 531 -19 q 283 43 392 -19 q 113 220 175 106 q 51 486 51 335 q 113 752 51 638 q 283 929 175 867 q 531 992 392 992 q 778 929 669 992 q 948 752 886 867 q 1010 486 1010 638 q 948 220 1010 335 q 778 43 886 106 q 531 -19 669 -19 m 531 136 q 759 233 679 136 q 839 486 839 331 q 759 739 839 642 q 531 836 679 836 q 301 739 382 836 q 221 486 221 642 q 301 233 221 331 q 531 136 382 136 m 531 1261 q 684 1210 628 1261 q 740 1083 740 1158 l 625 1083 q 599 1147 625 1124 q 531 1169 574 1169 q 462 1147 488 1169 q 436 1083 436 1124 l 321 1083 q 377 1210 321 1158 q 531 1261 433 1261 z "},"Ō":{"ha":1061,"x_min":51,"x_max":1010,"o":"m 531 -19 q 283 43 392 -19 q 113 220 175 106 q 51 486 51 335 q 113 752 51 638 q 283 929 175 867 q 531 992 392 992 q 778 929 669 992 q 948 752 886 867 q 1010 486 1010 638 q 948 220 1010 335 q 778 43 886 106 q 531 -19 669 -19 m 531 136 q 759 233 679 136 q 839 486 839 331 q 759 739 839 642 q 531 836 679 836 q 301 739 382 836 q 221 486 221 642 q 301 233 221 331 q 531 136 382 136 m 304 1203 l 757 1203 l 757 1101 l 304 1101 l 304 1203 z "},"Ṓ":{"ha":1061,"x_min":51,"x_max":1010,"o":"m 531 -19 q 283 43 392 -19 q 113 220 175 106 q 51 486 51 335 q 113 752 51 638 q 283 929 175 867 q 531 992 392 992 q 778 929 669 992 q 948 752 886 867 q 1010 486 1010 638 q 948 220 1010 335 q 778 43 886 106 q 531 -19 669 -19 m 531 136 q 759 233 679 136 q 839 486 839 331 q 759 739 839 642 q 531 836 679 836 q 301 739 382 836 q 221 486 221 642 q 301 233 221 331 q 531 136 382 136 m 304 1203 l 757 1203 l 757 1101 l 304 1101 l 304 1203 m 397 1386 l 665 1518 l 665 1376 l 397 1296 l 397 1386 z "},"Ṑ":{"ha":1061,"x_min":51,"x_max":1010,"o":"m 531 -19 q 283 43 392 -19 q 113 220 175 106 q 51 486 51 335 q 113 752 51 638 q 283 929 175 867 q 531 992 392 992 q 778 929 669 992 q 948 752 886 867 q 1010 486 1010 638 q 948 220 1010 335 q 778 43 886 106 q 531 -19 669 -19 m 531 136 q 759 233 679 136 q 839 486 839 331 q 759 739 839 642 q 531 836 679 836 q 301 739 382 836 q 221 486 221 642 q 301 233 221 331 q 531 136 382 136 m 304 1203 l 757 1203 l 757 1101 l 304 1101 l 304 1203 m 396 1376 l 396 1518 l 664 1386 l 664 1296 l 396 1376 z "},"Ǫ":{"ha":1061,"x_min":51,"x_max":1010,"o":"m 646 -7 q 572 -78 597 -44 q 547 -146 547 -111 q 565 -195 547 -178 q 614 -212 583 -212 q 699 -190 657 -212 l 722 -264 q 603 -292 669 -292 q 501 -260 542 -292 q 461 -171 461 -228 q 485 -89 461 -128 q 547 -19 510 -50 l 531 -19 q 283 43 392 -19 q 113 220 175 106 q 51 486 51 335 q 113 752 51 638 q 283 929 175 867 q 531 992 392 992 q 778 929 669 992 q 948 752 886 867 q 1010 486 1010 638 q 965 253 1010 357 q 837 83 919 150 q 646 -7 754 17 m 221 486 q 301 233 221 331 q 531 136 382 136 q 759 233 679 136 q 839 486 839 331 q 759 739 839 642 q 531 836 679 836 q 301 739 382 836 q 221 486 221 642 z "},"Ø":{"ha":1061,"x_min":51,"x_max":1010,"o":"m 858 869 q 970 703 931 801 q 1010 486 1010 606 q 948 220 1010 335 q 778 43 886 106 q 531 -19 669 -19 q 293 38 396 -19 l 225 -61 l 89 -61 l 201 104 q 90 269 129 171 q 51 486 51 367 q 113 752 51 638 q 283 929 175 867 q 531 992 392 992 q 768 935 665 992 l 836 1033 l 971 1033 l 858 869 m 221 486 q 294 240 221 335 l 679 803 q 531 836 613 836 q 301 739 382 836 q 221 486 221 642 m 531 136 q 759 233 679 136 q 839 486 839 331 q 765 732 839 638 l 382 169 q 531 136 444 136 z "},"Ǿ":{"ha":1061,"x_min":51,"x_max":1010,"o":"m 858 869 q 970 703 931 801 q 1010 486 1010 606 q 948 220 1010 335 q 778 43 886 106 q 531 -19 669 -19 q 293 38 396 -19 l 225 -61 l 89 -61 l 201 104 q 90 269 129 171 q 51 486 51 367 q 113 752 51 638 q 283 929 175 867 q 531 992 392 992 q 768 935 665 992 l 836 1033 l 971 1033 l 858 869 m 221 486 q 294 240 221 335 l 679 803 q 531 836 613 836 q 301 739 382 836 q 221 486 221 642 m 531 136 q 759 233 679 136 q 839 486 839 331 q 765 732 839 638 l 382 169 q 531 136 444 136 m 396 1179 l 664 1333 l 664 1182 l 396 1078 l 396 1179 z "},"Õ":{"ha":1061,"x_min":51,"x_max":1010,"o":"m 531 -19 q 283 43 392 -19 q 113 220 175 106 q 51 486 51 335 q 113 752 51 638 q 283 929 175 867 q 531 992 392 992 q 778 929 669 992 q 948 752 886 867 q 1010 486 1010 638 q 948 220 1010 335 q 778 43 886 106 q 531 -19 669 -19 m 531 136 q 759 233 679 136 q 839 486 839 331 q 759 739 839 642 q 531 836 679 836 q 301 739 382 836 q 221 486 221 642 q 301 233 221 331 q 531 136 382 136 m 650 1085 q 605 1092 628 1085 q 543 1117 582 1100 q 506 1131 536 1119 q 456 1143 476 1143 q 421 1131 433 1143 q 408 1094 408 1118 l 308 1094 q 334 1201 308 1164 q 411 1238 360 1238 q 456 1230 433 1238 q 518 1206 479 1222 q 555 1191 525 1203 q 606 1179 585 1179 q 640 1192 628 1179 q 653 1229 653 1204 l 753 1229 q 727 1122 753 1158 q 650 1085 701 1085 z "},"Ṍ":{"ha":1061,"x_min":51,"x_max":1010,"o":"m 531 -19 q 283 43 392 -19 q 113 220 175 106 q 51 486 51 335 q 113 752 51 638 q 283 929 175 867 q 531 992 392 992 q 778 929 669 992 q 948 752 886 867 q 1010 486 1010 638 q 948 220 1010 335 q 778 43 886 106 q 531 -19 669 -19 m 531 136 q 759 233 679 136 q 839 486 839 331 q 759 739 839 642 q 531 836 679 836 q 301 739 382 836 q 221 486 221 642 q 301 233 221 331 q 531 136 382 136 m 650 1085 q 605 1092 628 1085 q 543 1117 582 1100 q 506 1131 536 1119 q 456 1143 476 1143 q 421 1131 433 1143 q 408 1094 408 1118 l 308 1094 q 334 1201 308 1164 q 411 1238 360 1238 q 456 1230 433 1238 q 518 1206 479 1222 q 555 1191 525 1203 q 606 1179 585 1179 q 640 1192 628 1179 q 653 1229 653 1204 l 753 1229 q 727 1122 753 1158 q 650 1085 701 1085 m 397 1382 l 665 1514 l 665 1372 l 397 1292 l 397 1382 z "},"Ṏ":{"ha":1061,"x_min":51,"x_max":1010,"o":"m 531 -19 q 283 43 392 -19 q 113 220 175 106 q 51 486 51 335 q 113 752 51 638 q 283 929 175 867 q 531 992 392 992 q 778 929 669 992 q 948 752 886 867 q 1010 486 1010 638 q 948 220 1010 335 q 778 43 886 106 q 531 -19 669 -19 m 531 136 q 759 233 679 136 q 839 486 839 331 q 759 739 839 642 q 531 836 679 836 q 301 739 382 836 q 221 486 221 642 q 301 233 221 331 q 531 136 382 136 m 650 1085 q 605 1092 628 1085 q 543 1117 582 1100 q 506 1131 536 1119 q 456 1143 476 1143 q 421 1131 433 1143 q 408 1094 408 1118 l 308 1094 q 334 1201 308 1164 q 411 1238 360 1238 q 456 1230 433 1238 q 518 1206 479 1222 q 555 1191 525 1203 q 606 1179 585 1179 q 640 1192 628 1179 q 653 1229 653 1204 l 753 1229 q 727 1122 753 1158 q 650 1085 701 1085 m 329 1442 l 457 1442 l 457 1328 l 329 1328 l 329 1442 m 604 1442 l 732 1442 l 732 1328 l 604 1328 l 604 1442 z "},"Ȭ":{"ha":1061,"x_min":51,"x_max":1010,"o":"m 531 -19 q 283 43 392 -19 q 113 220 175 106 q 51 486 51 335 q 113 752 51 638 q 283 929 175 867 q 531 992 392 992 q 778 929 669 992 q 948 752 886 867 q 1010 486 1010 638 q 948 220 1010 335 q 778 43 886 106 q 531 -19 669 -19 m 531 136 q 759 233 679 136 q 839 486 839 331 q 759 739 839 642 q 531 836 679 836 q 301 739 382 836 q 221 486 221 642 q 301 233 221 331 q 531 136 382 136 m 650 1085 q 605 1092 628 1085 q 543 1117 582 1100 q 506 1131 536 1119 q 456 1143 476 1143 q 421 1131 433 1143 q 408 1094 408 1118 l 308 1094 q 334 1201 308 1164 q 411 1238 360 1238 q 456 1230 433 1238 q 518 1206 479 1222 q 555 1191 525 1203 q 606 1179 585 1179 q 640 1192 628 1179 q 653 1229 653 1204 l 753 1229 q 727 1122 753 1158 q 650 1085 701 1085 m 304 1438 l 757 1438 l 757 1336 l 304 1336 l 304 1438 z "},"Œ":{"ha":1481,"x_min":51,"x_max":1432,"o":"m 1432 153 l 1432 0 l 839 0 l 839 118 q 697 17 778 53 q 524 -19 615 -19 q 280 43 388 -19 q 112 220 172 106 q 51 486 51 335 q 112 752 51 638 q 280 929 172 867 q 524 992 388 992 q 697 956 615 992 q 839 854 778 919 l 839 972 l 1419 972 l 1419 819 l 1001 819 l 1001 583 l 1322 583 l 1322 431 l 1001 431 l 1001 153 l 1432 153 m 526 133 q 750 231 672 133 q 828 486 828 328 q 750 742 828 644 q 526 839 672 839 q 303 742 381 839 q 225 486 225 644 q 303 231 225 328 q 526 133 381 133 z "},"P":{"ha":815,"x_min":108,"x_max":785,"o":"m 108 972 l 446 972 q 785 658 785 972 q 697 418 785 497 q 447 339 610 339 l 272 339 l 272 0 l 108 0 l 108 972 m 428 476 q 573 520 525 476 q 621 656 621 564 q 573 792 621 749 q 425 835 525 835 l 272 835 l 272 476 l 428 476 z "},"Þ":{"ha":792,"x_min":108,"x_max":761,"o":"m 108 972 l 272 972 l 272 765 l 460 765 q 685 697 610 765 q 761 504 761 629 q 685 310 761 379 q 460 242 610 242 l 272 242 l 272 0 l 108 0 l 108 972 m 443 379 q 560 411 524 379 q 597 504 597 443 q 561 598 597 568 q 443 628 525 628 l 272 628 l 272 379 l 443 379 z "},"Q":{"ha":1061,"x_min":51,"x_max":1010,"o":"m 1010 486 q 913 164 1010 293 l 1001 79 l 904 -24 l 813 65 q 531 -19 690 -19 q 283 43 392 -19 q 113 220 175 106 q 51 486 51 335 q 113 752 51 638 q 283 929 175 867 q 531 992 392 992 q 778 929 669 992 q 948 752 886 867 q 1010 486 1010 638 m 531 136 q 694 178 624 136 l 578 290 l 674 393 l 792 281 q 839 486 839 365 q 759 739 839 642 q 531 836 679 836 q 301 739 382 836 q 221 486 221 642 q 301 233 221 331 q 531 136 382 136 z "},"R":{"ha":858,"x_min":108,"x_max":836,"o":"m 108 972 l 450 972 q 696 899 607 972 q 785 678 785 825 q 742 511 785 576 q 618 407 699 446 l 836 0 l 651 0 l 461 368 l 272 368 l 272 0 l 108 0 l 108 972 m 419 506 q 569 549 521 506 q 617 671 617 593 q 424 835 617 835 l 272 835 l 272 506 l 419 506 z "},"Ŕ":{"ha":858,"x_min":108,"x_max":836,"o":"m 108 972 l 450 972 q 696 899 607 972 q 785 678 785 825 q 742 511 785 576 q 618 407 699 446 l 836 0 l 651 0 l 461 368 l 272 368 l 272 0 l 108 0 l 108 972 m 419 506 q 569 549 521 506 q 617 671 617 593 q 424 835 617 835 l 272 835 l 272 506 l 419 506 m 304 1147 l 572 1279 l 572 1138 l 304 1057 l 304 1147 z "},"Ř":{"ha":858,"x_min":108,"x_max":836,"o":"m 108 972 l 450 972 q 696 899 607 972 q 785 678 785 825 q 742 511 785 576 q 618 407 699 446 l 836 0 l 651 0 l 461 368 l 272 368 l 272 0 l 108 0 l 108 972 m 419 506 q 569 549 521 506 q 617 671 617 593 q 424 835 617 835 l 272 835 l 272 506 l 419 506 m 257 1204 l 257 1301 l 438 1204 l 618 1301 l 618 1204 l 438 1078 l 257 1204 z "},"Ŗ":{"ha":858,"x_min":108,"x_max":836,"o":"m 108 972 l 450 972 q 696 899 607 972 q 785 678 785 825 q 742 511 785 576 q 618 407 699 446 l 836 0 l 651 0 l 461 368 l 272 368 l 272 0 l 108 0 l 108 972 m 419 506 q 569 549 521 506 q 617 671 617 593 q 424 835 617 835 l 272 835 l 272 506 l 419 506 m 397 -431 l 450 -279 l 392 -279 l 392 -126 l 554 -126 l 554 -264 l 474 -431 l 397 -431 z "},"Ȑ":{"ha":858,"x_min":108,"x_max":836,"o":"m 108 972 l 450 972 q 696 899 607 972 q 785 678 785 825 q 742 511 785 576 q 618 407 699 446 l 836 0 l 651 0 l 461 368 l 272 368 l 272 0 l 108 0 l 108 972 m 419 506 q 569 549 521 506 q 617 671 617 593 q 424 835 617 835 l 272 835 l 272 506 l 419 506 m 283 1094 l 147 1308 l 299 1308 l 388 1094 l 283 1094 m 485 1094 l 358 1308 l 508 1308 l 588 1094 l 485 1094 z "},"Ṛ":{"ha":858,"x_min":108,"x_max":836,"o":"m 108 972 l 450 972 q 696 899 607 972 q 785 678 785 825 q 742 511 785 576 q 618 407 699 446 l 836 0 l 651 0 l 461 368 l 272 368 l 272 0 l 108 0 l 108 972 m 419 506 q 569 549 521 506 q 617 671 617 593 q 424 835 617 835 l 272 835 l 272 506 l 419 506 m 400 -112 l 542 -112 l 542 -243 l 400 -243 l 400 -112 z "},"Ȓ":{"ha":858,"x_min":108,"x_max":836,"o":"m 108 972 l 450 972 q 696 899 607 972 q 785 678 785 825 q 742 511 785 576 q 618 407 699 446 l 836 0 l 651 0 l 461 368 l 272 368 l 272 0 l 108 0 l 108 972 m 419 506 q 569 549 521 506 q 617 671 617 593 q 424 835 617 835 l 272 835 l 272 506 l 419 506 m 438 1261 q 591 1210 535 1261 q 647 1083 647 1158 l 532 1083 q 506 1147 532 1124 q 438 1169 481 1169 q 369 1147 394 1169 q 343 1083 343 1124 l 228 1083 q 284 1210 228 1158 q 438 1261 340 1261 z "},"Ṟ":{"ha":858,"x_min":108,"x_max":836,"o":"m 108 972 l 450 972 q 696 899 607 972 q 785 678 785 825 q 742 511 785 576 q 618 407 699 446 l 836 0 l 651 0 l 461 368 l 272 368 l 272 0 l 108 0 l 108 972 m 419 506 q 569 549 521 506 q 617 671 617 593 q 424 835 617 835 l 272 835 l 272 506 l 419 506 m 244 -126 l 697 -126 l 697 -233 l 244 -233 l 244 -126 z "},"S":{"ha":807,"x_min":68,"x_max":767,"o":"m 389 -19 q 214 1 306 -19 q 68 49 122 22 l 88 219 q 414 133 268 133 q 542 164 496 133 q 588 256 588 194 q 563 332 588 303 q 492 383 539 361 q 351 435 444 404 q 201 498 261 464 q 106 585 142 532 q 71 719 71 639 q 162 917 71 842 q 422 992 253 992 q 586 974 506 992 q 729 928 667 956 l 713 761 q 558 821 629 801 q 413 840 486 840 q 283 812 329 840 q 238 725 238 783 q 260 656 238 683 q 324 611 283 629 q 443 568 365 593 q 688 448 610 517 q 767 260 767 379 q 681 61 767 142 q 389 -19 594 -19 z "},"Ś":{"ha":807,"x_min":68,"x_max":767,"o":"m 389 -19 q 214 1 306 -19 q 68 49 122 22 l 88 219 q 414 133 268 133 q 542 164 496 133 q 588 256 588 194 q 563 332 588 303 q 492 383 539 361 q 351 435 444 404 q 201 498 261 464 q 106 585 142 532 q 71 719 71 639 q 162 917 71 842 q 422 992 253 992 q 586 974 506 992 q 729 928 667 956 l 713 761 q 558 821 629 801 q 413 840 486 840 q 283 812 329 840 q 238 725 238 783 q 260 656 238 683 q 324 611 283 629 q 443 568 365 593 q 688 448 610 517 q 767 260 767 379 q 681 61 767 142 q 389 -19 594 -19 m 301 1147 l 569 1279 l 569 1138 l 301 1057 l 301 1147 z "},"Ṥ":{"ha":807,"x_min":68,"x_max":767,"o":"m 389 -19 q 214 1 306 -19 q 68 49 122 22 l 88 219 q 414 133 268 133 q 542 164 496 133 q 588 256 588 194 q 563 332 588 303 q 492 383 539 361 q 351 435 444 404 q 201 498 261 464 q 106 585 142 532 q 71 719 71 639 q 162 917 71 842 q 422 992 253 992 q 586 974 506 992 q 729 928 667 956 l 713 761 q 558 821 629 801 q 413 840 486 840 q 283 812 329 840 q 238 725 238 783 q 260 656 238 683 q 324 611 283 629 q 443 568 365 593 q 688 448 610 517 q 767 260 767 379 q 681 61 767 142 q 389 -19 594 -19 m 301 1147 l 569 1279 l 569 1138 l 301 1057 l 301 1147 m 364 1469 l 506 1469 l 506 1339 l 364 1339 l 364 1469 z "},"Š":{"ha":807,"x_min":68,"x_max":767,"o":"m 389 -19 q 214 1 306 -19 q 68 49 122 22 l 88 219 q 414 133 268 133 q 542 164 496 133 q 588 256 588 194 q 563 332 588 303 q 492 383 539 361 q 351 435 444 404 q 201 498 261 464 q 106 585 142 532 q 71 719 71 639 q 162 917 71 842 q 422 992 253 992 q 586 974 506 992 q 729 928 667 956 l 713 761 q 558 821 629 801 q 413 840 486 840 q 283 812 329 840 q 238 725 238 783 q 260 656 238 683 q 324 611 283 629 q 443 568 365 593 q 688 448 610 517 q 767 260 767 379 q 681 61 767 142 q 389 -19 594 -19 m 254 1204 l 254 1301 l 435 1204 l 615 1301 l 615 1204 l 435 1078 l 254 1204 z "},"Ṧ":{"ha":807,"x_min":68,"x_max":767,"o":"m 389 -19 q 214 1 306 -19 q 68 49 122 22 l 88 219 q 414 133 268 133 q 542 164 496 133 q 588 256 588 194 q 563 332 588 303 q 492 383 539 361 q 351 435 444 404 q 201 498 261 464 q 106 585 142 532 q 71 719 71 639 q 162 917 71 842 q 422 992 253 992 q 586 974 506 992 q 729 928 667 956 l 713 761 q 558 821 629 801 q 413 840 486 840 q 283 812 329 840 q 238 725 238 783 q 260 656 238 683 q 324 611 283 629 q 443 568 365 593 q 688 448 610 517 q 767 260 767 379 q 681 61 767 142 q 389 -19 594 -19 m 254 1204 l 254 1301 l 435 1204 l 615 1301 l 615 1204 l 435 1078 l 254 1204 m 364 1488 l 506 1488 l 506 1357 l 364 1357 l 364 1488 z "},"Ş":{"ha":807,"x_min":68,"x_max":767,"o":"m 767 260 q 692 72 767 150 q 442 -18 618 -7 l 425 -75 l 431 -75 q 524 -106 490 -75 q 558 -193 558 -137 q 515 -291 558 -257 q 404 -325 472 -325 q 293 -299 340 -325 l 317 -222 q 406 -246 367 -246 q 454 -233 436 -246 q 472 -197 472 -221 q 454 -159 472 -172 q 401 -146 436 -146 q 336 -157 368 -146 l 369 -19 q 202 3 288 -17 q 68 49 117 24 l 88 219 q 414 133 268 133 q 542 164 496 133 q 588 256 588 194 q 563 332 588 303 q 492 383 539 361 q 351 435 444 404 q 201 498 261 464 q 106 585 142 532 q 71 719 71 639 q 162 917 71 842 q 422 992 253 992 q 586 974 506 992 q 729 928 667 956 l 713 761 q 558 821 629 801 q 413 840 486 840 q 283 812 329 840 q 238 725 238 783 q 260 656 238 683 q 324 611 283 629 q 443 568 365 593 q 688 448 610 517 q 767 260 767 379 z "},"Ŝ":{"ha":807,"x_min":68,"x_max":767,"o":"m 389 -19 q 214 1 306 -19 q 68 49 122 22 l 88 219 q 414 133 268 133 q 542 164 496 133 q 588 256 588 194 q 563 332 588 303 q 492 383 539 361 q 351 435 444 404 q 201 498 261 464 q 106 585 142 532 q 71 719 71 639 q 162 917 71 842 q 422 992 253 992 q 586 974 506 992 q 729 928 667 956 l 713 761 q 558 821 629 801 q 413 840 486 840 q 283 812 329 840 q 238 725 238 783 q 260 656 238 683 q 324 611 283 629 q 443 568 365 593 q 688 448 610 517 q 767 260 767 379 q 681 61 767 142 q 389 -19 594 -19 m 615 1136 l 615 1039 l 435 1136 l 254 1039 l 254 1136 l 435 1263 l 615 1136 z "},"Ș":{"ha":807,"x_min":68,"x_max":767,"o":"m 389 -19 q 214 1 306 -19 q 68 49 122 22 l 88 219 q 414 133 268 133 q 542 164 496 133 q 588 256 588 194 q 563 332 588 303 q 492 383 539 361 q 351 435 444 404 q 201 498 261 464 q 106 585 142 532 q 71 719 71 639 q 162 917 71 842 q 422 992 253 992 q 586 974 506 992 q 729 928 667 956 l 713 761 q 558 821 629 801 q 413 840 486 840 q 283 812 329 840 q 238 725 238 783 q 260 656 238 683 q 324 611 283 629 q 443 568 365 593 q 688 448 610 517 q 767 260 767 379 q 681 61 767 142 q 389 -19 594 -19 m 333 -431 l 386 -279 l 328 -279 l 328 -126 l 490 -126 l 490 -264 l 410 -431 l 333 -431 z "},"Ṡ":{"ha":807,"x_min":68,"x_max":767,"o":"m 389 -19 q 214 1 306 -19 q 68 49 122 22 l 88 219 q 414 133 268 133 q 542 164 496 133 q 588 256 588 194 q 563 332 588 303 q 492 383 539 361 q 351 435 444 404 q 201 498 261 464 q 106 585 142 532 q 71 719 71 639 q 162 917 71 842 q 422 992 253 992 q 586 974 506 992 q 729 928 667 956 l 713 761 q 558 821 629 801 q 413 840 486 840 q 283 812 329 840 q 238 725 238 783 q 260 656 238 683 q 324 611 283 629 q 443 568 365 593 q 688 448 610 517 q 767 260 767 379 q 681 61 767 142 q 389 -19 594 -19 m 364 1231 l 506 1231 l 506 1100 l 364 1100 l 364 1231 z "},"Ṣ":{"ha":807,"x_min":68,"x_max":767,"o":"m 389 -19 q 214 1 306 -19 q 68 49 122 22 l 88 219 q 414 133 268 133 q 542 164 496 133 q 588 256 588 194 q 563 332 588 303 q 492 383 539 361 q 351 435 444 404 q 201 498 261 464 q 106 585 142 532 q 71 719 71 639 q 162 917 71 842 q 422 992 253 992 q 586 974 506 992 q 729 928 667 956 l 713 761 q 558 821 629 801 q 413 840 486 840 q 283 812 329 840 q 238 725 238 783 q 260 656 238 683 q 324 611 283 629 q 443 568 365 593 q 688 448 610 517 q 767 260 767 379 q 681 61 767 142 q 389 -19 594 -19 m 336 -112 l 478 -112 l 478 -243 l 336 -243 l 336 -112 z "},"Ṩ":{"ha":807,"x_min":68,"x_max":767,"o":"m 389 -19 q 214 1 306 -19 q 68 49 122 22 l 88 219 q 414 133 268 133 q 542 164 496 133 q 588 256 588 194 q 563 332 588 303 q 492 383 539 361 q 351 435 444 404 q 201 498 261 464 q 106 585 142 532 q 71 719 71 639 q 162 917 71 842 q 422 992 253 992 q 586 974 506 992 q 729 928 667 956 l 713 761 q 558 821 629 801 q 413 840 486 840 q 283 812 329 840 q 238 725 238 783 q 260 656 238 683 q 324 611 283 629 q 443 568 365 593 q 688 448 610 517 q 767 260 767 379 q 681 61 767 142 q 389 -19 594 -19 m 364 1231 l 506 1231 l 506 1100 l 364 1100 l 364 1231 m 336 -112 l 478 -112 l 478 -243 l 336 -243 l 336 -112 z "},"ẞ":{"ha":903,"x_min":108,"x_max":863,"o":"m 601 569 q 792 478 722 550 q 863 281 863 407 q 819 115 863 183 q 703 14 776 47 q 540 -19 631 -19 q 383 0 461 -19 l 383 147 q 519 133 447 133 q 642 174 597 133 q 688 288 688 215 q 638 408 688 367 q 490 450 588 450 l 436 450 l 436 582 l 656 824 q 492 851 578 851 q 330 797 390 851 q 269 650 269 743 l 269 0 l 108 0 l 108 647 q 212 904 108 817 q 492 992 315 992 q 658 969 581 992 q 792 910 735 947 l 792 778 l 601 569 z "},"Ə":{"ha":985,"x_min":42,"x_max":933,"o":"m 443 992 q 705 926 594 992 q 874 742 815 860 q 933 472 933 624 q 878 222 933 335 q 717 45 822 110 q 469 -19 613 -19 q 247 32 343 -19 q 96 178 150 83 q 42 403 42 274 q 51 510 42 456 l 756 510 q 663 752 747 665 q 428 839 578 839 q 110 764 274 839 l 93 910 q 258 969 168 947 q 443 992 347 992 m 474 133 q 653 194 582 133 q 747 367 725 254 l 218 367 q 287 197 222 260 q 474 133 351 133 z "},"T":{"ha":758,"x_min":21,"x_max":738,"o":"m 299 819 l 21 819 l 21 972 l 738 972 l 738 819 l 460 819 l 460 0 l 299 0 l 299 819 z "},"Ŧ":{"ha":758,"x_min":21,"x_max":738,"o":"m 460 819 l 460 540 l 650 540 l 650 436 l 460 436 l 460 0 l 299 0 l 299 436 l 110 436 l 110 540 l 299 540 l 299 819 l 21 819 l 21 972 l 738 972 l 738 819 l 460 819 z "},"Ť":{"ha":758,"x_min":21,"x_max":738,"o":"m 299 819 l 21 819 l 21 972 l 738 972 l 738 819 l 460 819 l 460 0 l 299 0 l 299 819 m 199 1214 l 199 1314 l 379 1200 l 560 1314 l 560 1214 l 379 1060 l 199 1214 z "},"Ţ":{"ha":758,"x_min":21,"x_max":738,"o":"m 299 819 l 21 819 l 21 972 l 738 972 l 738 819 l 460 819 l 460 0 l 299 0 l 299 819 m 403 -75 q 497 -106 463 -75 q 531 -193 531 -137 q 488 -291 531 -257 q 376 -325 444 -325 q 265 -299 313 -325 l 289 -222 q 378 -246 339 -246 q 426 -233 408 -246 q 444 -197 444 -221 q 426 -159 444 -172 q 374 -146 408 -146 q 308 -157 340 -146 l 346 0 l 419 0 l 397 -75 l 403 -75 z "},"Ț":{"ha":758,"x_min":21,"x_max":738,"o":"m 299 819 l 21 819 l 21 972 l 738 972 l 738 819 l 460 819 l 460 0 l 299 0 l 299 819 m 306 -431 l 358 -279 l 300 -279 l 300 -126 l 463 -126 l 463 -264 l 382 -431 l 306 -431 z "},"Ṭ":{"ha":758,"x_min":21,"x_max":738,"o":"m 299 819 l 21 819 l 21 972 l 738 972 l 738 819 l 460 819 l 460 0 l 299 0 l 299 819 m 308 -112 l 450 -112 l 450 -243 l 308 -243 l 308 -112 z "},"Ṯ":{"ha":758,"x_min":21,"x_max":738,"o":"m 299 819 l 21 819 l 21 972 l 738 972 l 738 819 l 460 819 l 460 0 l 299 0 l 299 819 m 153 -126 l 606 -126 l 606 -233 l 153 -233 l 153 -126 z "},"U":{"ha":1000,"x_min":97,"x_max":903,"o":"m 500 -19 q 199 96 300 -19 q 97 415 97 211 l 97 972 l 258 972 l 258 457 q 309 217 258 301 q 500 133 360 133 q 691 217 640 133 q 742 457 742 301 l 742 972 l 903 972 l 903 415 q 801 96 903 211 q 500 -19 700 -19 z "},"Ú":{"ha":1000,"x_min":97,"x_max":903,"o":"m 500 -19 q 199 96 300 -19 q 97 415 97 211 l 97 972 l 258 972 l 258 457 q 309 217 258 301 q 500 133 360 133 q 691 217 640 133 q 742 457 742 301 l 742 972 l 903 972 l 903 415 q 801 96 903 211 q 500 -19 700 -19 m 367 1147 l 635 1279 l 635 1138 l 367 1057 l 367 1147 z "},"Ŭ":{"ha":1000,"x_min":97,"x_max":903,"o":"m 500 -19 q 199 96 300 -19 q 97 415 97 211 l 97 972 l 258 972 l 258 457 q 309 217 258 301 q 500 133 360 133 q 691 217 640 133 q 742 457 742 301 l 742 972 l 903 972 l 903 415 q 801 96 903 211 q 500 -19 700 -19 m 500 1063 q 347 1114 403 1063 q 290 1240 290 1165 l 406 1240 q 431 1176 406 1199 q 500 1154 457 1154 q 569 1176 543 1154 q 594 1240 594 1199 l 710 1240 q 653 1114 710 1165 q 500 1063 597 1063 z "},"Û":{"ha":1000,"x_min":97,"x_max":903,"o":"m 500 -19 q 199 96 300 -19 q 97 415 97 211 l 97 972 l 258 972 l 258 457 q 309 217 258 301 q 500 133 360 133 q 691 217 640 133 q 742 457 742 301 l 742 972 l 903 972 l 903 415 q 801 96 903 211 q 500 -19 700 -19 m 681 1136 l 681 1039 l 500 1136 l 319 1039 l 319 1136 l 500 1263 l 681 1136 z "},"Ȕ":{"ha":1000,"x_min":97,"x_max":903,"o":"m 500 -19 q 199 96 300 -19 q 97 415 97 211 l 97 972 l 258 972 l 258 457 q 309 217 258 301 q 500 133 360 133 q 691 217 640 133 q 742 457 742 301 l 742 972 l 903 972 l 903 415 q 801 96 903 211 q 500 -19 700 -19 m 353 1094 l 206 1336 l 357 1336 l 457 1094 l 353 1094 m 554 1094 l 417 1336 l 567 1336 l 657 1094 l 554 1094 z "},"Ü":{"ha":1000,"x_min":97,"x_max":903,"o":"m 500 -19 q 199 96 300 -19 q 97 415 97 211 l 97 972 l 258 972 l 258 457 q 309 217 258 301 q 500 133 360 133 q 691 217 640 133 q 742 457 742 301 l 742 972 l 903 972 l 903 415 q 801 96 903 211 q 500 -19 700 -19 m 299 1207 l 426 1207 l 426 1093 l 299 1093 l 299 1207 m 574 1207 l 701 1207 l 701 1093 l 574 1093 l 574 1207 z "},"Ụ":{"ha":1000,"x_min":97,"x_max":903,"o":"m 500 -19 q 199 96 300 -19 q 97 415 97 211 l 97 972 l 258 972 l 258 457 q 309 217 258 301 q 500 133 360 133 q 691 217 640 133 q 742 457 742 301 l 742 972 l 903 972 l 903 415 q 801 96 903 211 q 500 -19 700 -19 m 429 -112 l 571 -112 l 571 -243 l 429 -243 l 429 -112 z "},"Ù":{"ha":1000,"x_min":97,"x_max":903,"o":"m 500 -19 q 199 96 300 -19 q 97 415 97 211 l 97 972 l 258 972 l 258 457 q 309 217 258 301 q 500 133 360 133 q 691 217 640 133 q 742 457 742 301 l 742 972 l 903 972 l 903 415 q 801 96 903 211 q 500 -19 700 -19 m 365 1138 l 365 1279 l 633 1147 l 633 1057 l 365 1138 z "},"Ủ":{"ha":1000,"x_min":97,"x_max":903,"o":"m 500 -19 q 199 96 300 -19 q 97 415 97 211 l 97 972 l 258 972 l 258 457 q 309 217 258 301 q 500 133 360 133 q 691 217 640 133 q 742 457 742 301 l 742 972 l 903 972 l 903 415 q 801 96 903 211 q 500 -19 700 -19 m 481 1115 q 519 1134 507 1122 q 531 1165 531 1146 q 478 1206 531 1206 q 392 1179 442 1206 l 368 1260 q 479 1286 421 1286 q 578 1256 539 1286 q 617 1174 617 1226 q 588 1098 617 1126 q 494 1056 558 1069 l 481 1115 z "},"Ư":{"ha":1000,"x_min":97,"x_max":1064,"o":"m 1064 1075 q 1019 953 1064 1006 q 903 879 974 900 l 903 415 q 801 96 903 211 q 500 -19 700 -19 q 199 96 300 -19 q 97 415 97 211 l 97 972 l 258 972 l 258 457 q 309 217 258 301 q 500 133 360 133 q 691 217 640 133 q 742 457 742 301 l 742 972 l 815 972 q 926 1075 926 972 l 1064 1075 z "},"Ứ":{"ha":1000,"x_min":97,"x_max":1064,"o":"m 1064 1075 q 1019 953 1064 1006 q 903 879 974 900 l 903 415 q 801 96 903 211 q 500 -19 700 -19 q 199 96 300 -19 q 97 415 97 211 l 97 972 l 258 972 l 258 457 q 309 217 258 301 q 500 133 360 133 q 691 217 640 133 q 742 457 742 301 l 742 972 l 815 972 q 926 1075 926 972 l 1064 1075 m 367 1179 l 635 1333 l 635 1182 l 367 1078 l 367 1179 z "},"Ự":{"ha":1000,"x_min":97,"x_max":1064,"o":"m 1064 1075 q 1019 953 1064 1006 q 903 879 974 900 l 903 415 q 801 96 903 211 q 500 -19 700 -19 q 199 96 300 -19 q 97 415 97 211 l 97 972 l 258 972 l 258 457 q 309 217 258 301 q 500 133 360 133 q 691 217 640 133 q 742 457 742 301 l 742 972 l 815 972 q 926 1075 926 972 l 1064 1075 m 429 -112 l 571 -112 l 571 -243 l 429 -243 l 429 -112 z "},"Ừ":{"ha":1000,"x_min":97,"x_max":1064,"o":"m 1064 1075 q 1019 953 1064 1006 q 903 879 974 900 l 903 415 q 801 96 903 211 q 500 -19 700 -19 q 199 96 300 -19 q 97 415 97 211 l 97 972 l 258 972 l 258 457 q 309 217 258 301 q 500 133 360 133 q 691 217 640 133 q 742 457 742 301 l 742 972 l 815 972 q 926 1075 926 972 l 1064 1075 m 365 1182 l 365 1333 l 633 1179 l 633 1078 l 365 1182 z "},"Ử":{"ha":1000,"x_min":97,"x_max":1064,"o":"m 1064 1075 q 1019 953 1064 1006 q 903 879 974 900 l 903 415 q 801 96 903 211 q 500 -19 700 -19 q 199 96 300 -19 q 97 415 97 211 l 97 972 l 258 972 l 258 457 q 309 217 258 301 q 500 133 360 133 q 691 217 640 133 q 742 457 742 301 l 742 972 l 815 972 q 926 1075 926 972 l 1064 1075 m 481 1115 q 519 1134 507 1122 q 531 1165 531 1146 q 478 1206 531 1206 q 392 1179 442 1206 l 368 1260 q 479 1286 421 1286 q 578 1256 539 1286 q 617 1174 617 1226 q 588 1098 617 1126 q 494 1056 558 1069 l 481 1115 z "},"Ữ":{"ha":1000,"x_min":97,"x_max":1064,"o":"m 1064 1075 q 1019 953 1064 1006 q 903 879 974 900 l 903 415 q 801 96 903 211 q 500 -19 700 -19 q 199 96 300 -19 q 97 415 97 211 l 97 972 l 258 972 l 258 457 q 309 217 258 301 q 500 133 360 133 q 691 217 640 133 q 742 457 742 301 l 742 972 l 815 972 q 926 1075 926 972 l 1064 1075 m 615 1088 q 567 1097 592 1088 q 513 1121 543 1106 q 463 1142 483 1135 q 425 1150 443 1150 q 390 1136 403 1150 q 378 1099 378 1122 l 265 1099 q 299 1219 268 1178 q 385 1261 329 1261 q 433 1252 408 1261 q 488 1228 457 1243 q 537 1206 517 1214 q 575 1199 557 1199 q 610 1213 597 1199 q 622 1250 622 1226 l 735 1250 q 701 1129 732 1171 q 615 1088 671 1088 z "},"Ű":{"ha":1000,"x_min":97,"x_max":903,"o":"m 500 -19 q 199 96 300 -19 q 97 415 97 211 l 97 972 l 258 972 l 258 457 q 309 217 258 301 q 500 133 360 133 q 691 217 640 133 q 742 457 742 301 l 742 972 l 903 972 l 903 415 q 801 96 903 211 q 500 -19 700 -19 m 435 1308 l 586 1308 l 447 1094 l 343 1094 l 435 1308 m 646 1308 l 797 1308 l 647 1094 l 544 1094 l 646 1308 z "},"Ȗ":{"ha":1000,"x_min":97,"x_max":903,"o":"m 500 -19 q 199 96 300 -19 q 97 415 97 211 l 97 972 l 258 972 l 258 457 q 309 217 258 301 q 500 133 360 133 q 691 217 640 133 q 742 457 742 301 l 742 972 l 903 972 l 903 415 q 801 96 903 211 q 500 -19 700 -19 m 500 1261 q 653 1210 597 1261 q 710 1083 710 1158 l 594 1083 q 569 1147 594 1124 q 500 1169 543 1169 q 431 1147 457 1169 q 406 1083 406 1124 l 290 1083 q 347 1210 290 1158 q 500 1261 403 1261 z "},"Ū":{"ha":1000,"x_min":97,"x_max":903,"o":"m 500 -19 q 199 96 300 -19 q 97 415 97 211 l 97 972 l 258 972 l 258 457 q 309 217 258 301 q 500 133 360 133 q 691 217 640 133 q 742 457 742 301 l 742 972 l 903 972 l 903 415 q 801 96 903 211 q 500 -19 700 -19 m 274 1203 l 726 1203 l 726 1101 l 274 1101 l 274 1203 z "},"Ṻ":{"ha":1000,"x_min":97,"x_max":903,"o":"m 500 -19 q 199 96 300 -19 q 97 415 97 211 l 97 972 l 258 972 l 258 457 q 309 217 258 301 q 500 133 360 133 q 691 217 640 133 q 742 457 742 301 l 742 972 l 903 972 l 903 415 q 801 96 903 211 q 500 -19 700 -19 m 274 1203 l 726 1203 l 726 1101 l 274 1101 l 274 1203 m 299 1446 l 426 1446 l 426 1332 l 299 1332 l 299 1446 m 574 1446 l 701 1446 l 701 1332 l 574 1332 l 574 1446 z "},"Ų":{"ha":1000,"x_min":97,"x_max":903,"o":"m 903 972 l 903 415 q 836 142 903 250 q 638 -3 769 33 q 559 -75 586 -40 q 532 -146 532 -110 q 550 -195 532 -178 q 599 -212 568 -212 q 683 -190 642 -212 l 707 -264 q 588 -292 654 -292 q 486 -260 526 -292 q 446 -171 446 -228 q 533 -18 446 -90 q 500 -19 522 -19 q 199 96 300 -19 q 97 415 97 211 l 97 972 l 258 972 l 258 457 q 309 217 258 301 q 500 133 360 133 q 691 217 640 133 q 742 457 742 301 l 742 972 l 903 972 z "},"Ů":{"ha":1000,"x_min":97,"x_max":903,"o":"m 500 -19 q 199 96 300 -19 q 97 415 97 211 l 97 972 l 258 972 l 258 457 q 309 217 258 301 q 500 133 360 133 q 691 217 640 133 q 742 457 742 301 l 742 972 l 903 972 l 903 415 q 801 96 903 211 q 500 -19 700 -19 m 500 1049 q 394 1088 433 1049 q 354 1183 354 1126 q 394 1280 354 1240 q 500 1319 433 1319 q 606 1280 567 1319 q 646 1183 646 1240 q 606 1088 646 1126 q 500 1049 567 1049 m 500 1117 q 549 1135 529 1117 q 568 1183 568 1154 q 549 1232 568 1213 q 500 1251 529 1251 q 451 1232 471 1251 q 432 1183 432 1213 q 451 1135 432 1154 q 500 1117 471 1117 z "},"Ũ":{"ha":1000,"x_min":97,"x_max":903,"o":"m 500 -19 q 199 96 300 -19 q 97 415 97 211 l 97 972 l 258 972 l 258 457 q 309 217 258 301 q 500 133 360 133 q 691 217 640 133 q 742 457 742 301 l 742 972 l 903 972 l 903 415 q 801 96 903 211 q 500 -19 700 -19 m 619 1085 q 574 1092 597 1085 q 513 1117 551 1100 q 476 1131 506 1119 q 425 1143 446 1143 q 390 1131 403 1143 q 378 1094 378 1118 l 278 1094 q 303 1201 278 1164 q 381 1238 329 1238 q 426 1230 403 1238 q 488 1206 449 1222 q 524 1191 494 1203 q 575 1179 554 1179 q 610 1192 597 1179 q 622 1229 622 1204 l 722 1229 q 697 1122 722 1158 q 619 1085 671 1085 z "},"Ṹ":{"ha":1000,"x_min":97,"x_max":903,"o":"m 500 -19 q 199 96 300 -19 q 97 415 97 211 l 97 972 l 258 972 l 258 457 q 309 217 258 301 q 500 133 360 133 q 691 217 640 133 q 742 457 742 301 l 742 972 l 903 972 l 903 415 q 801 96 903 211 q 500 -19 700 -19 m 619 1085 q 574 1092 597 1085 q 513 1117 551 1100 q 476 1131 506 1119 q 425 1143 446 1143 q 390 1131 403 1143 q 378 1094 378 1118 l 278 1094 q 303 1201 278 1164 q 381 1238 329 1238 q 426 1230 403 1238 q 488 1206 449 1222 q 524 1191 494 1203 q 575 1179 554 1179 q 610 1192 597 1179 q 622 1229 622 1204 l 722 1229 q 697 1122 722 1158 q 619 1085 671 1085 m 367 1382 l 635 1514 l 635 1372 l 367 1292 l 367 1382 z "},"V":{"ha":856,"x_min":1,"x_max":853,"o":"m 853 972 l 507 0 l 349 0 l 1 972 l 167 972 l 428 231 l 689 972 l 853 972 z "},"W":{"ha":1329,"x_min":11,"x_max":1322,"o":"m 11 972 l 179 972 l 378 242 l 601 965 l 731 965 l 960 253 l 1154 972 l 1322 972 l 1040 0 l 889 0 l 665 697 l 443 0 l 285 0 l 11 972 z "},"Ẃ":{"ha":1329,"x_min":11,"x_max":1322,"o":"m 11 972 l 179 972 l 378 242 l 601 965 l 731 965 l 960 253 l 1154 972 l 1322 972 l 1040 0 l 889 0 l 665 697 l 443 0 l 285 0 l 11 972 m 533 1147 l 801 1279 l 801 1138 l 533 1057 l 533 1147 z "},"Ŵ":{"ha":1329,"x_min":11,"x_max":1322,"o":"m 11 972 l 179 972 l 378 242 l 601 965 l 731 965 l 960 253 l 1154 972 l 1322 972 l 1040 0 l 889 0 l 665 697 l 443 0 l 285 0 l 11 972 m 847 1136 l 847 1039 l 667 1136 l 486 1039 l 486 1136 l 667 1263 l 847 1136 z "},"Ẅ":{"ha":1329,"x_min":11,"x_max":1322,"o":"m 11 972 l 179 972 l 378 242 l 601 965 l 731 965 l 960 253 l 1154 972 l 1322 972 l 1040 0 l 889 0 l 665 697 l 443 0 l 285 0 l 11 972 m 465 1207 l 593 1207 l 593 1093 l 465 1093 l 465 1207 m 740 1207 l 868 1207 l 868 1093 l 740 1093 l 740 1207 z "},"Ẁ":{"ha":1329,"x_min":11,"x_max":1322,"o":"m 11 972 l 179 972 l 378 242 l 601 965 l 731 965 l 960 253 l 1154 972 l 1322 972 l 1040 0 l 889 0 l 665 697 l 443 0 l 285 0 l 11 972 m 532 1138 l 532 1279 l 800 1147 l 800 1057 l 532 1138 z "},"X":{"ha":853,"x_min":0,"x_max":853,"o":"m 338 496 l 13 972 l 194 972 l 426 628 l 658 972 l 840 972 l 517 496 l 853 0 l 671 0 l 426 363 l 182 0 l 0 0 l 338 496 z "},"Y":{"ha":821,"x_min":-12,"x_max":832,"o":"m 832 972 l 490 403 l 490 0 l 329 0 l 329 403 l -12 972 l 165 972 l 410 551 l 654 972 l 832 972 z "},"Ý":{"ha":821,"x_min":-12,"x_max":832,"o":"m 832 972 l 490 403 l 490 0 l 329 0 l 329 403 l -12 972 l 165 972 l 410 551 l 654 972 l 832 972 m 276 1147 l 544 1279 l 544 1138 l 276 1057 l 276 1147 z "},"Ŷ":{"ha":821,"x_min":-12,"x_max":832,"o":"m 832 972 l 490 403 l 490 0 l 329 0 l 329 403 l -12 972 l 165 972 l 410 551 l 654 972 l 832 972 m 590 1136 l 590 1039 l 410 1136 l 229 1039 l 229 1136 l 410 1263 l 590 1136 z "},"Ÿ":{"ha":821,"x_min":-12,"x_max":832,"o":"m 832 972 l 490 403 l 490 0 l 329 0 l 329 403 l -12 972 l 165 972 l 410 551 l 654 972 l 832 972 m 208 1207 l 336 1207 l 336 1093 l 208 1093 l 208 1207 m 483 1207 l 611 1207 l 611 1093 l 483 1093 l 483 1207 z "},"Ẏ":{"ha":821,"x_min":-12,"x_max":832,"o":"m 832 972 l 490 403 l 490 0 l 329 0 l 329 403 l -12 972 l 165 972 l 410 551 l 654 972 l 832 972 m 339 1231 l 481 1231 l 481 1100 l 339 1100 l 339 1231 z "},"Ỵ":{"ha":821,"x_min":-12,"x_max":832,"o":"m 832 972 l 490 403 l 490 0 l 329 0 l 329 403 l -12 972 l 165 972 l 410 551 l 654 972 l 832 972 m 339 -112 l 481 -112 l 481 -243 l 339 -243 l 339 -112 z "},"Ỳ":{"ha":821,"x_min":-12,"x_max":832,"o":"m 832 972 l 490 403 l 490 0 l 329 0 l 329 403 l -12 972 l 165 972 l 410 551 l 654 972 l 832 972 m 275 1138 l 275 1279 l 543 1147 l 543 1057 l 275 1138 z "},"Ỷ":{"ha":821,"x_min":-12,"x_max":832,"o":"m 832 972 l 490 403 l 490 0 l 329 0 l 329 403 l -12 972 l 165 972 l 410 551 l 654 972 l 832 972 m 390 1115 q 428 1134 417 1122 q 440 1165 440 1146 q 388 1206 440 1206 q 301 1179 351 1206 l 278 1260 q 389 1286 331 1286 q 488 1256 449 1286 q 526 1174 526 1226 q 497 1098 526 1126 q 404 1056 468 1069 l 390 1115 z "},"Ȳ":{"ha":821,"x_min":-12,"x_max":832,"o":"m 832 972 l 490 403 l 490 0 l 329 0 l 329 403 l -12 972 l 165 972 l 410 551 l 654 972 l 832 972 m 183 1203 l 636 1203 l 636 1101 l 183 1101 l 183 1203 z "},"Ỹ":{"ha":821,"x_min":-12,"x_max":832,"o":"m 832 972 l 490 403 l 490 0 l 329 0 l 329 403 l -12 972 l 165 972 l 410 551 l 654 972 l 832 972 m 529 1085 q 484 1092 507 1085 q 422 1117 461 1100 q 385 1131 415 1119 q 335 1143 356 1143 q 300 1131 313 1143 q 288 1094 288 1118 l 188 1094 q 213 1201 188 1164 q 290 1238 239 1238 q 335 1230 313 1238 q 397 1206 358 1222 q 434 1191 404 1203 q 485 1179 464 1179 q 519 1192 507 1179 q 532 1229 532 1204 l 632 1229 q 606 1122 632 1158 q 529 1085 581 1085 z "},"Z":{"ha":761,"x_min":11,"x_max":751,"o":"m 264 144 l 744 144 l 744 0 l 11 0 l 499 828 l 74 828 l 74 972 l 751 972 l 264 144 z "},"Ź":{"ha":761,"x_min":11,"x_max":751,"o":"m 264 144 l 744 144 l 744 0 l 11 0 l 499 828 l 74 828 l 74 972 l 751 972 l 264 144 m 279 1147 l 547 1279 l 547 1138 l 279 1057 l 279 1147 z "},"Ž":{"ha":761,"x_min":11,"x_max":751,"o":"m 264 144 l 744 144 l 744 0 l 11 0 l 499 828 l 74 828 l 74 972 l 751 972 l 264 144 m 232 1204 l 232 1301 l 413 1204 l 593 1301 l 593 1204 l 413 1078 l 232 1204 z "},"Ż":{"ha":761,"x_min":11,"x_max":751,"o":"m 264 144 l 744 144 l 744 0 l 11 0 l 499 828 l 74 828 l 74 972 l 751 972 l 264 144 m 342 1231 l 483 1231 l 483 1100 l 342 1100 l 342 1231 z "},"Ẓ":{"ha":761,"x_min":11,"x_max":751,"o":"m 264 144 l 744 144 l 744 0 l 11 0 l 499 828 l 74 828 l 74 972 l 751 972 l 264 144 m 281 -112 l 422 -112 l 422 -243 l 281 -243 l 281 -112 z "},"a":{"ha":682,"x_min":31,"x_max":669,"o":"m 235 -14 q 88 42 146 -14 q 31 190 31 99 q 94 335 31 281 q 248 412 158 389 q 426 438 338 435 q 394 538 425 510 q 293 567 364 567 q 205 553 249 567 q 107 511 161 540 l 90 638 q 336 701 207 701 q 522 633 461 701 q 583 406 583 564 l 583 235 q 588 156 583 181 q 606 122 593 132 q 650 113 619 113 l 669 113 l 651 -14 l 608 -14 q 505 8 542 -14 q 446 74 468 31 q 354 10 410 33 q 235 -14 299 -14 m 290 107 q 363 124 325 107 q 428 172 401 142 l 428 332 q 256 294 321 328 q 192 197 192 261 q 290 107 192 107 z "},"á":{"ha":682,"x_min":31,"x_max":669,"o":"m 235 -14 q 88 42 146 -14 q 31 190 31 99 q 94 335 31 281 q 248 412 158 389 q 426 438 338 435 q 394 538 425 510 q 293 567 364 567 q 205 553 249 567 q 107 511 161 540 l 90 638 q 336 701 207 701 q 522 633 461 701 q 583 406 583 564 l 583 235 q 588 156 583 181 q 606 122 593 132 q 650 113 619 113 l 669 113 l 651 -14 l 608 -14 q 505 8 542 -14 q 446 74 468 31 q 354 10 410 33 q 235 -14 299 -14 m 290 107 q 363 124 325 107 q 428 172 401 142 l 428 332 q 256 294 321 328 q 192 197 192 261 q 290 107 192 107 m 203 896 l 471 1050 l 471 899 l 203 794 l 203 896 z "},"ă":{"ha":682,"x_min":31,"x_max":669,"o":"m 235 -14 q 88 42 146 -14 q 31 190 31 99 q 94 335 31 281 q 248 412 158 389 q 426 438 338 435 q 394 538 425 510 q 293 567 364 567 q 205 553 249 567 q 107 511 161 540 l 90 638 q 336 701 207 701 q 522 633 461 701 q 583 406 583 564 l 583 235 q 588 156 583 181 q 606 122 593 132 q 650 113 619 113 l 669 113 l 651 -14 l 608 -14 q 505 8 542 -14 q 446 74 468 31 q 354 10 410 33 q 235 -14 299 -14 m 290 107 q 363 124 325 107 q 428 172 401 142 l 428 332 q 256 294 321 328 q 192 197 192 261 q 290 107 192 107 m 336 810 q 183 864 239 810 q 126 997 126 918 l 242 997 q 267 933 242 956 q 336 910 293 910 q 405 933 379 910 q 431 997 431 956 l 546 997 q 490 864 546 918 q 336 810 433 810 z "},"ắ":{"ha":682,"x_min":31,"x_max":669,"o":"m 235 -14 q 88 42 146 -14 q 31 190 31 99 q 94 335 31 281 q 248 412 158 389 q 426 438 338 435 q 394 538 425 510 q 293 567 364 567 q 205 553 249 567 q 107 511 161 540 l 90 638 q 336 701 207 701 q 522 633 461 701 q 583 406 583 564 l 583 235 q 588 156 583 181 q 606 122 593 132 q 650 113 619 113 l 669 113 l 651 -14 l 608 -14 q 505 8 542 -14 q 446 74 468 31 q 354 10 410 33 q 235 -14 299 -14 m 290 107 q 363 124 325 107 q 428 172 401 142 l 428 332 q 256 294 321 328 q 192 197 192 261 q 290 107 192 107 m 336 779 q 183 831 239 779 q 126 957 126 882 l 242 957 q 267 893 242 915 q 336 871 293 871 q 405 893 379 871 q 431 957 431 915 l 546 957 q 490 831 546 882 q 336 779 433 779 m 203 1110 l 471 1242 l 471 1100 l 203 1019 l 203 1110 z "},"ặ":{"ha":682,"x_min":31,"x_max":669,"o":"m 235 -14 q 88 42 146 -14 q 31 190 31 99 q 94 335 31 281 q 248 412 158 389 q 426 438 338 435 q 394 538 425 510 q 293 567 364 567 q 205 553 249 567 q 107 511 161 540 l 90 638 q 336 701 207 701 q 522 633 461 701 q 583 406 583 564 l 583 235 q 588 156 583 181 q 606 122 593 132 q 650 113 619 113 l 669 113 l 651 -14 l 608 -14 q 505 8 542 -14 q 446 74 468 31 q 354 10 410 33 q 235 -14 299 -14 m 290 107 q 363 124 325 107 q 428 172 401 142 l 428 332 q 256 294 321 328 q 192 197 192 261 q 290 107 192 107 m 336 810 q 183 864 239 810 q 126 997 126 918 l 242 997 q 267 933 242 956 q 336 910 293 910 q 405 933 379 910 q 431 997 431 956 l 546 997 q 490 864 546 918 q 336 810 433 810 m 271 -112 l 413 -112 l 413 -243 l 271 -243 l 271 -112 z "},"ằ":{"ha":682,"x_min":31,"x_max":669,"o":"m 235 -14 q 88 42 146 -14 q 31 190 31 99 q 94 335 31 281 q 248 412 158 389 q 426 438 338 435 q 394 538 425 510 q 293 567 364 567 q 205 553 249 567 q 107 511 161 540 l 90 638 q 336 701 207 701 q 522 633 461 701 q 583 406 583 564 l 583 235 q 588 156 583 181 q 606 122 593 132 q 650 113 619 113 l 669 113 l 651 -14 l 608 -14 q 505 8 542 -14 q 446 74 468 31 q 354 10 410 33 q 235 -14 299 -14 m 290 107 q 363 124 325 107 q 428 172 401 142 l 428 332 q 256 294 321 328 q 192 197 192 261 q 290 107 192 107 m 336 778 q 183 829 239 778 q 126 956 126 881 l 242 956 q 267 892 242 914 q 336 869 293 869 q 405 892 379 869 q 431 956 431 914 l 546 956 q 490 829 546 881 q 336 778 433 778 m 201 1099 l 201 1240 l 469 1108 l 469 1018 l 201 1099 z "},"ẳ":{"ha":682,"x_min":31,"x_max":669,"o":"m 235 -14 q 88 42 146 -14 q 31 190 31 99 q 94 335 31 281 q 248 412 158 389 q 426 438 338 435 q 394 538 425 510 q 293 567 364 567 q 205 553 249 567 q 107 511 161 540 l 90 638 q 336 701 207 701 q 522 633 461 701 q 583 406 583 564 l 583 235 q 588 156 583 181 q 606 122 593 132 q 650 113 619 113 l 669 113 l 651 -14 l 608 -14 q 505 8 542 -14 q 446 74 468 31 q 354 10 410 33 q 235 -14 299 -14 m 290 107 q 363 124 325 107 q 428 172 401 142 l 428 332 q 256 294 321 328 q 192 197 192 261 q 290 107 192 107 m 336 779 q 183 831 239 779 q 126 957 126 882 l 242 957 q 267 893 242 915 q 336 871 293 871 q 405 893 379 871 q 431 957 431 915 l 546 957 q 490 831 546 882 q 336 779 433 779 m 331 1038 q 369 1056 357 1044 q 381 1088 381 1068 q 328 1128 381 1128 q 242 1101 292 1128 l 218 1182 q 329 1208 271 1208 q 428 1178 389 1208 q 467 1096 467 1149 q 438 1020 467 1049 q 344 978 408 992 l 331 1038 z "},"ẵ":{"ha":682,"x_min":31,"x_max":669,"o":"m 235 -14 q 88 42 146 -14 q 31 190 31 99 q 94 335 31 281 q 248 412 158 389 q 426 438 338 435 q 394 538 425 510 q 293 567 364 567 q 205 553 249 567 q 107 511 161 540 l 90 638 q 336 701 207 701 q 522 633 461 701 q 583 406 583 564 l 583 235 q 588 156 583 181 q 606 122 593 132 q 650 113 619 113 l 669 113 l 651 -14 l 608 -14 q 505 8 542 -14 q 446 74 468 31 q 354 10 410 33 q 235 -14 299 -14 m 290 107 q 363 124 325 107 q 428 172 401 142 l 428 332 q 256 294 321 328 q 192 197 192 261 q 290 107 192 107 m 336 779 q 183 831 239 779 q 126 957 126 882 l 242 957 q 267 893 242 915 q 336 871 293 871 q 405 893 379 871 q 431 957 431 915 l 546 957 q 490 831 546 882 q 336 779 433 779 m 456 1024 q 410 1031 433 1024 q 349 1056 388 1039 q 312 1070 342 1058 q 261 1082 282 1082 q 226 1069 239 1082 q 214 1033 214 1057 l 114 1033 q 140 1140 114 1103 q 217 1176 165 1176 q 262 1169 239 1176 q 324 1144 285 1161 q 360 1130 331 1142 q 411 1118 390 1118 q 446 1131 433 1118 q 458 1168 458 1143 l 558 1168 q 533 1060 558 1097 q 456 1024 507 1024 z "},"â":{"ha":682,"x_min":31,"x_max":669,"o":"m 235 -14 q 88 42 146 -14 q 31 190 31 99 q 94 335 31 281 q 248 412 158 389 q 426 438 338 435 q 394 538 425 510 q 293 567 364 567 q 205 553 249 567 q 107 511 161 540 l 90 638 q 336 701 207 701 q 522 633 461 701 q 583 406 583 564 l 583 235 q 588 156 583 181 q 606 122 593 132 q 650 113 619 113 l 669 113 l 651 -14 l 608 -14 q 505 8 542 -14 q 446 74 468 31 q 354 10 410 33 q 235 -14 299 -14 m 290 107 q 363 124 325 107 q 428 172 401 142 l 428 332 q 256 294 321 328 q 192 197 192 261 q 290 107 192 107 m 156 875 l 336 1029 l 517 875 l 517 775 l 336 889 l 156 775 l 156 875 z "},"ấ":{"ha":682,"x_min":31,"x_max":683,"o":"m 235 -14 q 88 42 146 -14 q 31 190 31 99 q 94 335 31 281 q 248 412 158 389 q 426 438 338 435 q 394 538 425 510 q 293 567 364 567 q 205 553 249 567 q 107 511 161 540 l 90 638 q 336 701 207 701 q 522 633 461 701 q 583 406 583 564 l 583 235 q 588 156 583 181 q 606 122 593 132 q 650 113 619 113 l 669 113 l 651 -14 l 608 -14 q 505 8 542 -14 q 446 74 468 31 q 354 10 410 33 q 235 -14 299 -14 m 290 107 q 363 124 325 107 q 428 172 401 142 l 428 332 q 256 294 321 328 q 192 197 192 261 q 290 107 192 107 m 533 1143 l 683 1143 l 544 972 l 442 972 l 533 1143 m 517 861 l 517 764 l 336 861 l 156 764 l 156 861 l 336 988 l 517 861 z "},"ậ":{"ha":682,"x_min":31,"x_max":669,"o":"m 235 -14 q 88 42 146 -14 q 31 190 31 99 q 94 335 31 281 q 248 412 158 389 q 426 438 338 435 q 394 538 425 510 q 293 567 364 567 q 205 553 249 567 q 107 511 161 540 l 90 638 q 336 701 207 701 q 522 633 461 701 q 583 406 583 564 l 583 235 q 588 156 583 181 q 606 122 593 132 q 650 113 619 113 l 669 113 l 651 -14 l 608 -14 q 505 8 542 -14 q 446 74 468 31 q 354 10 410 33 q 235 -14 299 -14 m 290 107 q 363 124 325 107 q 428 172 401 142 l 428 332 q 256 294 321 328 q 192 197 192 261 q 290 107 192 107 m 156 875 l 336 1029 l 517 875 l 517 775 l 336 889 l 156 775 l 156 875 m 271 -112 l 413 -112 l 413 -243 l 271 -243 l 271 -112 z "},"ầ":{"ha":682,"x_min":31,"x_max":669,"o":"m 235 -14 q 88 42 146 -14 q 31 190 31 99 q 94 335 31 281 q 248 412 158 389 q 426 438 338 435 q 394 538 425 510 q 293 567 364 567 q 205 553 249 567 q 107 511 161 540 l 90 638 q 336 701 207 701 q 522 633 461 701 q 583 406 583 564 l 583 235 q 588 156 583 181 q 606 122 593 132 q 650 113 619 113 l 669 113 l 651 -14 l 608 -14 q 505 8 542 -14 q 446 74 468 31 q 354 10 410 33 q 235 -14 299 -14 m 290 107 q 363 124 325 107 q 428 172 401 142 l 428 332 q 256 294 321 328 q 192 197 192 261 q 290 107 192 107 m 468 972 l 351 1143 l 494 1143 l 567 972 l 468 972 m 517 861 l 517 764 l 336 861 l 156 764 l 156 861 l 336 988 l 517 861 z "},"ẩ":{"ha":682,"x_min":31,"x_max":669,"o":"m 235 -14 q 88 42 146 -14 q 31 190 31 99 q 94 335 31 281 q 248 412 158 389 q 426 438 338 435 q 394 538 425 510 q 293 567 364 567 q 205 553 249 567 q 107 511 161 540 l 90 638 q 336 701 207 701 q 522 633 461 701 q 583 406 583 564 l 583 235 q 588 156 583 181 q 606 122 593 132 q 650 113 619 113 l 669 113 l 651 -14 l 608 -14 q 505 8 542 -14 q 446 74 468 31 q 354 10 410 33 q 235 -14 299 -14 m 290 107 q 363 124 325 107 q 428 172 401 142 l 428 332 q 256 294 321 328 q 192 197 192 261 q 290 107 192 107 m 517 853 l 517 756 l 336 853 l 156 756 l 156 853 l 336 979 l 517 853 m 456 988 q 494 1006 482 994 q 506 1038 506 1018 q 453 1078 506 1078 q 367 1051 417 1078 l 343 1132 q 454 1158 396 1158 q 553 1128 514 1158 q 592 1046 592 1099 q 563 970 592 999 q 469 928 533 942 l 456 988 z "},"ẫ":{"ha":682,"x_min":31,"x_max":669,"o":"m 235 -14 q 88 42 146 -14 q 31 190 31 99 q 94 335 31 281 q 248 412 158 389 q 426 438 338 435 q 394 538 425 510 q 293 567 364 567 q 205 553 249 567 q 107 511 161 540 l 90 638 q 336 701 207 701 q 522 633 461 701 q 583 406 583 564 l 583 235 q 588 156 583 181 q 606 122 593 132 q 650 113 619 113 l 669 113 l 651 -14 l 608 -14 q 505 8 542 -14 q 446 74 468 31 q 354 10 410 33 q 235 -14 299 -14 m 290 107 q 363 124 325 107 q 428 172 401 142 l 428 332 q 256 294 321 328 q 192 197 192 261 q 290 107 192 107 m 517 853 l 517 756 l 336 853 l 156 756 l 156 853 l 336 979 l 517 853 m 456 1032 q 410 1040 433 1032 q 349 1064 388 1047 q 312 1078 342 1067 q 261 1090 282 1090 q 226 1078 239 1090 q 214 1042 214 1065 l 114 1042 q 140 1148 114 1111 q 217 1185 165 1185 q 262 1177 239 1185 q 324 1153 285 1169 q 360 1138 331 1150 q 411 1126 390 1126 q 446 1139 433 1126 q 458 1176 458 1151 l 558 1176 q 533 1069 558 1106 q 456 1032 507 1032 z "},"ȁ":{"ha":682,"x_min":31,"x_max":669,"o":"m 235 -14 q 88 42 146 -14 q 31 190 31 99 q 94 335 31 281 q 248 412 158 389 q 426 438 338 435 q 394 538 425 510 q 293 567 364 567 q 205 553 249 567 q 107 511 161 540 l 90 638 q 336 701 207 701 q 522 633 461 701 q 583 406 583 564 l 583 235 q 588 156 583 181 q 606 122 593 132 q 650 113 619 113 l 669 113 l 651 -14 l 608 -14 q 505 8 542 -14 q 446 74 468 31 q 354 10 410 33 q 235 -14 299 -14 m 290 107 q 363 124 325 107 q 428 172 401 142 l 428 332 q 256 294 321 328 q 192 197 192 261 q 290 107 192 107 m 189 811 l 42 1053 l 193 1053 l 293 811 l 189 811 m 390 811 l 253 1053 l 403 1053 l 493 811 l 390 811 z "},"ä":{"ha":682,"x_min":31,"x_max":669,"o":"m 235 -14 q 88 42 146 -14 q 31 190 31 99 q 94 335 31 281 q 248 412 158 389 q 426 438 338 435 q 394 538 425 510 q 293 567 364 567 q 205 553 249 567 q 107 511 161 540 l 90 638 q 336 701 207 701 q 522 633 461 701 q 583 406 583 564 l 583 235 q 588 156 583 181 q 606 122 593 132 q 650 113 619 113 l 669 113 l 651 -14 l 608 -14 q 505 8 542 -14 q 446 74 468 31 q 354 10 410 33 q 235 -14 299 -14 m 290 107 q 363 124 325 107 q 428 172 401 142 l 428 332 q 256 294 321 328 q 192 197 192 261 q 290 107 192 107 m 135 940 l 263 940 l 263 821 l 135 821 l 135 940 m 410 940 l 538 940 l 538 821 l 410 821 l 410 940 z "},"ạ":{"ha":682,"x_min":31,"x_max":669,"o":"m 235 -14 q 88 42 146 -14 q 31 190 31 99 q 94 335 31 281 q 248 412 158 389 q 426 438 338 435 q 394 538 425 510 q 293 567 364 567 q 205 553 249 567 q 107 511 161 540 l 90 638 q 336 701 207 701 q 522 633 461 701 q 583 406 583 564 l 583 235 q 588 156 583 181 q 606 122 593 132 q 650 113 619 113 l 669 113 l 651 -14 l 608 -14 q 505 8 542 -14 q 446 74 468 31 q 354 10 410 33 q 235 -14 299 -14 m 290 107 q 363 124 325 107 q 428 172 401 142 l 428 332 q 256 294 321 328 q 192 197 192 261 q 290 107 192 107 m 271 -112 l 413 -112 l 413 -243 l 271 -243 l 271 -112 z "},"à":{"ha":682,"x_min":31,"x_max":669,"o":"m 235 -14 q 88 42 146 -14 q 31 190 31 99 q 94 335 31 281 q 248 412 158 389 q 426 438 338 435 q 394 538 425 510 q 293 567 364 567 q 205 553 249 567 q 107 511 161 540 l 90 638 q 336 701 207 701 q 522 633 461 701 q 583 406 583 564 l 583 235 q 588 156 583 181 q 606 122 593 132 q 650 113 619 113 l 669 113 l 651 -14 l 608 -14 q 505 8 542 -14 q 446 74 468 31 q 354 10 410 33 q 235 -14 299 -14 m 290 107 q 363 124 325 107 q 428 172 401 142 l 428 332 q 256 294 321 328 q 192 197 192 261 q 290 107 192 107 m 201 899 l 201 1050 l 469 896 l 469 794 l 201 899 z "},"ả":{"ha":682,"x_min":31,"x_max":669,"o":"m 235 -14 q 88 42 146 -14 q 31 190 31 99 q 94 335 31 281 q 248 412 158 389 q 426 438 338 435 q 394 538 425 510 q 293 567 364 567 q 205 553 249 567 q 107 511 161 540 l 90 638 q 336 701 207 701 q 522 633 461 701 q 583 406 583 564 l 583 235 q 588 156 583 181 q 606 122 593 132 q 650 113 619 113 l 669 113 l 651 -14 l 608 -14 q 505 8 542 -14 q 446 74 468 31 q 354 10 410 33 q 235 -14 299 -14 m 290 107 q 363 124 325 107 q 428 172 401 142 l 428 332 q 256 294 321 328 q 192 197 192 261 q 290 107 192 107 m 308 786 q 354 835 342 817 q 367 876 367 853 q 314 922 367 922 q 228 896 278 922 l 204 976 q 315 1003 257 1003 q 414 970 375 1003 q 453 881 453 938 q 431 806 453 838 q 358 738 408 775 l 308 786 z "},"ȃ":{"ha":682,"x_min":31,"x_max":669,"o":"m 235 -14 q 88 42 146 -14 q 31 190 31 99 q 94 335 31 281 q 248 412 158 389 q 426 438 338 435 q 394 538 425 510 q 293 567 364 567 q 205 553 249 567 q 107 511 161 540 l 90 638 q 336 701 207 701 q 522 633 461 701 q 583 406 583 564 l 583 235 q 588 156 583 181 q 606 122 593 132 q 650 113 619 113 l 669 113 l 651 -14 l 608 -14 q 505 8 542 -14 q 446 74 468 31 q 354 10 410 33 q 235 -14 299 -14 m 290 107 q 363 124 325 107 q 428 172 401 142 l 428 332 q 256 294 321 328 q 192 197 192 261 q 290 107 192 107 m 336 997 q 490 943 433 997 q 546 810 546 889 l 431 810 q 405 874 431 851 q 336 897 379 897 q 267 874 293 897 q 242 810 242 851 l 126 810 q 183 943 126 889 q 336 997 239 997 z "},"ā":{"ha":682,"x_min":31,"x_max":669,"o":"m 235 -14 q 88 42 146 -14 q 31 190 31 99 q 94 335 31 281 q 248 412 158 389 q 426 438 338 435 q 394 538 425 510 q 293 567 364 567 q 205 553 249 567 q 107 511 161 540 l 90 638 q 336 701 207 701 q 522 633 461 701 q 583 406 583 564 l 583 235 q 588 156 583 181 q 606 122 593 132 q 650 113 619 113 l 669 113 l 651 -14 l 608 -14 q 505 8 542 -14 q 446 74 468 31 q 354 10 410 33 q 235 -14 299 -14 m 290 107 q 363 124 325 107 q 428 172 401 142 l 428 332 q 256 294 321 328 q 192 197 192 261 q 290 107 192 107 m 110 936 l 563 936 l 563 829 l 110 829 l 110 936 z "},"ą":{"ha":682,"x_min":31,"x_max":711,"o":"m 711 -264 q 592 -292 658 -292 q 490 -260 531 -292 q 450 -171 450 -228 q 479 -82 450 -124 q 550 -8 508 -40 q 487 20 511 0 q 446 74 463 40 q 354 10 410 33 q 235 -14 299 -14 q 88 42 146 -14 q 31 190 31 99 q 94 335 31 281 q 248 412 158 389 q 426 438 338 435 q 394 538 425 510 q 293 567 364 567 q 205 553 249 567 q 107 511 161 540 l 90 638 q 336 701 207 701 q 522 633 461 701 q 583 406 583 564 l 583 235 q 588 156 583 181 q 606 122 593 132 q 650 113 619 113 l 669 113 l 651 -14 l 626 -14 q 536 -146 536 -83 q 554 -195 536 -178 q 603 -212 572 -212 q 688 -190 646 -212 l 711 -264 m 428 332 q 256 294 321 328 q 192 197 192 261 q 290 107 192 107 q 363 124 325 107 q 428 172 401 142 l 428 332 z "},"å":{"ha":682,"x_min":31,"x_max":669,"o":"m 235 -14 q 88 42 146 -14 q 31 190 31 99 q 94 335 31 281 q 248 412 158 389 q 426 438 338 435 q 394 538 425 510 q 293 567 364 567 q 205 553 249 567 q 107 511 161 540 l 90 638 q 336 701 207 701 q 522 633 461 701 q 583 406 583 564 l 583 235 q 588 156 583 181 q 606 122 593 132 q 650 113 619 113 l 669 113 l 651 -14 l 608 -14 q 505 8 542 -14 q 446 74 468 31 q 354 10 410 33 q 235 -14 299 -14 m 290 107 q 363 124 325 107 q 428 172 401 142 l 428 332 q 256 294 321 328 q 192 197 192 261 q 290 107 192 107 m 336 790 q 231 830 269 790 q 192 926 192 869 q 231 1024 192 983 q 336 1064 271 1064 q 442 1024 403 1064 q 481 926 481 985 q 442 830 481 869 q 336 790 403 790 m 336 858 q 383 877 364 858 q 403 926 403 896 q 384 976 403 957 q 336 994 365 994 q 288 976 307 994 q 269 926 269 957 q 289 877 269 896 q 336 858 308 858 z "},"ǻ":{"ha":682,"x_min":31,"x_max":669,"o":"m 235 -14 q 88 42 146 -14 q 31 190 31 99 q 94 335 31 281 q 248 412 158 389 q 426 438 338 435 q 394 538 425 510 q 293 567 364 567 q 205 553 249 567 q 107 511 161 540 l 90 638 q 336 701 207 701 q 522 633 461 701 q 583 406 583 564 l 583 235 q 588 156 583 181 q 606 122 593 132 q 650 113 619 113 l 669 113 l 651 -14 l 608 -14 q 505 8 542 -14 q 446 74 468 31 q 354 10 410 33 q 235 -14 299 -14 m 290 107 q 363 124 325 107 q 428 172 401 142 l 428 332 q 256 294 321 328 q 192 197 192 261 q 290 107 192 107 m 336 790 q 231 830 269 790 q 192 926 192 869 q 231 1024 192 983 q 336 1064 271 1064 q 442 1024 403 1064 q 481 926 481 985 q 442 830 481 869 q 336 790 403 790 m 336 858 q 383 877 364 858 q 403 926 403 896 q 384 976 403 957 q 336 994 365 994 q 288 976 307 994 q 269 926 269 957 q 289 877 269 896 q 336 858 308 858 m 203 1208 l 471 1340 l 471 1199 l 203 1118 l 203 1208 z "},"ã":{"ha":682,"x_min":31,"x_max":669,"o":"m 235 -14 q 88 42 146 -14 q 31 190 31 99 q 94 335 31 281 q 248 412 158 389 q 426 438 338 435 q 394 538 425 510 q 293 567 364 567 q 205 553 249 567 q 107 511 161 540 l 90 638 q 336 701 207 701 q 522 633 461 701 q 583 406 583 564 l 583 235 q 588 156 583 181 q 606 122 593 132 q 650 113 619 113 l 669 113 l 651 -14 l 608 -14 q 505 8 542 -14 q 446 74 468 31 q 354 10 410 33 q 235 -14 299 -14 m 290 107 q 363 124 325 107 q 428 172 401 142 l 428 332 q 256 294 321 328 q 192 197 192 261 q 290 107 192 107 m 451 804 q 403 813 428 804 q 349 838 379 822 q 299 859 319 851 q 261 867 279 867 q 226 853 239 867 q 214 815 214 839 l 101 815 q 135 936 104 894 q 221 978 165 978 q 269 969 244 978 q 324 944 293 960 q 373 923 353 931 q 411 915 393 915 q 446 929 433 915 q 458 967 458 943 l 571 967 q 538 846 568 888 q 451 804 507 804 z "},"æ":{"ha":1086,"x_min":31,"x_max":1047,"o":"m 1047 406 q 1038 321 1047 361 l 593 321 q 663 167 604 217 q 807 117 722 117 q 1006 168 903 117 l 1017 39 q 796 -14 914 -14 q 630 18 701 -14 q 511 108 558 50 q 397 19 464 53 q 257 -14 329 -14 q 93 39 156 -14 q 31 182 31 92 q 149 367 31 310 q 431 426 267 425 q 395 532 426 497 q 293 567 364 567 q 205 553 249 567 q 107 511 161 540 l 90 638 q 336 701 207 701 q 536 611 479 701 q 763 701 626 701 q 917 663 853 701 q 1015 556 982 624 q 1047 406 1047 489 m 889 426 q 856 531 889 490 q 758 571 822 571 q 653 533 694 571 q 597 426 611 496 l 889 426 m 301 107 q 388 126 346 107 q 465 183 431 146 q 433 321 438 247 q 192 196 192 317 q 222 129 192 151 q 301 107 251 107 z "},"ǽ":{"ha":1086,"x_min":31,"x_max":1047,"o":"m 1047 406 q 1038 321 1047 361 l 593 321 q 663 167 604 217 q 807 117 722 117 q 1006 168 903 117 l 1017 39 q 796 -14 914 -14 q 630 18 701 -14 q 511 108 558 50 q 397 19 464 53 q 257 -14 329 -14 q 93 39 156 -14 q 31 182 31 92 q 149 367 31 310 q 431 426 267 425 q 395 532 426 497 q 293 567 364 567 q 205 553 249 567 q 107 511 161 540 l 90 638 q 336 701 207 701 q 536 611 479 701 q 763 701 626 701 q 917 663 853 701 q 1015 556 982 624 q 1047 406 1047 489 m 889 426 q 856 531 889 490 q 758 571 822 571 q 653 533 694 571 q 597 426 611 496 l 889 426 m 301 107 q 388 126 346 107 q 465 183 431 146 q 433 321 438 247 q 192 196 192 317 q 222 129 192 151 q 301 107 251 107 m 425 896 l 693 1050 l 693 899 l 425 794 l 425 896 z "},"b":{"ha":785,"x_min":81,"x_max":744,"o":"m 433 701 q 601 653 531 701 q 708 523 671 604 q 744 344 744 442 q 706 164 744 246 q 598 34 668 82 q 433 -14 528 -14 q 231 58 311 -14 l 224 0 l 81 0 l 81 1042 l 236 1042 l 236 629 q 433 701 322 701 m 413 117 q 538 180 492 117 q 585 344 585 243 q 538 508 585 446 q 413 571 492 571 q 276 511 325 571 q 228 344 228 451 q 276 176 228 236 q 413 117 325 117 z "},"c":{"ha":632,"x_min":42,"x_max":596,"o":"m 401 -14 q 206 33 288 -14 q 83 161 125 81 q 42 342 42 242 q 83 526 42 444 q 206 656 124 608 q 408 703 288 703 q 594 660 513 703 l 578 532 q 418 571 497 571 q 257 510 314 571 q 200 344 200 449 q 257 179 200 242 q 415 117 314 117 q 579 161 501 117 l 596 32 q 508 -1 560 11 q 401 -14 457 -14 z "},"ć":{"ha":632,"x_min":42,"x_max":596,"o":"m 401 -14 q 206 33 288 -14 q 83 161 125 81 q 42 342 42 242 q 83 526 42 444 q 206 656 124 608 q 408 703 288 703 q 594 660 513 703 l 578 532 q 418 571 497 571 q 257 510 314 571 q 200 344 200 449 q 257 179 200 242 q 415 117 314 117 q 579 161 501 117 l 596 32 q 508 -1 560 11 q 401 -14 457 -14 m 243 896 l 511 1050 l 511 899 l 243 794 l 243 896 z "},"č":{"ha":632,"x_min":42,"x_max":596,"o":"m 401 -14 q 206 33 288 -14 q 83 161 125 81 q 42 342 42 242 q 83 526 42 444 q 206 656 124 608 q 408 703 288 703 q 594 660 513 703 l 578 532 q 418 571 497 571 q 257 510 314 571 q 200 344 200 449 q 257 179 200 242 q 415 117 314 117 q 579 161 501 117 l 596 32 q 508 -1 560 11 q 401 -14 457 -14 m 196 931 l 196 1031 l 376 917 l 557 1031 l 557 931 l 376 776 l 196 931 z "},"ç":{"ha":632,"x_min":42,"x_max":596,"o":"m 399 -75 q 492 -106 458 -75 q 526 -193 526 -137 q 483 -291 526 -257 q 372 -325 440 -325 q 261 -299 308 -325 l 285 -222 q 374 -246 335 -246 q 422 -233 404 -246 q 440 -197 440 -221 q 422 -159 440 -172 q 369 -146 404 -146 q 304 -157 336 -146 l 339 -10 q 119 106 197 8 q 42 342 42 203 q 83 526 42 444 q 206 656 124 608 q 408 703 288 703 q 594 660 513 703 l 578 532 q 418 571 497 571 q 257 510 314 571 q 200 344 200 449 q 257 179 200 242 q 415 117 314 117 q 579 161 501 117 l 596 32 q 513 0 561 13 q 411 -14 464 -12 l 393 -75 l 399 -75 z "},"ḉ":{"ha":632,"x_min":42,"x_max":596,"o":"m 511 899 l 243 794 l 243 896 l 511 1050 l 511 899 m 399 -75 q 492 -106 458 -75 q 526 -193 526 -137 q 483 -291 526 -257 q 372 -325 440 -325 q 261 -299 308 -325 l 285 -222 q 374 -246 335 -246 q 422 -233 404 -246 q 440 -197 440 -221 q 422 -159 440 -172 q 369 -146 404 -146 q 304 -157 336 -146 l 339 -10 q 119 106 197 8 q 42 342 42 203 q 83 526 42 444 q 206 656 124 608 q 408 703 288 703 q 594 660 513 703 l 578 532 q 418 571 497 571 q 257 510 314 571 q 200 344 200 449 q 257 179 200 242 q 415 117 314 117 q 579 161 501 117 l 596 32 q 513 0 561 13 q 411 -14 464 -12 l 393 -75 l 399 -75 z "},"ĉ":{"ha":632,"x_min":42,"x_max":596,"o":"m 401 -14 q 206 33 288 -14 q 83 161 125 81 q 42 342 42 242 q 83 526 42 444 q 206 656 124 608 q 408 703 288 703 q 594 660 513 703 l 578 532 q 418 571 497 571 q 257 510 314 571 q 200 344 200 449 q 257 179 200 242 q 415 117 314 117 q 579 161 501 117 l 596 32 q 508 -1 560 11 q 401 -14 457 -14 m 196 875 l 376 1029 l 557 875 l 557 775 l 376 889 l 196 775 l 196 875 z "},"ċ":{"ha":632,"x_min":42,"x_max":596,"o":"m 401 -14 q 206 33 288 -14 q 83 161 125 81 q 42 342 42 242 q 83 526 42 444 q 206 656 124 608 q 408 703 288 703 q 594 660 513 703 l 578 532 q 418 571 497 571 q 257 510 314 571 q 200 344 200 449 q 257 179 200 242 q 415 117 314 117 q 579 161 501 117 l 596 32 q 508 -1 560 11 q 401 -14 457 -14 m 306 961 l 447 961 l 447 831 l 306 831 l 306 961 z "},"d":{"ha":785,"x_min":40,"x_max":704,"o":"m 704 1042 l 704 0 l 561 0 l 554 58 q 358 -14 475 -14 q 190 34 263 -14 q 79 163 118 82 q 40 343 40 244 q 78 522 40 440 q 188 653 117 604 q 358 701 260 701 q 549 635 471 701 l 549 1042 l 704 1042 m 382 117 q 512 176 464 117 q 560 343 560 236 q 511 510 560 449 q 382 571 463 571 q 249 508 297 571 q 200 343 200 444 q 249 180 200 243 q 382 117 297 117 z "},"ð":{"ha":704,"x_min":28,"x_max":661,"o":"m 483 829 q 615 622 569 743 q 661 358 661 500 q 616 144 661 229 q 498 21 571 60 q 340 -18 425 -18 q 179 22 250 -18 q 68 131 108 61 q 28 285 28 200 q 63 435 28 364 q 166 549 99 506 q 324 592 233 592 q 494 529 424 592 q 388 774 475 681 l 231 685 l 181 768 l 306 839 q 181 892 250 874 l 206 974 q 403 894 317 951 l 542 972 l 590 889 l 483 829 m 343 114 q 455 160 410 114 q 500 288 500 206 q 458 417 500 369 q 342 464 417 464 q 226 415 268 464 q 183 300 183 365 q 226 168 183 222 q 343 114 268 114 z "},"ď":{"ha":878,"x_min":40,"x_max":904,"o":"m 704 1042 l 704 0 l 561 0 l 554 58 q 358 -14 475 -14 q 190 34 263 -14 q 79 163 118 82 q 40 343 40 244 q 78 522 40 440 q 188 653 117 604 q 358 701 260 701 q 549 635 471 701 l 549 1042 l 704 1042 m 382 117 q 512 176 464 117 q 560 343 560 236 q 511 510 560 449 q 382 571 463 571 q 249 508 297 571 q 200 343 200 444 q 249 180 200 243 q 382 117 297 117 m 769 1042 l 904 1042 l 865 801 l 769 801 l 769 1042 z "},"đ":{"ha":789,"x_min":40,"x_max":804,"o":"m 804 815 l 704 815 l 704 0 l 561 0 l 554 58 q 358 -14 475 -14 q 190 34 263 -14 q 79 163 118 82 q 40 343 40 244 q 78 522 40 440 q 188 653 117 604 q 358 701 260 701 q 549 635 471 701 l 549 815 l 340 815 l 340 924 l 549 924 l 549 1042 l 704 1042 l 704 924 l 804 924 l 804 815 m 382 117 q 512 176 464 117 q 560 343 560 236 q 511 510 560 449 q 382 571 463 571 q 249 508 297 571 q 200 343 200 444 q 249 180 200 243 q 382 117 297 117 z "},"ḍ":{"ha":785,"x_min":40,"x_max":704,"o":"m 704 1042 l 704 0 l 561 0 l 554 58 q 358 -14 475 -14 q 190 34 263 -14 q 79 163 118 82 q 40 343 40 244 q 78 522 40 440 q 188 653 117 604 q 358 701 260 701 q 549 635 471 701 l 549 1042 l 704 1042 m 382 117 q 512 176 464 117 q 560 343 560 236 q 511 510 560 449 q 382 571 463 571 q 249 508 297 571 q 200 343 200 444 q 249 180 200 243 q 382 117 297 117 m 322 -112 l 464 -112 l 464 -243 l 322 -243 l 322 -112 z "},"ḏ":{"ha":785,"x_min":40,"x_max":704,"o":"m 704 1042 l 704 0 l 561 0 l 554 58 q 358 -14 475 -14 q 190 34 263 -14 q 79 163 118 82 q 40 343 40 244 q 78 522 40 440 q 188 653 117 604 q 358 701 260 701 q 549 635 471 701 l 549 1042 l 704 1042 m 382 117 q 512 176 464 117 q 560 343 560 236 q 511 510 560 449 q 382 571 463 571 q 249 508 297 571 q 200 343 200 444 q 249 180 200 243 q 382 117 297 117 m 167 -126 l 619 -126 l 619 -233 l 167 -233 l 167 -126 z "},"ǆ":{"ha":1440,"x_min":40,"x_max":1413,"o":"m 704 1042 l 704 0 l 561 0 l 554 58 q 358 -14 475 -14 q 190 34 263 -14 q 79 163 118 82 q 40 343 40 244 q 78 522 40 440 q 188 653 117 604 q 358 701 260 701 q 549 635 471 701 l 549 1042 l 704 1042 m 382 117 q 512 176 464 117 q 560 343 560 236 q 511 510 560 449 q 382 571 463 571 q 249 508 297 571 q 200 343 200 444 q 249 180 200 243 q 382 117 297 117 m 1060 133 l 1411 133 l 1411 0 l 811 0 l 1164 557 l 840 557 l 840 689 l 1413 689 l 1060 133 m 940 936 l 940 1036 l 1121 922 l 1301 1036 l 1301 936 l 1121 782 l 940 936 z "},"e":{"ha":714,"x_min":40,"x_max":675,"o":"m 414 -14 q 210 35 294 -14 q 83 166 126 83 q 40 350 40 249 q 80 527 40 447 q 197 654 119 607 q 378 701 274 701 q 537 663 469 701 q 640 558 604 625 q 675 406 675 492 q 665 321 675 361 l 201 321 q 276 165 214 214 q 429 117 338 117 q 633 168 542 117 l 644 39 q 414 -14 539 -14 m 517 426 q 482 529 517 488 q 376 571 447 571 q 207 426 242 571 l 517 426 z "},"é":{"ha":714,"x_min":40,"x_max":675,"o":"m 414 -14 q 210 35 294 -14 q 83 166 126 83 q 40 350 40 249 q 80 527 40 447 q 197 654 119 607 q 378 701 274 701 q 537 663 469 701 q 640 558 604 625 q 675 406 675 492 q 665 321 675 361 l 201 321 q 276 165 214 214 q 429 117 338 117 q 633 168 542 117 l 644 39 q 414 -14 539 -14 m 517 426 q 482 529 517 488 q 376 571 447 571 q 207 426 242 571 l 517 426 m 256 896 l 524 1050 l 524 899 l 256 794 l 256 896 z "},"ĕ":{"ha":714,"x_min":40,"x_max":675,"o":"m 414 -14 q 210 35 294 -14 q 83 166 126 83 q 40 350 40 249 q 80 527 40 447 q 197 654 119 607 q 378 701 274 701 q 537 663 469 701 q 640 558 604 625 q 675 406 675 492 q 665 321 675 361 l 201 321 q 276 165 214 214 q 429 117 338 117 q 633 168 542 117 l 644 39 q 414 -14 539 -14 m 517 426 q 482 529 517 488 q 376 571 447 571 q 207 426 242 571 l 517 426 m 389 810 q 235 864 292 810 q 179 997 179 918 l 294 997 q 320 933 294 956 q 389 910 346 910 q 458 933 432 910 q 483 997 483 956 l 599 997 q 542 864 599 918 q 389 810 486 810 z "},"ě":{"ha":714,"x_min":40,"x_max":675,"o":"m 414 -14 q 210 35 294 -14 q 83 166 126 83 q 40 350 40 249 q 80 527 40 447 q 197 654 119 607 q 378 701 274 701 q 537 663 469 701 q 640 558 604 625 q 675 406 675 492 q 665 321 675 361 l 201 321 q 276 165 214 214 q 429 117 338 117 q 633 168 542 117 l 644 39 q 414 -14 539 -14 m 517 426 q 482 529 517 488 q 376 571 447 571 q 207 426 242 571 l 517 426 m 208 931 l 208 1031 l 389 917 l 569 1031 l 569 931 l 389 776 l 208 931 z "},"ḝ":{"ha":714,"x_min":40,"x_max":675,"o":"m 389 810 q 235 864 292 810 q 179 997 179 918 l 294 997 q 320 933 294 956 q 389 910 346 910 q 458 933 432 910 q 483 997 483 956 l 599 997 q 542 864 599 918 q 389 810 486 810 m 675 406 q 665 321 675 361 l 201 321 q 276 165 214 214 q 429 117 338 117 q 633 168 542 117 l 644 39 q 414 -14 539 -14 l 393 -14 l 375 -75 l 381 -75 q 474 -106 440 -75 q 508 -193 508 -137 q 465 -291 508 -257 q 354 -325 422 -325 q 243 -299 290 -325 l 267 -222 q 356 -246 317 -246 q 404 -233 386 -246 q 422 -197 422 -221 q 404 -159 422 -172 q 351 -146 386 -146 q 286 -157 318 -146 l 322 -6 q 114 119 188 21 q 40 350 40 217 q 80 527 40 447 q 197 654 119 607 q 378 701 274 701 q 537 663 469 701 q 640 558 604 625 q 675 406 675 492 m 517 426 q 482 529 517 488 q 376 571 447 571 q 207 426 242 571 l 517 426 z "},"ê":{"ha":714,"x_min":40,"x_max":675,"o":"m 414 -14 q 210 35 294 -14 q 83 166 126 83 q 40 350 40 249 q 80 527 40 447 q 197 654 119 607 q 378 701 274 701 q 537 663 469 701 q 640 558 604 625 q 675 406 675 492 q 665 321 675 361 l 201 321 q 276 165 214 214 q 429 117 338 117 q 633 168 542 117 l 644 39 q 414 -14 539 -14 m 517 426 q 482 529 517 488 q 376 571 447 571 q 207 426 242 571 l 517 426 m 208 875 l 389 1029 l 569 875 l 569 775 l 389 889 l 208 775 l 208 875 z "},"ế":{"ha":714,"x_min":40,"x_max":736,"o":"m 414 -14 q 210 35 294 -14 q 83 166 126 83 q 40 350 40 249 q 80 527 40 447 q 197 654 119 607 q 378 701 274 701 q 537 663 469 701 q 640 558 604 625 q 675 406 675 492 q 665 321 675 361 l 201 321 q 276 165 214 214 q 429 117 338 117 q 633 168 542 117 l 644 39 q 414 -14 539 -14 m 517 426 q 482 529 517 488 q 376 571 447 571 q 207 426 242 571 l 517 426 m 586 1143 l 736 1143 l 597 972 l 494 972 l 586 1143 m 569 861 l 569 764 l 389 861 l 208 764 l 208 861 l 389 988 l 569 861 z "},"ệ":{"ha":714,"x_min":40,"x_max":675,"o":"m 414 -14 q 210 35 294 -14 q 83 166 126 83 q 40 350 40 249 q 80 527 40 447 q 197 654 119 607 q 378 701 274 701 q 537 663 469 701 q 640 558 604 625 q 675 406 675 492 q 665 321 675 361 l 201 321 q 276 165 214 214 q 429 117 338 117 q 633 168 542 117 l 644 39 q 414 -14 539 -14 m 517 426 q 482 529 517 488 q 376 571 447 571 q 207 426 242 571 l 517 426 m 208 875 l 389 1029 l 569 875 l 569 775 l 389 889 l 208 775 l 208 875 m 286 -112 l 428 -112 l 428 -243 l 286 -243 l 286 -112 z "},"ề":{"ha":714,"x_min":40,"x_max":675,"o":"m 414 -14 q 210 35 294 -14 q 83 166 126 83 q 40 350 40 249 q 80 527 40 447 q 197 654 119 607 q 378 701 274 701 q 537 663 469 701 q 640 558 604 625 q 675 406 675 492 q 665 321 675 361 l 201 321 q 276 165 214 214 q 429 117 338 117 q 633 168 542 117 l 644 39 q 414 -14 539 -14 m 517 426 q 482 529 517 488 q 376 571 447 571 q 207 426 242 571 l 517 426 m 521 972 l 404 1143 l 547 1143 l 619 972 l 521 972 m 569 861 l 569 764 l 389 861 l 208 764 l 208 861 l 389 988 l 569 861 z "},"ể":{"ha":714,"x_min":40,"x_max":675,"o":"m 414 -14 q 210 35 294 -14 q 83 166 126 83 q 40 350 40 249 q 80 527 40 447 q 197 654 119 607 q 378 701 274 701 q 537 663 469 701 q 640 558 604 625 q 675 406 675 492 q 665 321 675 361 l 201 321 q 276 165 214 214 q 429 117 338 117 q 633 168 542 117 l 644 39 q 414 -14 539 -14 m 517 426 q 482 529 517 488 q 376 571 447 571 q 207 426 242 571 l 517 426 m 569 853 l 569 756 l 389 853 l 208 756 l 208 853 l 389 979 l 569 853 m 508 988 q 547 1006 535 994 q 558 1038 558 1018 q 506 1078 558 1078 q 419 1051 469 1078 l 396 1132 q 507 1158 449 1158 q 606 1128 567 1158 q 644 1046 644 1099 q 615 970 644 999 q 522 928 586 942 l 508 988 z "},"ễ":{"ha":714,"x_min":40,"x_max":675,"o":"m 414 -14 q 210 35 294 -14 q 83 166 126 83 q 40 350 40 249 q 80 527 40 447 q 197 654 119 607 q 378 701 274 701 q 537 663 469 701 q 640 558 604 625 q 675 406 675 492 q 665 321 675 361 l 201 321 q 276 165 214 214 q 429 117 338 117 q 633 168 542 117 l 644 39 q 414 -14 539 -14 m 517 426 q 482 529 517 488 q 376 571 447 571 q 207 426 242 571 l 517 426 m 569 853 l 569 756 l 389 853 l 208 756 l 208 853 l 389 979 l 569 853 m 508 1032 q 463 1040 486 1032 q 401 1064 440 1047 q 365 1078 394 1067 q 314 1090 335 1090 q 279 1078 292 1090 q 267 1042 267 1065 l 167 1042 q 192 1148 167 1111 q 269 1185 218 1185 q 315 1177 292 1185 q 376 1153 338 1169 q 413 1138 383 1150 q 464 1126 443 1126 q 499 1139 486 1126 q 511 1176 511 1151 l 611 1176 q 585 1069 611 1106 q 508 1032 560 1032 z "},"ȅ":{"ha":714,"x_min":40,"x_max":675,"o":"m 414 -14 q 210 35 294 -14 q 83 166 126 83 q 40 350 40 249 q 80 527 40 447 q 197 654 119 607 q 378 701 274 701 q 537 663 469 701 q 640 558 604 625 q 675 406 675 492 q 665 321 675 361 l 201 321 q 276 165 214 214 q 429 117 338 117 q 633 168 542 117 l 644 39 q 414 -14 539 -14 m 517 426 q 482 529 517 488 q 376 571 447 571 q 207 426 242 571 l 517 426 m 242 811 l 94 1053 l 246 1053 l 346 811 l 242 811 m 443 811 l 306 1053 l 456 1053 l 546 811 l 443 811 z "},"ë":{"ha":714,"x_min":40,"x_max":675,"o":"m 414 -14 q 210 35 294 -14 q 83 166 126 83 q 40 350 40 249 q 80 527 40 447 q 197 654 119 607 q 378 701 274 701 q 537 663 469 701 q 640 558 604 625 q 675 406 675 492 q 665 321 675 361 l 201 321 q 276 165 214 214 q 429 117 338 117 q 633 168 542 117 l 644 39 q 414 -14 539 -14 m 517 426 q 482 529 517 488 q 376 571 447 571 q 207 426 242 571 l 517 426 m 188 940 l 315 940 l 315 821 l 188 821 l 188 940 m 463 940 l 590 940 l 590 821 l 463 821 l 463 940 z "},"ė":{"ha":714,"x_min":40,"x_max":675,"o":"m 414 -14 q 210 35 294 -14 q 83 166 126 83 q 40 350 40 249 q 80 527 40 447 q 197 654 119 607 q 378 701 274 701 q 537 663 469 701 q 640 558 604 625 q 675 406 675 492 q 665 321 675 361 l 201 321 q 276 165 214 214 q 429 117 338 117 q 633 168 542 117 l 644 39 q 414 -14 539 -14 m 517 426 q 482 529 517 488 q 376 571 447 571 q 207 426 242 571 l 517 426 m 318 961 l 460 961 l 460 831 l 318 831 l 318 961 z "},"ẹ":{"ha":714,"x_min":40,"x_max":675,"o":"m 414 -14 q 210 35 294 -14 q 83 166 126 83 q 40 350 40 249 q 80 527 40 447 q 197 654 119 607 q 378 701 274 701 q 537 663 469 701 q 640 558 604 625 q 675 406 675 492 q 665 321 675 361 l 201 321 q 276 165 214 214 q 429 117 338 117 q 633 168 542 117 l 644 39 q 414 -14 539 -14 m 517 426 q 482 529 517 488 q 376 571 447 571 q 207 426 242 571 l 517 426 m 286 -112 l 428 -112 l 428 -243 l 286 -243 l 286 -112 z "},"è":{"ha":714,"x_min":40,"x_max":675,"o":"m 414 -14 q 210 35 294 -14 q 83 166 126 83 q 40 350 40 249 q 80 527 40 447 q 197 654 119 607 q 378 701 274 701 q 537 663 469 701 q 640 558 604 625 q 675 406 675 492 q 665 321 675 361 l 201 321 q 276 165 214 214 q 429 117 338 117 q 633 168 542 117 l 644 39 q 414 -14 539 -14 m 517 426 q 482 529 517 488 q 376 571 447 571 q 207 426 242 571 l 517 426 m 254 899 l 254 1050 l 522 896 l 522 794 l 254 899 z "},"ẻ":{"ha":714,"x_min":40,"x_max":675,"o":"m 414 -14 q 210 35 294 -14 q 83 166 126 83 q 40 350 40 249 q 80 527 40 447 q 197 654 119 607 q 378 701 274 701 q 537 663 469 701 q 640 558 604 625 q 675 406 675 492 q 665 321 675 361 l 201 321 q 276 165 214 214 q 429 117 338 117 q 633 168 542 117 l 644 39 q 414 -14 539 -14 m 517 426 q 482 529 517 488 q 376 571 447 571 q 207 426 242 571 l 517 426 m 361 786 q 407 835 394 817 q 419 876 419 853 q 367 922 419 922 q 281 896 331 922 l 257 976 q 368 1003 310 1003 q 467 970 428 1003 q 506 881 506 938 q 483 806 506 838 q 411 738 461 775 l 361 786 z "},"ȇ":{"ha":714,"x_min":40,"x_max":675,"o":"m 414 -14 q 210 35 294 -14 q 83 166 126 83 q 40 350 40 249 q 80 527 40 447 q 197 654 119 607 q 378 701 274 701 q 537 663 469 701 q 640 558 604 625 q 675 406 675 492 q 665 321 675 361 l 201 321 q 276 165 214 214 q 429 117 338 117 q 633 168 542 117 l 644 39 q 414 -14 539 -14 m 517 426 q 482 529 517 488 q 376 571 447 571 q 207 426 242 571 l 517 426 m 389 997 q 542 943 486 997 q 599 810 599 889 l 483 810 q 458 874 483 851 q 389 897 432 897 q 320 874 346 897 q 294 810 294 851 l 179 810 q 235 943 179 889 q 389 997 292 997 z "},"ē":{"ha":714,"x_min":40,"x_max":675,"o":"m 414 -14 q 210 35 294 -14 q 83 166 126 83 q 40 350 40 249 q 80 527 40 447 q 197 654 119 607 q 378 701 274 701 q 537 663 469 701 q 640 558 604 625 q 675 406 675 492 q 665 321 675 361 l 201 321 q 276 165 214 214 q 429 117 338 117 q 633 168 542 117 l 644 39 q 414 -14 539 -14 m 517 426 q 482 529 517 488 q 376 571 447 571 q 207 426 242 571 l 517 426 m 163 936 l 615 936 l 615 829 l 163 829 l 163 936 z "},"ḗ":{"ha":714,"x_min":40,"x_max":675,"o":"m 414 -14 q 210 35 294 -14 q 83 166 126 83 q 40 350 40 249 q 80 527 40 447 q 197 654 119 607 q 378 701 274 701 q 537 663 469 701 q 640 558 604 625 q 675 406 675 492 q 665 321 675 361 l 201 321 q 276 165 214 214 q 429 117 338 117 q 633 168 542 117 l 644 39 q 414 -14 539 -14 m 517 426 q 482 529 517 488 q 376 571 447 571 q 207 426 242 571 l 517 426 m 163 919 l 615 919 l 615 818 l 163 818 l 163 919 m 256 1103 l 524 1235 l 524 1093 l 256 1013 l 256 1103 z "},"ḕ":{"ha":714,"x_min":40,"x_max":675,"o":"m 414 -14 q 210 35 294 -14 q 83 166 126 83 q 40 350 40 249 q 80 527 40 447 q 197 654 119 607 q 378 701 274 701 q 537 663 469 701 q 640 558 604 625 q 675 406 675 492 q 665 321 675 361 l 201 321 q 276 165 214 214 q 429 117 338 117 q 633 168 542 117 l 644 39 q 414 -14 539 -14 m 517 426 q 482 529 517 488 q 376 571 447 571 q 207 426 242 571 l 517 426 m 163 919 l 615 919 l 615 818 l 163 818 l 163 919 m 254 1093 l 254 1235 l 522 1103 l 522 1013 l 254 1093 z "},"ę":{"ha":714,"x_min":40,"x_max":711,"o":"m 711 -225 q 592 -253 658 -253 q 490 -221 531 -253 q 450 -132 450 -189 q 508 -6 450 -69 q 414 -14 465 -14 q 210 35 294 -14 q 83 166 126 83 q 40 350 40 249 q 80 527 40 447 q 197 654 119 607 q 378 701 274 701 q 537 663 469 701 q 640 558 604 625 q 675 406 675 492 q 665 321 675 361 l 201 321 q 276 165 214 214 q 429 117 338 117 q 633 168 542 117 l 644 39 q 564 -35 592 0 q 536 -107 536 -71 q 554 -156 536 -139 q 603 -174 572 -174 q 688 -151 646 -174 l 711 -225 m 376 571 q 207 426 242 571 l 517 426 q 482 529 517 488 q 376 571 447 571 z "},"ẽ":{"ha":714,"x_min":40,"x_max":675,"o":"m 414 -14 q 210 35 294 -14 q 83 166 126 83 q 40 350 40 249 q 80 527 40 447 q 197 654 119 607 q 378 701 274 701 q 537 663 469 701 q 640 558 604 625 q 675 406 675 492 q 665 321 675 361 l 201 321 q 276 165 214 214 q 429 117 338 117 q 633 168 542 117 l 644 39 q 414 -14 539 -14 m 517 426 q 482 529 517 488 q 376 571 447 571 q 207 426 242 571 l 517 426 m 504 804 q 456 813 481 804 q 401 838 432 822 q 352 859 372 851 q 314 867 332 867 q 279 853 292 867 q 267 815 267 839 l 154 815 q 188 936 157 894 q 274 978 218 978 q 322 969 297 978 q 376 944 346 960 q 426 923 406 931 q 464 915 446 915 q 499 929 486 915 q 511 967 511 943 l 624 967 q 590 846 621 888 q 504 804 560 804 z "},"ə":{"ha":714,"x_min":39,"x_max":674,"o":"m 300 703 q 503 654 419 703 q 631 523 588 606 q 674 339 674 440 q 634 162 674 242 q 517 35 594 82 q 336 -12 440 -12 q 177 26 244 -12 q 74 131 110 64 q 39 283 39 197 q 49 368 39 328 l 513 368 q 438 524 500 475 q 285 572 376 572 q 81 521 172 572 l 69 650 q 300 703 175 703 m 197 263 q 232 160 197 201 q 338 118 267 118 q 507 263 472 118 l 197 263 z "},"f":{"ha":468,"x_min":19,"x_max":444,"o":"m 126 564 l 19 564 l 36 689 l 126 689 l 126 842 q 179 988 126 935 q 329 1042 232 1042 q 440 1028 392 1042 l 424 900 q 364 910 394 910 q 281 819 281 910 l 281 689 l 444 689 l 444 564 l 281 564 l 281 0 l 126 0 l 126 564 z "},"g":{"ha":694,"x_min":35,"x_max":694,"o":"m 357 -349 q 123 -296 211 -349 q 35 -149 35 -243 q 149 14 35 -46 q 86 107 86 50 q 160 206 86 174 q 77 300 106 242 q 49 431 49 358 q 82 569 49 507 q 178 667 115 631 q 329 703 242 703 q 492 656 424 703 q 559 681 518 671 q 647 690 600 690 l 679 690 l 667 592 l 615 592 q 563 586 589 592 q 611 431 611 521 q 578 292 611 354 q 481 192 544 229 q 329 156 417 156 q 250 167 290 156 q 228 139 228 158 q 249 111 228 122 q 317 94 271 100 l 458 74 q 694 -125 694 40 q 605 -290 694 -231 q 357 -349 515 -349 m 329 274 q 432 316 396 274 q 468 431 468 358 q 432 544 468 503 q 329 586 396 586 q 226 544 263 586 q 190 431 190 501 q 226 316 190 358 q 329 274 263 274 m 365 -225 q 551 -135 551 -225 q 520 -77 551 -97 q 421 -46 489 -57 l 254 -19 q 192 -60 215 -35 q 169 -121 169 -86 q 221 -199 169 -174 q 365 -225 272 -225 z "},"ğ":{"ha":694,"x_min":35,"x_max":694,"o":"m 357 -349 q 123 -296 211 -349 q 35 -149 35 -243 q 149 14 35 -46 q 86 107 86 50 q 160 206 86 174 q 77 300 106 242 q 49 431 49 358 q 82 569 49 507 q 178 667 115 631 q 329 703 242 703 q 492 656 424 703 q 559 681 518 671 q 647 690 600 690 l 679 690 l 667 592 l 615 592 q 563 586 589 592 q 611 431 611 521 q 578 292 611 354 q 481 192 544 229 q 329 156 417 156 q 250 167 290 156 q 228 139 228 158 q 249 111 228 122 q 317 94 271 100 l 458 74 q 694 -125 694 40 q 605 -290 694 -231 q 357 -349 515 -349 m 329 274 q 432 316 396 274 q 468 431 468 358 q 432 544 468 503 q 329 586 396 586 q 226 544 263 586 q 190 431 190 501 q 226 316 190 358 q 329 274 263 274 m 365 -225 q 551 -135 551 -225 q 520 -77 551 -97 q 421 -46 489 -57 l 254 -19 q 192 -60 215 -35 q 169 -121 169 -86 q 221 -199 169 -174 q 365 -225 272 -225 m 350 810 q 197 864 253 810 q 140 997 140 918 l 256 997 q 281 933 256 956 q 350 910 307 910 q 419 933 393 910 q 444 997 444 956 l 560 997 q 503 864 560 918 q 350 810 447 810 z "},"ǧ":{"ha":694,"x_min":35,"x_max":694,"o":"m 357 -349 q 123 -296 211 -349 q 35 -149 35 -243 q 149 14 35 -46 q 86 107 86 50 q 160 206 86 174 q 77 300 106 242 q 49 431 49 358 q 82 569 49 507 q 178 667 115 631 q 329 703 242 703 q 492 656 424 703 q 559 681 518 671 q 647 690 600 690 l 679 690 l 667 592 l 615 592 q 563 586 589 592 q 611 431 611 521 q 578 292 611 354 q 481 192 544 229 q 329 156 417 156 q 250 167 290 156 q 228 139 228 158 q 249 111 228 122 q 317 94 271 100 l 458 74 q 694 -125 694 40 q 605 -290 694 -231 q 357 -349 515 -349 m 329 274 q 432 316 396 274 q 468 431 468 358 q 432 544 468 503 q 329 586 396 586 q 226 544 263 586 q 190 431 190 501 q 226 316 190 358 q 329 274 263 274 m 365 -225 q 551 -135 551 -225 q 520 -77 551 -97 q 421 -46 489 -57 l 254 -19 q 192 -60 215 -35 q 169 -121 169 -86 q 221 -199 169 -174 q 365 -225 272 -225 m 169 931 l 169 1031 l 350 917 l 531 1031 l 531 931 l 350 776 l 169 931 z "},"ĝ":{"ha":694,"x_min":35,"x_max":694,"o":"m 357 -349 q 123 -296 211 -349 q 35 -149 35 -243 q 149 14 35 -46 q 86 107 86 50 q 160 206 86 174 q 77 300 106 242 q 49 431 49 358 q 82 569 49 507 q 178 667 115 631 q 329 703 242 703 q 492 656 424 703 q 559 681 518 671 q 647 690 600 690 l 679 690 l 667 592 l 615 592 q 563 586 589 592 q 611 431 611 521 q 578 292 611 354 q 481 192 544 229 q 329 156 417 156 q 250 167 290 156 q 228 139 228 158 q 249 111 228 122 q 317 94 271 100 l 458 74 q 694 -125 694 40 q 605 -290 694 -231 q 357 -349 515 -349 m 329 274 q 432 316 396 274 q 468 431 468 358 q 432 544 468 503 q 329 586 396 586 q 226 544 263 586 q 190 431 190 501 q 226 316 190 358 q 329 274 263 274 m 365 -225 q 551 -135 551 -225 q 520 -77 551 -97 q 421 -46 489 -57 l 254 -19 q 192 -60 215 -35 q 169 -121 169 -86 q 221 -199 169 -174 q 365 -225 272 -225 m 169 875 l 350 1029 l 531 875 l 531 775 l 350 889 l 169 775 l 169 875 z "},"ģ":{"ha":694,"x_min":35,"x_max":694,"o":"m 357 -349 q 123 -296 211 -349 q 35 -149 35 -243 q 149 14 35 -46 q 86 107 86 50 q 160 206 86 174 q 77 300 106 242 q 49 431 49 358 q 82 569 49 507 q 178 667 115 631 q 329 703 242 703 q 492 656 424 703 q 559 681 518 671 q 647 690 600 690 l 679 690 l 667 592 l 615 592 q 563 586 589 592 q 611 431 611 521 q 578 292 611 354 q 481 192 544 229 q 329 156 417 156 q 250 167 290 156 q 228 139 228 158 q 249 111 228 122 q 317 94 271 100 l 458 74 q 694 -125 694 40 q 605 -290 694 -231 q 357 -349 515 -349 m 329 274 q 432 316 396 274 q 468 431 468 358 q 432 544 468 503 q 329 586 396 586 q 226 544 263 586 q 190 431 190 501 q 226 316 190 358 q 329 274 263 274 m 365 -225 q 551 -135 551 -225 q 520 -77 551 -97 q 421 -46 489 -57 l 254 -19 q 192 -60 215 -35 q 169 -121 169 -86 q 221 -199 169 -174 q 365 -225 272 -225 m 425 1114 l 372 963 l 431 963 l 431 810 l 268 810 l 268 947 l 349 1114 l 425 1114 z "},"ġ":{"ha":694,"x_min":35,"x_max":694,"o":"m 357 -349 q 123 -296 211 -349 q 35 -149 35 -243 q 149 14 35 -46 q 86 107 86 50 q 160 206 86 174 q 77 300 106 242 q 49 431 49 358 q 82 569 49 507 q 178 667 115 631 q 329 703 242 703 q 492 656 424 703 q 559 681 518 671 q 647 690 600 690 l 679 690 l 667 592 l 615 592 q 563 586 589 592 q 611 431 611 521 q 578 292 611 354 q 481 192 544 229 q 329 156 417 156 q 250 167 290 156 q 228 139 228 158 q 249 111 228 122 q 317 94 271 100 l 458 74 q 694 -125 694 40 q 605 -290 694 -231 q 357 -349 515 -349 m 329 274 q 432 316 396 274 q 468 431 468 358 q 432 544 468 503 q 329 586 396 586 q 226 544 263 586 q 190 431 190 501 q 226 316 190 358 q 329 274 263 274 m 365 -225 q 551 -135 551 -225 q 520 -77 551 -97 q 421 -46 489 -57 l 254 -19 q 192 -60 215 -35 q 169 -121 169 -86 q 221 -199 169 -174 q 365 -225 272 -225 m 279 961 l 421 961 l 421 831 l 279 831 l 279 961 z "},"ḡ":{"ha":694,"x_min":35,"x_max":694,"o":"m 357 -349 q 123 -296 211 -349 q 35 -149 35 -243 q 149 14 35 -46 q 86 107 86 50 q 160 206 86 174 q 77 300 106 242 q 49 431 49 358 q 82 569 49 507 q 178 667 115 631 q 329 703 242 703 q 492 656 424 703 q 559 681 518 671 q 647 690 600 690 l 679 690 l 667 592 l 615 592 q 563 586 589 592 q 611 431 611 521 q 578 292 611 354 q 481 192 544 229 q 329 156 417 156 q 250 167 290 156 q 228 139 228 158 q 249 111 228 122 q 317 94 271 100 l 458 74 q 694 -125 694 40 q 605 -290 694 -231 q 357 -349 515 -349 m 329 274 q 432 316 396 274 q 468 431 468 358 q 432 544 468 503 q 329 586 396 586 q 226 544 263 586 q 190 431 190 501 q 226 316 190 358 q 329 274 263 274 m 365 -225 q 551 -135 551 -225 q 520 -77 551 -97 q 421 -46 489 -57 l 254 -19 q 192 -60 215 -35 q 169 -121 169 -86 q 221 -199 169 -174 q 365 -225 272 -225 m 124 936 l 576 936 l 576 829 l 124 829 l 124 936 z "},"h":{"ha":761,"x_min":81,"x_max":686,"o":"m 424 701 q 620 616 554 701 q 686 383 686 531 l 686 0 l 531 0 l 531 369 q 496 522 531 474 q 385 571 461 571 q 236 500 293 571 l 236 0 l 81 0 l 81 1042 l 236 1042 l 236 636 q 322 685 278 668 q 424 701 367 701 z "},"ħ":{"ha":764,"x_min":-17,"x_max":689,"o":"m 431 701 q 626 615 563 701 q 689 378 689 529 l 689 0 l 535 0 l 535 369 q 501 524 535 476 q 390 571 468 571 q 240 500 293 571 l 240 0 l 85 0 l 85 815 l -17 815 l -17 924 l 85 924 l 85 1042 l 240 1042 l 240 924 l 449 924 l 449 815 l 240 815 l 240 635 q 431 701 321 701 z "},"ḫ":{"ha":761,"x_min":81,"x_max":686,"o":"m 424 701 q 620 616 554 701 q 686 383 686 531 l 686 0 l 531 0 l 531 369 q 496 522 531 474 q 385 571 461 571 q 236 500 293 571 l 236 0 l 81 0 l 81 1042 l 236 1042 l 236 636 q 322 685 278 668 q 424 701 367 701 m 382 -314 q 228 -260 285 -314 q 172 -126 172 -206 l 288 -126 q 313 -191 288 -168 q 382 -214 339 -214 q 451 -191 425 -214 q 476 -126 476 -168 l 592 -126 q 535 -260 592 -206 q 382 -314 479 -314 z "},"ĥ":{"ha":761,"x_min":-22,"x_max":686,"o":"m 424 701 q 620 616 554 701 q 686 383 686 531 l 686 0 l 531 0 l 531 369 q 496 522 531 474 q 385 571 461 571 q 236 500 293 571 l 236 0 l 81 0 l 81 1042 l 236 1042 l 236 636 q 322 685 278 668 q 424 701 367 701 m 339 1186 l 339 1089 l 158 1186 l -22 1089 l -22 1186 l 158 1313 l 339 1186 z "},"ḥ":{"ha":761,"x_min":81,"x_max":686,"o":"m 424 701 q 620 616 554 701 q 686 383 686 531 l 686 0 l 531 0 l 531 369 q 496 522 531 474 q 385 571 461 571 q 236 500 293 571 l 236 0 l 81 0 l 81 1042 l 236 1042 l 236 636 q 322 685 278 668 q 424 701 367 701 m 311 -112 l 453 -112 l 453 -243 l 311 -243 l 311 -112 z "},"i":{"ha":319,"x_min":82,"x_max":238,"o":"m 82 972 l 238 972 l 238 813 l 82 813 l 82 972 m 82 689 l 238 689 l 238 0 l 82 0 l 82 689 z "},"ı":{"ha":319,"x_min":82,"x_max":238,"o":"m 82 689 l 238 689 l 238 0 l 82 0 l 82 689 z "},"í":{"ha":319,"x_min":26,"x_max":294,"o":"m 82 689 l 238 689 l 238 0 l 82 0 l 82 689 m 26 896 l 294 1050 l 294 899 l 26 794 l 26 896 z "},"ĭ":{"ha":319,"x_min":-50,"x_max":369,"o":"m 82 689 l 238 689 l 238 0 l 82 0 l 82 689 m 160 810 q 6 864 63 810 q -50 997 -50 918 l 65 997 q 91 933 65 956 q 160 910 117 910 q 228 933 203 910 q 254 997 254 956 l 369 997 q 313 864 369 918 q 160 810 257 810 z "},"î":{"ha":319,"x_min":-21,"x_max":340,"o":"m 82 689 l 238 689 l 238 0 l 82 0 l 82 689 m -21 875 l 160 1029 l 340 875 l 340 775 l 160 889 l -21 775 l -21 875 z "},"ȉ":{"ha":319,"x_min":-135,"x_max":317,"o":"m 82 689 l 238 689 l 238 0 l 82 0 l 82 689 m 13 811 l -135 1053 l 17 1053 l 117 811 l 13 811 m 214 811 l 76 1053 l 226 1053 l 317 811 l 214 811 z "},"ï":{"ha":319,"x_min":-42,"x_max":361,"o":"m 82 689 l 238 689 l 238 0 l 82 0 l 82 689 m -42 940 l 86 940 l 86 821 l -42 821 l -42 940 m 233 940 l 361 940 l 361 821 l 233 821 l 233 940 z "},"ḯ":{"ha":319,"x_min":-42,"x_max":361,"o":"m 82 689 l 238 689 l 238 0 l 82 0 l 82 689 m -42 924 l 86 924 l 86 810 l -42 810 l -42 924 m 233 924 l 361 924 l 361 810 l 233 810 l 233 924 m 26 1078 l 294 1210 l 294 1068 l 26 988 l 26 1078 z "},"ị":{"ha":319,"x_min":82,"x_max":238,"o":"m 82 972 l 238 972 l 238 813 l 82 813 l 82 972 m 82 689 l 238 689 l 238 0 l 82 0 l 82 689 m 89 -112 l 231 -112 l 231 -243 l 89 -243 l 89 -112 z "},"ì":{"ha":319,"x_min":25,"x_max":293,"o":"m 82 689 l 238 689 l 238 0 l 82 0 l 82 689 m 25 899 l 25 1050 l 293 896 l 293 794 l 25 899 z "},"ỉ":{"ha":319,"x_min":28,"x_max":276,"o":"m 82 689 l 238 689 l 238 0 l 82 0 l 82 689 m 132 786 q 178 835 165 817 q 190 876 190 853 q 138 922 190 922 q 51 896 101 922 l 28 976 q 139 1003 81 1003 q 238 970 199 1003 q 276 881 276 938 q 254 806 276 838 q 182 738 232 775 l 132 786 z "},"ȋ":{"ha":319,"x_min":-50,"x_max":369,"o":"m 82 689 l 238 689 l 238 0 l 82 0 l 82 689 m 160 997 q 313 943 257 997 q 369 810 369 889 l 254 810 q 228 874 254 851 q 160 897 203 897 q 91 874 117 897 q 65 810 65 851 l -50 810 q 6 943 -50 889 q 160 997 63 997 z "},"ĳ":{"ha":639,"x_min":82,"x_max":557,"o":"m 82 972 l 238 972 l 238 813 l 82 813 l 82 972 m 82 689 l 238 689 l 238 0 l 82 0 l 82 689 m 401 972 l 557 972 l 557 813 l 401 813 l 401 972 m 311 -211 q 383 -185 365 -210 q 401 -90 401 -160 l 401 689 l 557 689 l 557 -153 q 510 -290 557 -250 q 376 -333 463 -329 l 326 -336 l 311 -211 z "},"ī":{"ha":319,"x_min":-67,"x_max":386,"o":"m 82 689 l 238 689 l 238 0 l 82 0 l 82 689 m -67 936 l 386 936 l 386 829 l -67 829 l -67 936 z "},"į":{"ha":319,"x_min":43,"x_max":304,"o":"m 82 972 l 238 972 l 238 813 l 82 813 l 82 972 m 82 689 l 238 689 l 238 0 l 82 0 l 82 689 m 238 0 q 157 -74 185 -39 q 129 -146 129 -110 q 147 -195 129 -178 q 196 -212 165 -212 q 281 -190 239 -212 l 304 -264 q 185 -292 251 -292 q 83 -260 124 -292 q 43 -171 43 -228 q 76 -76 43 -121 q 156 0 110 -31 l 238 0 z "},"ĩ":{"ha":319,"x_min":-75,"x_max":394,"o":"m 82 689 l 238 689 l 238 0 l 82 0 l 82 689 m 275 804 q 227 813 251 804 q 172 838 203 822 q 123 859 143 851 q 85 867 103 867 q 50 853 63 867 q 38 815 38 839 l -75 815 q -42 936 -72 894 q 44 978 -11 978 q 92 969 68 978 q 147 944 117 960 q 197 923 176 931 q 235 915 217 915 q 269 929 257 915 q 282 967 282 943 l 394 967 q 361 846 392 888 q 275 804 331 804 z "},"j":{"ha":319,"x_min":-8,"x_max":238,"o":"m 82 972 l 238 972 l 238 813 l 82 813 l 82 972 m -8 -211 q 64 -185 46 -210 q 82 -90 82 -160 l 82 689 l 238 689 l 238 -153 q 190 -290 238 -250 q 57 -333 143 -329 l 7 -336 l -8 -211 z "},"ȷ":{"ha":319,"x_min":-8,"x_max":238,"o":"m -8 -211 q 51 -202 33 -210 q 76 -171 69 -194 q 82 -90 82 -147 l 82 689 l 238 689 l 238 -153 q 190 -283 238 -235 q 63 -333 142 -331 l 7 -336 l -8 -211 z "},"ĵ":{"ha":319,"x_min":-21,"x_max":340,"o":"m -8 -211 q 51 -202 33 -210 q 76 -171 69 -194 q 82 -90 82 -147 l 82 689 l 238 689 l 238 -153 q 190 -283 238 -235 q 63 -333 142 -331 l 7 -336 l -8 -211 m -21 875 l 160 1029 l 340 875 l 340 775 l 160 889 l -21 775 l -21 875 z "},"k":{"ha":656,"x_min":81,"x_max":649,"o":"m 81 1042 l 236 1042 l 236 397 l 464 689 l 643 689 l 383 363 l 649 0 l 469 0 l 236 322 l 236 0 l 81 0 l 81 1042 z "},"ķ":{"ha":656,"x_min":81,"x_max":649,"o":"m 81 1042 l 236 1042 l 236 397 l 464 689 l 643 689 l 383 363 l 649 0 l 469 0 l 236 322 l 236 0 l 81 0 l 81 1042 m 279 -431 l 332 -279 l 274 -279 l 274 -126 l 436 -126 l 436 -264 l 356 -431 l 279 -431 z "},"ĸ":{"ha":711,"x_min":82,"x_max":703,"o":"m 82 689 l 238 689 l 238 390 l 521 689 l 700 689 l 369 358 l 703 0 l 522 0 l 238 315 l 238 0 l 82 0 l 82 689 z "},"l":{"ha":351,"x_min":82,"x_max":329,"o":"m 258 -14 q 126 35 169 -14 q 82 161 82 85 l 82 1042 l 236 1042 l 236 233 q 243 151 236 175 q 268 119 250 126 q 329 113 286 113 l 314 -14 l 258 -14 z "},"ĺ":{"ha":351,"x_min":26,"x_max":329,"o":"m 258 -14 q 126 35 169 -14 q 82 161 82 85 l 82 1042 l 236 1042 l 236 233 q 243 151 236 175 q 268 119 250 126 q 329 113 286 113 l 314 -14 l 258 -14 m 26 1217 l 294 1349 l 294 1207 l 26 1126 l 26 1217 z "},"ľ":{"ha":417,"x_min":82,"x_max":436,"o":"m 258 -14 q 126 35 169 -14 q 82 161 82 85 l 82 1042 l 236 1042 l 236 233 q 243 151 236 175 q 268 119 250 126 q 329 113 286 113 l 314 -14 l 258 -14 m 301 1042 l 436 1042 l 397 801 l 301 801 l 301 1042 z "},"ļ":{"ha":351,"x_min":82,"x_max":329,"o":"m 258 -14 q 126 35 169 -14 q 82 161 82 85 l 82 1042 l 236 1042 l 236 233 q 243 151 236 175 q 268 119 250 126 q 329 113 286 113 l 314 -14 l 258 -14 m 144 -431 l 197 -279 l 139 -279 l 139 -126 l 301 -126 l 301 -264 l 221 -431 l 144 -431 z "},"ŀ":{"ha":428,"x_min":82,"x_max":442,"o":"m 258 -14 q 126 35 169 -14 q 82 161 82 85 l 82 1042 l 236 1042 l 236 233 q 243 151 236 175 q 268 119 250 126 q 329 113 286 113 l 314 -14 l 258 -14 m 304 653 l 442 653 l 442 500 l 304 500 l 304 653 z "},"ḷ":{"ha":351,"x_min":82,"x_max":329,"o":"m 258 -14 q 126 35 169 -14 q 82 161 82 85 l 82 1042 l 236 1042 l 236 233 q 243 151 236 175 q 268 119 250 126 q 329 113 286 113 l 314 -14 l 258 -14 m 147 -112 l 289 -112 l 289 -243 l 147 -243 l 147 -112 z "},"ǉ":{"ha":671,"x_min":82,"x_max":589,"o":"m 258 -14 q 126 35 169 -14 q 82 161 82 85 l 82 1042 l 236 1042 l 236 233 q 243 151 236 175 q 268 119 250 126 q 329 113 286 113 l 314 -14 l 258 -14 m 433 972 l 589 972 l 589 813 l 433 813 l 433 972 m 343 -211 q 415 -185 397 -210 q 433 -90 433 -160 l 433 689 l 589 689 l 589 -153 q 542 -290 589 -250 q 408 -333 494 -329 l 358 -336 l 343 -211 z "},"ḻ":{"ha":351,"x_min":-8,"x_max":444,"o":"m 258 -14 q 126 35 169 -14 q 82 161 82 85 l 82 1042 l 236 1042 l 236 233 q 243 151 236 175 q 268 119 250 126 q 329 113 286 113 l 314 -14 l 258 -14 m -8 -126 l 444 -126 l 444 -233 l -8 -233 l -8 -126 z "},"ł":{"ha":346,"x_min":-22,"x_max":335,"o":"m 224 600 l 224 233 q 231 151 224 175 q 256 119 238 126 q 317 113 274 113 l 301 -14 l 246 -14 q 113 35 157 -14 q 69 161 69 85 l 69 560 l -22 536 l -22 647 l 69 671 l 69 1042 l 224 1042 l 224 711 l 335 740 l 335 629 l 224 600 z "},"m":{"ha":1211,"x_min":82,"x_max":1136,"o":"m 867 701 q 1069 622 1003 701 q 1136 392 1136 542 l 1136 0 l 981 0 l 981 383 q 948 526 981 481 q 840 571 915 571 q 722 521 758 571 q 686 389 686 471 l 686 0 l 532 0 l 532 374 q 497 525 532 479 q 389 571 461 571 q 238 501 290 571 l 238 0 l 82 0 l 82 689 l 211 689 l 221 628 q 428 701 313 701 q 635 592 569 701 q 730 673 671 644 q 867 701 789 701 z "},"ṃ":{"ha":1211,"x_min":82,"x_max":1136,"o":"m 867 701 q 1069 622 1003 701 q 1136 392 1136 542 l 1136 0 l 981 0 l 981 383 q 948 526 981 481 q 840 571 915 571 q 722 521 758 571 q 686 389 686 471 l 686 0 l 532 0 l 532 374 q 497 525 532 479 q 389 571 461 571 q 238 501 290 571 l 238 0 l 82 0 l 82 689 l 211 689 l 221 628 q 428 701 313 701 q 635 592 569 701 q 730 673 671 644 q 867 701 789 701 m 538 -112 l 679 -112 l 679 -243 l 538 -243 l 538 -112 z "},"n":{"ha":771,"x_min":82,"x_max":694,"o":"m 82 689 l 219 689 l 226 632 q 426 701 314 701 q 628 617 561 701 q 694 383 694 532 l 694 0 l 540 0 l 540 374 q 505 524 540 476 q 388 571 469 571 q 238 500 285 571 l 238 0 l 82 0 l 82 689 z "},"ń":{"ha":771,"x_min":82,"x_max":694,"o":"m 82 689 l 219 689 l 226 632 q 426 701 314 701 q 628 617 561 701 q 694 383 694 532 l 694 0 l 540 0 l 540 374 q 505 524 540 476 q 388 571 469 571 q 238 500 285 571 l 238 0 l 82 0 l 82 689 m 274 888 l 542 1042 l 542 890 l 274 786 l 274 888 z "},"ŉ":{"ha":968,"x_min":65,"x_max":892,"o":"m 71 668 l 124 819 l 65 819 l 65 972 l 228 972 l 228 835 l 147 668 l 71 668 m 279 689 l 417 689 l 424 632 q 624 701 511 701 q 825 617 758 701 q 892 383 892 532 l 892 0 l 738 0 l 738 374 q 702 524 738 476 q 585 571 667 571 q 435 500 482 571 l 435 0 l 279 0 l 279 689 z "},"ň":{"ha":771,"x_min":82,"x_max":694,"o":"m 82 689 l 219 689 l 226 632 q 426 701 314 701 q 628 617 561 701 q 694 383 694 532 l 694 0 l 540 0 l 540 374 q 505 524 540 476 q 388 571 469 571 q 238 500 285 571 l 238 0 l 82 0 l 82 689 m 226 922 l 226 1022 l 407 908 l 588 1022 l 588 922 l 407 768 l 226 922 z "},"ņ":{"ha":771,"x_min":82,"x_max":694,"o":"m 82 689 l 219 689 l 226 632 q 426 701 314 701 q 628 617 561 701 q 694 383 694 532 l 694 0 l 540 0 l 540 374 q 505 524 540 476 q 388 571 469 571 q 238 500 285 571 l 238 0 l 82 0 l 82 689 m 315 -431 l 368 -279 l 310 -279 l 310 -126 l 472 -126 l 472 -264 l 392 -431 l 315 -431 z "},"ṅ":{"ha":771,"x_min":82,"x_max":694,"o":"m 82 689 l 219 689 l 226 632 q 426 701 314 701 q 628 617 561 701 q 694 383 694 532 l 694 0 l 540 0 l 540 374 q 505 524 540 476 q 388 571 469 571 q 238 500 285 571 l 238 0 l 82 0 l 82 689 m 336 953 l 478 953 l 478 822 l 336 822 l 336 953 z "},"ṇ":{"ha":771,"x_min":82,"x_max":694,"o":"m 82 689 l 219 689 l 226 632 q 426 701 314 701 q 628 617 561 701 q 694 383 694 532 l 694 0 l 540 0 l 540 374 q 505 524 540 476 q 388 571 469 571 q 238 500 285 571 l 238 0 l 82 0 l 82 689 m 318 -112 l 460 -112 l 460 -243 l 318 -243 l 318 -112 z "},"ŋ":{"ha":771,"x_min":82,"x_max":694,"o":"m 694 28 q 617 -178 694 -107 q 408 -249 539 -249 q 296 -233 350 -249 l 314 -106 q 410 -118 360 -118 q 505 -85 469 -118 q 540 14 540 -51 l 540 374 q 505 524 540 476 q 388 571 469 571 q 238 500 285 571 l 238 0 l 82 0 l 82 689 l 219 689 l 226 632 q 426 701 314 701 q 628 617 561 701 q 694 383 694 532 l 694 28 z "},"ǌ":{"ha":1090,"x_min":82,"x_max":1008,"o":"m 82 689 l 219 689 l 226 632 q 426 701 314 701 q 628 617 561 701 q 694 383 694 532 l 694 0 l 540 0 l 540 374 q 505 524 540 476 q 388 571 469 571 q 238 500 285 571 l 238 0 l 82 0 l 82 689 m 853 972 l 1008 972 l 1008 813 l 853 813 l 853 972 m 763 -211 q 835 -185 817 -210 q 853 -90 853 -160 l 853 689 l 1008 689 l 1008 -153 q 961 -290 1008 -250 q 828 -333 914 -329 l 778 -336 l 763 -211 z "},"ṉ":{"ha":771,"x_min":82,"x_max":694,"o":"m 82 689 l 219 689 l 226 632 q 426 701 314 701 q 628 617 561 701 q 694 383 694 532 l 694 0 l 540 0 l 540 374 q 505 524 540 476 q 388 571 469 571 q 238 500 285 571 l 238 0 l 82 0 l 82 689 m 163 -126 l 615 -126 l 615 -233 l 163 -233 l 163 -126 z "},"ñ":{"ha":771,"x_min":82,"x_max":694,"o":"m 82 689 l 219 689 l 226 632 q 426 701 314 701 q 628 617 561 701 q 694 383 694 532 l 694 0 l 540 0 l 540 374 q 505 524 540 476 q 388 571 469 571 q 238 500 285 571 l 238 0 l 82 0 l 82 689 m 522 796 q 474 805 499 796 q 419 829 450 814 q 370 851 390 843 q 332 858 350 858 q 297 844 310 858 q 285 807 285 831 l 172 807 q 206 928 175 886 q 292 969 236 969 q 340 960 315 969 q 394 936 364 951 q 444 915 424 922 q 482 907 464 907 q 517 921 504 907 q 529 958 529 935 l 642 958 q 608 838 639 879 q 522 796 578 796 z "},"o":{"ha":782,"x_min":40,"x_max":740,"o":"m 390 -14 q 204 34 283 -14 q 83 164 125 82 q 40 344 40 246 q 83 525 40 443 q 204 655 125 607 q 390 703 283 703 q 578 655 499 703 q 699 525 657 607 q 740 344 740 443 q 699 164 740 246 q 578 34 657 82 q 390 -14 499 -14 m 390 117 q 531 178 481 117 q 582 344 582 239 q 531 510 582 449 q 390 572 481 572 q 250 510 300 572 q 200 344 200 449 q 250 178 200 239 q 390 117 300 117 z "},"ó":{"ha":782,"x_min":40,"x_max":740,"o":"m 390 -14 q 204 34 283 -14 q 83 164 125 82 q 40 344 40 246 q 83 525 40 443 q 204 655 125 607 q 390 703 283 703 q 578 655 499 703 q 699 525 657 607 q 740 344 740 443 q 699 164 740 246 q 578 34 657 82 q 390 -14 499 -14 m 390 117 q 531 178 481 117 q 582 344 582 239 q 531 510 582 449 q 390 572 481 572 q 250 510 300 572 q 200 344 200 449 q 250 178 200 239 q 390 117 300 117 m 257 896 l 525 1050 l 525 899 l 257 794 l 257 896 z "},"ŏ":{"ha":782,"x_min":40,"x_max":740,"o":"m 390 -14 q 204 34 283 -14 q 83 164 125 82 q 40 344 40 246 q 83 525 40 443 q 204 655 125 607 q 390 703 283 703 q 578 655 499 703 q 699 525 657 607 q 740 344 740 443 q 699 164 740 246 q 578 34 657 82 q 390 -14 499 -14 m 390 117 q 531 178 481 117 q 582 344 582 239 q 531 510 582 449 q 390 572 481 572 q 250 510 300 572 q 200 344 200 449 q 250 178 200 239 q 390 117 300 117 m 390 810 q 237 864 293 810 q 181 997 181 918 l 296 997 q 322 933 296 956 q 390 910 347 910 q 459 933 433 910 q 485 997 485 956 l 600 997 q 544 864 600 918 q 390 810 488 810 z "},"ô":{"ha":782,"x_min":40,"x_max":740,"o":"m 390 -14 q 204 34 283 -14 q 83 164 125 82 q 40 344 40 246 q 83 525 40 443 q 204 655 125 607 q 390 703 283 703 q 578 655 499 703 q 699 525 657 607 q 740 344 740 443 q 699 164 740 246 q 578 34 657 82 q 390 -14 499 -14 m 390 117 q 531 178 481 117 q 582 344 582 239 q 531 510 582 449 q 390 572 481 572 q 250 510 300 572 q 200 344 200 449 q 250 178 200 239 q 390 117 300 117 m 210 875 l 390 1029 l 571 875 l 571 775 l 390 889 l 210 775 l 210 875 z "},"ố":{"ha":782,"x_min":40,"x_max":740,"o":"m 390 -14 q 204 34 283 -14 q 83 164 125 82 q 40 344 40 246 q 83 525 40 443 q 204 655 125 607 q 390 703 283 703 q 578 655 499 703 q 699 525 657 607 q 740 344 740 443 q 699 164 740 246 q 578 34 657 82 q 390 -14 499 -14 m 390 117 q 531 178 481 117 q 582 344 582 239 q 531 510 582 449 q 390 572 481 572 q 250 510 300 572 q 200 344 200 449 q 250 178 200 239 q 390 117 300 117 m 588 1143 l 738 1143 l 599 972 l 496 972 l 588 1143 m 571 861 l 571 764 l 390 861 l 210 764 l 210 861 l 390 988 l 571 861 z "},"ộ":{"ha":782,"x_min":40,"x_max":740,"o":"m 390 -14 q 204 34 283 -14 q 83 164 125 82 q 40 344 40 246 q 83 525 40 443 q 204 655 125 607 q 390 703 283 703 q 578 655 499 703 q 699 525 657 607 q 740 344 740 443 q 699 164 740 246 q 578 34 657 82 q 390 -14 499 -14 m 390 117 q 531 178 481 117 q 582 344 582 239 q 531 510 582 449 q 390 572 481 572 q 250 510 300 572 q 200 344 200 449 q 250 178 200 239 q 390 117 300 117 m 210 875 l 390 1029 l 571 875 l 571 775 l 390 889 l 210 775 l 210 875 m 319 -112 l 461 -112 l 461 -243 l 319 -243 l 319 -112 z "},"ồ":{"ha":782,"x_min":40,"x_max":740,"o":"m 390 -14 q 204 34 283 -14 q 83 164 125 82 q 40 344 40 246 q 83 525 40 443 q 204 655 125 607 q 390 703 283 703 q 578 655 499 703 q 699 525 657 607 q 740 344 740 443 q 699 164 740 246 q 578 34 657 82 q 390 -14 499 -14 m 390 117 q 531 178 481 117 q 582 344 582 239 q 531 510 582 449 q 390 572 481 572 q 250 510 300 572 q 200 344 200 449 q 250 178 200 239 q 390 117 300 117 m 522 972 l 406 1143 l 549 1143 l 621 972 l 522 972 m 571 861 l 571 764 l 390 861 l 210 764 l 210 861 l 390 988 l 571 861 z "},"ổ":{"ha":782,"x_min":40,"x_max":740,"o":"m 390 -14 q 204 34 283 -14 q 83 164 125 82 q 40 344 40 246 q 83 525 40 443 q 204 655 125 607 q 390 703 283 703 q 578 655 499 703 q 699 525 657 607 q 740 344 740 443 q 699 164 740 246 q 578 34 657 82 q 390 -14 499 -14 m 390 117 q 531 178 481 117 q 582 344 582 239 q 531 510 582 449 q 390 572 481 572 q 250 510 300 572 q 200 344 200 449 q 250 178 200 239 q 390 117 300 117 m 571 853 l 571 756 l 390 853 l 210 756 l 210 853 l 390 979 l 571 853 m 510 988 q 548 1006 536 994 q 560 1038 560 1018 q 507 1078 560 1078 q 421 1051 471 1078 l 397 1132 q 508 1158 450 1158 q 607 1128 568 1158 q 646 1046 646 1099 q 617 970 646 999 q 524 928 588 942 l 510 988 z "},"ỗ":{"ha":782,"x_min":40,"x_max":740,"o":"m 390 -14 q 204 34 283 -14 q 83 164 125 82 q 40 344 40 246 q 83 525 40 443 q 204 655 125 607 q 390 703 283 703 q 578 655 499 703 q 699 525 657 607 q 740 344 740 443 q 699 164 740 246 q 578 34 657 82 q 390 -14 499 -14 m 390 117 q 531 178 481 117 q 582 344 582 239 q 531 510 582 449 q 390 572 481 572 q 250 510 300 572 q 200 344 200 449 q 250 178 200 239 q 390 117 300 117 m 571 853 l 571 756 l 390 853 l 210 756 l 210 853 l 390 979 l 571 853 m 510 1032 q 465 1040 488 1032 q 403 1064 442 1047 q 366 1078 396 1067 q 315 1090 336 1090 q 281 1078 293 1090 q 268 1042 268 1065 l 168 1042 q 194 1148 168 1111 q 271 1185 219 1185 q 316 1177 293 1185 q 378 1153 339 1169 q 415 1138 385 1150 q 465 1126 444 1126 q 500 1139 488 1126 q 513 1176 513 1151 l 613 1176 q 587 1069 613 1106 q 510 1032 561 1032 z "},"ȍ":{"ha":782,"x_min":40,"x_max":740,"o":"m 390 -14 q 204 34 283 -14 q 83 164 125 82 q 40 344 40 246 q 83 525 40 443 q 204 655 125 607 q 390 703 283 703 q 578 655 499 703 q 699 525 657 607 q 740 344 740 443 q 699 164 740 246 q 578 34 657 82 q 390 -14 499 -14 m 390 117 q 531 178 481 117 q 582 344 582 239 q 531 510 582 449 q 390 572 481 572 q 250 510 300 572 q 200 344 200 449 q 250 178 200 239 q 390 117 300 117 m 243 811 l 96 1053 l 247 1053 l 347 811 l 243 811 m 444 811 l 307 1053 l 457 1053 l 547 811 l 444 811 z "},"ö":{"ha":782,"x_min":40,"x_max":740,"o":"m 390 -14 q 204 34 283 -14 q 83 164 125 82 q 40 344 40 246 q 83 525 40 443 q 204 655 125 607 q 390 703 283 703 q 578 655 499 703 q 699 525 657 607 q 740 344 740 443 q 699 164 740 246 q 578 34 657 82 q 390 -14 499 -14 m 390 117 q 531 178 481 117 q 582 344 582 239 q 531 510 582 449 q 390 572 481 572 q 250 510 300 572 q 200 344 200 449 q 250 178 200 239 q 390 117 300 117 m 189 940 l 317 940 l 317 821 l 189 821 l 189 940 m 464 940 l 592 940 l 592 821 l 464 821 l 464 940 z "},"ȫ":{"ha":782,"x_min":40,"x_max":740,"o":"m 390 -14 q 204 34 283 -14 q 83 164 125 82 q 40 344 40 246 q 83 525 40 443 q 204 655 125 607 q 390 703 283 703 q 578 655 499 703 q 699 525 657 607 q 740 344 740 443 q 699 164 740 246 q 578 34 657 82 q 390 -14 499 -14 m 390 117 q 531 178 481 117 q 582 344 582 239 q 531 510 582 449 q 390 572 481 572 q 250 510 300 572 q 200 344 200 449 q 250 178 200 239 q 390 117 300 117 m 189 924 l 317 924 l 317 810 l 189 810 l 189 924 m 464 924 l 592 924 l 592 810 l 464 810 l 464 924 m 164 1133 l 617 1133 l 617 1032 l 164 1032 l 164 1133 z "},"ȱ":{"ha":782,"x_min":40,"x_max":740,"o":"m 390 -14 q 204 34 283 -14 q 83 164 125 82 q 40 344 40 246 q 83 525 40 443 q 204 655 125 607 q 390 703 283 703 q 578 655 499 703 q 699 525 657 607 q 740 344 740 443 q 699 164 740 246 q 578 34 657 82 q 390 -14 499 -14 m 390 117 q 531 178 481 117 q 582 344 582 239 q 531 510 582 449 q 390 572 481 572 q 250 510 300 572 q 200 344 200 449 q 250 178 200 239 q 390 117 300 117 m 319 947 l 461 947 l 461 817 l 319 817 l 319 947 m 164 1163 l 617 1163 l 617 1061 l 164 1061 l 164 1163 z "},"ọ":{"ha":782,"x_min":40,"x_max":740,"o":"m 390 -14 q 204 34 283 -14 q 83 164 125 82 q 40 344 40 246 q 83 525 40 443 q 204 655 125 607 q 390 703 283 703 q 578 655 499 703 q 699 525 657 607 q 740 344 740 443 q 699 164 740 246 q 578 34 657 82 q 390 -14 499 -14 m 390 117 q 531 178 481 117 q 582 344 582 239 q 531 510 582 449 q 390 572 481 572 q 250 510 300 572 q 200 344 200 449 q 250 178 200 239 q 390 117 300 117 m 319 -112 l 461 -112 l 461 -243 l 319 -243 l 319 -112 z "},"ò":{"ha":782,"x_min":40,"x_max":740,"o":"m 390 -14 q 204 34 283 -14 q 83 164 125 82 q 40 344 40 246 q 83 525 40 443 q 204 655 125 607 q 390 703 283 703 q 578 655 499 703 q 699 525 657 607 q 740 344 740 443 q 699 164 740 246 q 578 34 657 82 q 390 -14 499 -14 m 390 117 q 531 178 481 117 q 582 344 582 239 q 531 510 582 449 q 390 572 481 572 q 250 510 300 572 q 200 344 200 449 q 250 178 200 239 q 390 117 300 117 m 256 899 l 256 1050 l 524 896 l 524 794 l 256 899 z "},"ỏ":{"ha":782,"x_min":40,"x_max":740,"o":"m 390 -14 q 204 34 283 -14 q 83 164 125 82 q 40 344 40 246 q 83 525 40 443 q 204 655 125 607 q 390 703 283 703 q 578 655 499 703 q 699 525 657 607 q 740 344 740 443 q 699 164 740 246 q 578 34 657 82 q 390 -14 499 -14 m 390 117 q 531 178 481 117 q 582 344 582 239 q 531 510 582 449 q 390 572 481 572 q 250 510 300 572 q 200 344 200 449 q 250 178 200 239 q 390 117 300 117 m 363 786 q 408 835 396 817 q 421 876 421 853 q 368 922 421 922 q 282 896 332 922 l 258 976 q 369 1003 311 1003 q 468 970 429 1003 q 507 881 507 938 q 485 806 507 838 q 413 738 463 775 l 363 786 z "},"ơ":{"ha":782,"x_min":40,"x_max":740,"o":"m 625 619 q 710 499 681 571 q 740 344 740 428 q 699 164 740 246 q 578 34 657 82 q 390 -14 499 -14 q 204 34 283 -14 q 83 164 125 82 q 40 344 40 246 q 83 525 40 443 q 204 655 125 607 q 390 703 283 703 q 496 689 450 703 q 593 792 593 696 l 731 792 q 702 693 731 738 q 625 619 674 649 m 390 117 q 531 178 481 117 q 582 344 582 239 q 531 510 582 449 q 390 572 481 572 q 250 510 300 572 q 200 344 200 449 q 250 178 200 239 q 390 117 300 117 z "},"ớ":{"ha":782,"x_min":40,"x_max":740,"o":"m 625 619 q 710 499 681 571 q 740 344 740 428 q 699 164 740 246 q 578 34 657 82 q 390 -14 499 -14 q 204 34 283 -14 q 83 164 125 82 q 40 344 40 246 q 83 525 40 443 q 204 655 125 607 q 390 703 283 703 q 496 689 450 703 q 593 792 593 696 l 731 792 q 702 693 731 738 q 625 619 674 649 m 390 117 q 531 178 481 117 q 582 344 582 239 q 531 510 582 449 q 390 572 481 572 q 250 510 300 572 q 200 344 200 449 q 250 178 200 239 q 390 117 300 117 m 257 896 l 525 1050 l 525 899 l 257 794 l 257 896 z "},"ợ":{"ha":782,"x_min":40,"x_max":740,"o":"m 625 619 q 710 499 681 571 q 740 344 740 428 q 699 164 740 246 q 578 34 657 82 q 390 -14 499 -14 q 204 34 283 -14 q 83 164 125 82 q 40 344 40 246 q 83 525 40 443 q 204 655 125 607 q 390 703 283 703 q 496 689 450 703 q 593 792 593 696 l 731 792 q 702 693 731 738 q 625 619 674 649 m 390 117 q 531 178 481 117 q 582 344 582 239 q 531 510 582 449 q 390 572 481 572 q 250 510 300 572 q 200 344 200 449 q 250 178 200 239 q 390 117 300 117 m 319 -112 l 461 -112 l 461 -243 l 319 -243 l 319 -112 z "},"ờ":{"ha":782,"x_min":40,"x_max":740,"o":"m 625 619 q 710 499 681 571 q 740 344 740 428 q 699 164 740 246 q 578 34 657 82 q 390 -14 499 -14 q 204 34 283 -14 q 83 164 125 82 q 40 344 40 246 q 83 525 40 443 q 204 655 125 607 q 390 703 283 703 q 496 689 450 703 q 593 792 593 696 l 731 792 q 702 693 731 738 q 625 619 674 649 m 390 117 q 531 178 481 117 q 582 344 582 239 q 531 510 582 449 q 390 572 481 572 q 250 510 300 572 q 200 344 200 449 q 250 178 200 239 q 390 117 300 117 m 256 899 l 256 1050 l 524 896 l 524 794 l 256 899 z "},"ở":{"ha":782,"x_min":40,"x_max":740,"o":"m 625 619 q 710 499 681 571 q 740 344 740 428 q 699 164 740 246 q 578 34 657 82 q 390 -14 499 -14 q 204 34 283 -14 q 83 164 125 82 q 40 344 40 246 q 83 525 40 443 q 204 655 125 607 q 390 703 283 703 q 496 689 450 703 q 593 792 593 696 l 731 792 q 702 693 731 738 q 625 619 674 649 m 390 117 q 531 178 481 117 q 582 344 582 239 q 531 510 582 449 q 390 572 481 572 q 250 510 300 572 q 200 344 200 449 q 250 178 200 239 q 390 117 300 117 m 363 786 q 408 835 396 817 q 421 876 421 853 q 368 922 421 922 q 282 896 332 922 l 258 976 q 369 1003 311 1003 q 468 970 429 1003 q 507 881 507 938 q 485 806 507 838 q 413 738 463 775 l 363 786 z "},"ỡ":{"ha":782,"x_min":40,"x_max":740,"o":"m 625 619 q 710 499 681 571 q 740 344 740 428 q 699 164 740 246 q 578 34 657 82 q 390 -14 499 -14 q 204 34 283 -14 q 83 164 125 82 q 40 344 40 246 q 83 525 40 443 q 204 655 125 607 q 390 703 283 703 q 496 689 450 703 q 593 792 593 696 l 731 792 q 702 693 731 738 q 625 619 674 649 m 390 117 q 531 178 481 117 q 582 344 582 239 q 531 510 582 449 q 390 572 481 572 q 250 510 300 572 q 200 344 200 449 q 250 178 200 239 q 390 117 300 117 m 506 804 q 458 813 482 804 q 403 838 433 822 q 353 859 374 851 q 315 867 333 867 q 281 853 293 867 q 268 815 268 839 l 156 815 q 189 936 158 894 q 275 978 219 978 q 323 969 299 978 q 378 944 347 960 q 427 923 407 931 q 465 915 447 915 q 500 929 488 915 q 513 967 513 943 l 625 967 q 592 846 622 888 q 506 804 561 804 z "},"ő":{"ha":782,"x_min":40,"x_max":740,"o":"m 390 -14 q 204 34 283 -14 q 83 164 125 82 q 40 344 40 246 q 83 525 40 443 q 204 655 125 607 q 390 703 283 703 q 578 655 499 703 q 699 525 657 607 q 740 344 740 443 q 699 164 740 246 q 578 34 657 82 q 390 -14 499 -14 m 390 117 q 531 178 481 117 q 582 344 582 239 q 531 510 582 449 q 390 572 481 572 q 250 510 300 572 q 200 344 200 449 q 250 178 200 239 q 390 117 300 117 m 340 1053 l 492 1053 l 338 811 l 233 811 l 340 1053 m 550 1053 l 701 1053 l 538 811 l 435 811 l 550 1053 z "},"ȏ":{"ha":782,"x_min":40,"x_max":740,"o":"m 390 -14 q 204 34 283 -14 q 83 164 125 82 q 40 344 40 246 q 83 525 40 443 q 204 655 125 607 q 390 703 283 703 q 578 655 499 703 q 699 525 657 607 q 740 344 740 443 q 699 164 740 246 q 578 34 657 82 q 390 -14 499 -14 m 390 117 q 531 178 481 117 q 582 344 582 239 q 531 510 582 449 q 390 572 481 572 q 250 510 300 572 q 200 344 200 449 q 250 178 200 239 q 390 117 300 117 m 390 997 q 544 943 488 997 q 600 810 600 889 l 485 810 q 459 874 485 851 q 390 897 433 897 q 322 874 347 897 q 296 810 296 851 l 181 810 q 237 943 181 889 q 390 997 293 997 z "},"ō":{"ha":782,"x_min":40,"x_max":740,"o":"m 390 -14 q 204 34 283 -14 q 83 164 125 82 q 40 344 40 246 q 83 525 40 443 q 204 655 125 607 q 390 703 283 703 q 578 655 499 703 q 699 525 657 607 q 740 344 740 443 q 699 164 740 246 q 578 34 657 82 q 390 -14 499 -14 m 390 117 q 531 178 481 117 q 582 344 582 239 q 531 510 582 449 q 390 572 481 572 q 250 510 300 572 q 200 344 200 449 q 250 178 200 239 q 390 117 300 117 m 164 936 l 617 936 l 617 829 l 164 829 l 164 936 z "},"ṓ":{"ha":782,"x_min":40,"x_max":740,"o":"m 390 -14 q 204 34 283 -14 q 83 164 125 82 q 40 344 40 246 q 83 525 40 443 q 204 655 125 607 q 390 703 283 703 q 578 655 499 703 q 699 525 657 607 q 740 344 740 443 q 699 164 740 246 q 578 34 657 82 q 390 -14 499 -14 m 390 117 q 531 178 481 117 q 582 344 582 239 q 531 510 582 449 q 390 572 481 572 q 250 510 300 572 q 200 344 200 449 q 250 178 200 239 q 390 117 300 117 m 164 919 l 617 919 l 617 818 l 164 818 l 164 919 m 257 1103 l 525 1235 l 525 1093 l 257 1013 l 257 1103 z "},"ṑ":{"ha":782,"x_min":40,"x_max":740,"o":"m 390 -14 q 204 34 283 -14 q 83 164 125 82 q 40 344 40 246 q 83 525 40 443 q 204 655 125 607 q 390 703 283 703 q 578 655 499 703 q 699 525 657 607 q 740 344 740 443 q 699 164 740 246 q 578 34 657 82 q 390 -14 499 -14 m 390 117 q 531 178 481 117 q 582 344 582 239 q 531 510 582 449 q 390 572 481 572 q 250 510 300 572 q 200 344 200 449 q 250 178 200 239 q 390 117 300 117 m 164 919 l 617 919 l 617 818 l 164 818 l 164 919 m 256 1093 l 256 1235 l 524 1103 l 524 1013 l 256 1093 z "},"ǫ":{"ha":782,"x_min":40,"x_max":740,"o":"m 489 -3 q 410 -75 438 -40 q 383 -146 383 -110 q 401 -195 383 -178 q 450 -212 419 -212 q 535 -190 493 -212 l 558 -264 q 439 -292 506 -292 q 338 -260 378 -292 q 297 -171 297 -228 q 324 -85 297 -125 q 390 -14 350 -44 q 204 34 283 -14 q 83 164 125 82 q 40 344 40 246 q 83 525 40 443 q 204 655 125 607 q 390 703 283 703 q 578 655 499 703 q 699 525 657 607 q 740 344 740 443 q 674 123 740 218 q 489 -3 607 28 m 200 344 q 250 178 200 239 q 390 117 300 117 q 531 178 481 117 q 582 344 582 239 q 531 510 582 449 q 390 572 481 572 q 250 510 300 572 q 200 344 200 449 z "},"ø":{"ha":782,"x_min":40,"x_max":740,"o":"m 629 617 q 712 497 683 567 q 740 344 740 426 q 699 164 740 246 q 578 34 657 82 q 390 -14 499 -14 q 239 17 307 -14 l 192 -56 l 75 -56 l 156 69 q 70 190 100 118 q 40 344 40 261 q 83 525 40 443 q 204 655 125 607 q 390 703 283 703 q 547 671 476 703 l 589 736 l 707 736 l 629 617 m 200 344 q 238 194 200 253 l 472 556 q 390 572 438 572 q 250 510 300 572 q 200 344 200 449 m 390 117 q 531 178 481 117 q 582 344 582 239 q 546 489 582 432 l 313 131 q 390 117 351 117 z "},"ǿ":{"ha":782,"x_min":40,"x_max":740,"o":"m 629 617 q 712 497 683 567 q 740 344 740 426 q 699 164 740 246 q 578 34 657 82 q 390 -14 499 -14 q 239 17 307 -14 l 192 -56 l 75 -56 l 156 69 q 70 190 100 118 q 40 344 40 261 q 83 525 40 443 q 204 655 125 607 q 390 703 283 703 q 547 671 476 703 l 589 736 l 707 736 l 629 617 m 200 344 q 238 194 200 253 l 472 556 q 390 572 438 572 q 250 510 300 572 q 200 344 200 449 m 390 117 q 531 178 481 117 q 582 344 582 239 q 546 489 582 432 l 313 131 q 390 117 351 117 m 257 896 l 525 1050 l 525 899 l 257 794 l 257 896 z "},"õ":{"ha":782,"x_min":40,"x_max":740,"o":"m 390 -14 q 204 34 283 -14 q 83 164 125 82 q 40 344 40 246 q 83 525 40 443 q 204 655 125 607 q 390 703 283 703 q 578 655 499 703 q 699 525 657 607 q 740 344 740 443 q 699 164 740 246 q 578 34 657 82 q 390 -14 499 -14 m 390 117 q 531 178 481 117 q 582 344 582 239 q 531 510 582 449 q 390 572 481 572 q 250 510 300 572 q 200 344 200 449 q 250 178 200 239 q 390 117 300 117 m 506 804 q 458 813 482 804 q 403 838 433 822 q 353 859 374 851 q 315 867 333 867 q 281 853 293 867 q 268 815 268 839 l 156 815 q 189 936 158 894 q 275 978 219 978 q 323 969 299 978 q 378 944 347 960 q 427 923 407 931 q 465 915 447 915 q 500 929 488 915 q 513 967 513 943 l 625 967 q 592 846 622 888 q 506 804 561 804 z "},"ṍ":{"ha":782,"x_min":40,"x_max":740,"o":"m 390 -14 q 204 34 283 -14 q 83 164 125 82 q 40 344 40 246 q 83 525 40 443 q 204 655 125 607 q 390 703 283 703 q 578 655 499 703 q 699 525 657 607 q 740 344 740 443 q 699 164 740 246 q 578 34 657 82 q 390 -14 499 -14 m 390 117 q 531 178 481 117 q 582 344 582 239 q 531 510 582 449 q 390 572 481 572 q 250 510 300 572 q 200 344 200 449 q 250 178 200 239 q 390 117 300 117 m 510 801 q 465 809 488 801 q 403 833 442 817 q 366 848 396 836 q 315 860 336 860 q 281 847 293 860 q 268 811 268 835 l 168 811 q 194 917 168 881 q 271 954 219 954 q 316 947 293 954 q 378 922 339 939 q 415 908 385 919 q 465 896 444 896 q 500 908 488 896 q 513 946 513 921 l 613 946 q 587 838 613 875 q 510 801 561 801 m 257 1099 l 525 1231 l 525 1089 l 257 1008 l 257 1099 z "},"ṏ":{"ha":782,"x_min":40,"x_max":740,"o":"m 390 -14 q 204 34 283 -14 q 83 164 125 82 q 40 344 40 246 q 83 525 40 443 q 204 655 125 607 q 390 703 283 703 q 578 655 499 703 q 699 525 657 607 q 740 344 740 443 q 699 164 740 246 q 578 34 657 82 q 390 -14 499 -14 m 390 117 q 531 178 481 117 q 582 344 582 239 q 531 510 582 449 q 390 572 481 572 q 250 510 300 572 q 200 344 200 449 q 250 178 200 239 q 390 117 300 117 m 510 801 q 465 809 488 801 q 403 833 442 817 q 366 848 396 836 q 315 860 336 860 q 281 847 293 860 q 268 811 268 835 l 168 811 q 194 917 168 881 q 271 954 219 954 q 316 947 293 954 q 378 922 339 939 q 415 908 385 919 q 465 896 444 896 q 500 908 488 896 q 513 946 513 921 l 613 946 q 587 838 613 875 q 510 801 561 801 m 189 1158 l 317 1158 l 317 1044 l 189 1044 l 189 1158 m 464 1158 l 592 1158 l 592 1044 l 464 1044 l 464 1158 z "},"ȭ":{"ha":782,"x_min":40,"x_max":740,"o":"m 390 -14 q 204 34 283 -14 q 83 164 125 82 q 40 344 40 246 q 83 525 40 443 q 204 655 125 607 q 390 703 283 703 q 578 655 499 703 q 699 525 657 607 q 740 344 740 443 q 699 164 740 246 q 578 34 657 82 q 390 -14 499 -14 m 390 117 q 531 178 481 117 q 582 344 582 239 q 531 510 582 449 q 390 572 481 572 q 250 510 300 572 q 200 344 200 449 q 250 178 200 239 q 390 117 300 117 m 510 801 q 465 809 488 801 q 403 833 442 817 q 366 848 396 836 q 315 860 336 860 q 281 847 293 860 q 268 811 268 835 l 168 811 q 194 917 168 881 q 271 954 219 954 q 316 947 293 954 q 378 922 339 939 q 415 908 385 919 q 465 896 444 896 q 500 908 488 896 q 513 946 513 921 l 613 946 q 587 838 613 875 q 510 801 561 801 m 164 1154 l 617 1154 l 617 1053 l 164 1053 l 164 1154 z "},"œ":{"ha":1247,"x_min":40,"x_max":1207,"o":"m 1207 406 q 1199 321 1207 365 l 733 321 q 809 166 747 215 q 958 117 871 117 q 1065 131 1007 117 q 1165 168 1122 146 l 1176 39 q 947 -14 1071 -14 q 778 22 851 -14 q 658 119 704 57 q 546 22 614 57 q 390 -14 478 -14 q 204 34 283 -14 q 83 164 125 82 q 40 344 40 246 q 83 525 40 443 q 204 655 125 607 q 390 703 283 703 q 543 669 476 703 q 656 574 610 635 q 763 667 699 633 q 910 701 828 701 q 1069 663 1001 701 q 1172 558 1136 625 q 1207 406 1207 492 m 390 117 q 531 178 481 117 q 582 344 582 239 q 531 510 582 449 q 390 572 481 572 q 250 510 300 572 q 200 344 200 449 q 250 178 200 239 q 390 117 300 117 m 1049 426 q 1015 530 1049 489 q 910 571 981 571 q 798 533 840 571 q 740 426 756 494 l 1049 426 z "},"p":{"ha":788,"x_min":82,"x_max":746,"o":"m 439 701 q 604 654 535 701 q 710 526 674 607 q 746 344 746 444 q 710 163 746 244 q 606 33 675 81 q 439 -14 536 -14 q 324 3 372 -14 q 238 56 276 19 l 238 -336 l 82 -336 l 82 689 l 206 689 l 222 615 q 319 679 267 657 q 439 701 371 701 m 413 117 q 540 178 494 117 q 586 344 586 239 q 540 510 586 449 q 413 571 494 571 q 277 511 325 571 q 229 344 229 451 q 277 176 229 236 q 413 117 325 117 z "},"þ":{"ha":808,"x_min":82,"x_max":767,"o":"m 443 701 q 617 653 544 701 q 728 524 690 606 q 767 344 767 443 q 729 165 767 246 q 618 35 692 83 q 443 -14 544 -14 q 328 4 376 -14 q 236 60 279 22 l 236 -336 l 82 -336 l 82 1042 l 236 1042 l 236 629 q 330 683 281 665 q 443 701 379 701 m 422 113 q 559 176 510 113 q 608 344 608 240 q 559 509 608 447 q 422 571 510 571 q 278 510 328 571 q 228 344 228 449 q 278 175 228 238 q 422 113 328 113 z "},"q":{"ha":788,"x_min":42,"x_max":704,"o":"m 704 689 l 704 -336 l 550 -336 l 550 56 q 356 -14 476 -14 q 185 33 256 -14 q 78 163 114 81 q 42 344 42 244 q 78 523 42 442 q 186 653 115 604 q 354 701 257 701 q 475 680 424 701 q 567 617 526 658 l 586 689 l 704 689 m 379 117 q 510 176 464 117 q 557 344 557 236 q 510 511 557 451 q 379 571 464 571 q 248 510 296 571 q 200 344 200 449 q 248 178 200 239 q 379 117 296 117 z "},"r":{"ha":451,"x_min":82,"x_max":449,"o":"m 82 689 l 222 689 l 231 601 q 317 675 268 647 q 418 703 365 703 q 449 700 432 703 l 436 542 q 383 549 414 549 q 297 527 338 549 q 240 476 257 506 l 240 0 l 82 0 l 82 689 z "},"ŕ":{"ha":451,"x_min":82,"x_max":449,"o":"m 82 689 l 222 689 l 231 601 q 317 675 268 647 q 418 703 365 703 q 449 700 432 703 l 436 542 q 383 549 414 549 q 297 527 338 549 q 240 476 257 506 l 240 0 l 82 0 l 82 689 m 165 896 l 433 1050 l 433 899 l 165 794 l 165 896 z "},"ř":{"ha":451,"x_min":82,"x_max":479,"o":"m 82 689 l 222 689 l 231 601 q 317 675 268 647 q 418 703 365 703 q 449 700 432 703 l 436 542 q 383 549 414 549 q 297 527 338 549 q 240 476 257 506 l 240 0 l 82 0 l 82 689 m 118 931 l 118 1031 l 299 917 l 479 1031 l 479 931 l 299 776 l 118 931 z "},"ŗ":{"ha":451,"x_min":82,"x_max":449,"o":"m 82 689 l 222 689 l 231 601 q 317 675 268 647 q 418 703 365 703 q 449 700 432 703 l 436 542 q 383 549 414 549 q 297 527 338 549 q 240 476 257 506 l 240 0 l 82 0 l 82 689 m 88 -431 l 140 -279 l 82 -279 l 82 -126 l 244 -126 l 244 -264 l 164 -431 l 88 -431 z "},"ȑ":{"ha":451,"x_min":4,"x_max":456,"o":"m 82 689 l 222 689 l 231 601 q 317 675 268 647 q 418 703 365 703 q 449 700 432 703 l 436 542 q 383 549 414 549 q 297 527 338 549 q 240 476 257 506 l 240 0 l 82 0 l 82 689 m 151 811 l 4 1053 l 156 1053 l 256 811 l 151 811 m 353 811 l 215 1053 l 365 1053 l 456 811 l 353 811 z "},"ṛ":{"ha":451,"x_min":82,"x_max":449,"o":"m 82 689 l 222 689 l 231 601 q 317 675 268 647 q 418 703 365 703 q 449 700 432 703 l 436 542 q 383 549 414 549 q 297 527 338 549 q 240 476 257 506 l 240 0 l 82 0 l 82 689 m 90 -112 l 232 -112 l 232 -243 l 90 -243 l 90 -112 z "},"ȓ":{"ha":451,"x_min":82,"x_max":508,"o":"m 82 689 l 222 689 l 231 601 q 317 675 268 647 q 418 703 365 703 q 449 700 432 703 l 436 542 q 383 549 414 549 q 297 527 338 549 q 240 476 257 506 l 240 0 l 82 0 l 82 689 m 299 997 q 452 943 396 997 q 508 810 508 889 l 393 810 q 367 874 393 851 q 299 897 342 897 q 230 874 256 897 q 204 810 204 851 l 89 810 q 145 943 89 889 q 299 997 201 997 z "},"ṟ":{"ha":451,"x_min":-65,"x_max":449,"o":"m 82 689 l 222 689 l 231 601 q 317 675 268 647 q 418 703 365 703 q 449 700 432 703 l 436 542 q 383 549 414 549 q 297 527 338 549 q 240 476 257 506 l 240 0 l 82 0 l 82 689 m -65 -126 l 388 -126 l 388 -233 l -65 -233 l -65 -126 z "},"s":{"ha":583,"x_min":43,"x_max":546,"o":"m 278 -14 q 43 40 151 -14 l 58 178 q 272 108 165 108 q 359 127 329 108 q 389 183 389 146 q 358 246 389 225 q 258 292 328 267 q 105 371 157 326 q 53 500 53 415 q 120 646 53 589 q 310 703 188 703 q 514 653 424 703 l 499 518 q 408 569 453 551 q 313 588 364 588 q 233 567 261 588 q 206 510 206 547 q 221 464 206 482 q 265 433 236 446 q 354 399 293 421 q 497 319 447 364 q 546 192 546 274 q 479 42 546 99 q 278 -14 413 -14 z "},"ś":{"ha":583,"x_min":43,"x_max":546,"o":"m 278 -14 q 43 40 151 -14 l 58 178 q 272 108 165 108 q 359 127 329 108 q 389 183 389 146 q 358 246 389 225 q 258 292 328 267 q 105 371 157 326 q 53 500 53 415 q 120 646 53 589 q 310 703 188 703 q 514 653 424 703 l 499 518 q 408 569 453 551 q 313 588 364 588 q 233 567 261 588 q 206 510 206 547 q 221 464 206 482 q 265 433 236 446 q 354 399 293 421 q 497 319 447 364 q 546 192 546 274 q 479 42 546 99 q 278 -14 413 -14 m 174 896 l 442 1050 l 442 899 l 174 794 l 174 896 z "},"ṥ":{"ha":583,"x_min":43,"x_max":546,"o":"m 278 -14 q 43 40 151 -14 l 58 178 q 272 108 165 108 q 359 127 329 108 q 389 183 389 146 q 358 246 389 225 q 258 292 328 267 q 105 371 157 326 q 53 500 53 415 q 120 646 53 589 q 310 703 188 703 q 514 653 424 703 l 499 518 q 408 569 453 551 q 313 588 364 588 q 233 567 261 588 q 206 510 206 547 q 221 464 206 482 q 265 433 236 446 q 354 399 293 421 q 497 319 447 364 q 546 192 546 274 q 479 42 546 99 q 278 -14 413 -14 m 174 864 l 442 996 l 442 854 l 174 774 l 174 864 m 236 1186 l 378 1186 l 378 1056 l 236 1056 l 236 1186 z "},"š":{"ha":583,"x_min":43,"x_max":546,"o":"m 278 -14 q 43 40 151 -14 l 58 178 q 272 108 165 108 q 359 127 329 108 q 389 183 389 146 q 358 246 389 225 q 258 292 328 267 q 105 371 157 326 q 53 500 53 415 q 120 646 53 589 q 310 703 188 703 q 514 653 424 703 l 499 518 q 408 569 453 551 q 313 588 364 588 q 233 567 261 588 q 206 510 206 547 q 221 464 206 482 q 265 433 236 446 q 354 399 293 421 q 497 319 447 364 q 546 192 546 274 q 479 42 546 99 q 278 -14 413 -14 m 126 931 l 126 1031 l 307 917 l 488 1031 l 488 931 l 307 776 l 126 931 z "},"ṧ":{"ha":583,"x_min":43,"x_max":546,"o":"m 278 -14 q 43 40 151 -14 l 58 178 q 272 108 165 108 q 359 127 329 108 q 389 183 389 146 q 358 246 389 225 q 258 292 328 267 q 105 371 157 326 q 53 500 53 415 q 120 646 53 589 q 310 703 188 703 q 514 653 424 703 l 499 518 q 408 569 453 551 q 313 588 364 588 q 233 567 261 588 q 206 510 206 547 q 221 464 206 482 q 265 433 236 446 q 354 399 293 421 q 497 319 447 364 q 546 192 546 274 q 479 42 546 99 q 278 -14 413 -14 m 126 921 l 126 1018 l 307 921 l 488 1018 l 488 921 l 307 794 l 126 921 m 236 1204 l 378 1204 l 378 1074 l 236 1074 l 236 1204 z "},"ş":{"ha":583,"x_min":43,"x_max":546,"o":"m 546 192 q 491 53 546 108 q 325 -11 436 -1 l 307 -75 l 313 -75 q 406 -106 372 -75 q 440 -193 440 -137 q 397 -291 440 -257 q 286 -325 354 -325 q 175 -299 222 -325 l 199 -222 q 288 -246 249 -246 q 336 -233 318 -246 q 354 -197 354 -221 q 336 -159 354 -172 q 283 -146 318 -146 q 218 -157 250 -146 l 253 -14 q 43 40 142 -8 l 58 178 q 272 108 165 108 q 359 127 329 108 q 389 183 389 146 q 358 246 389 225 q 258 292 328 267 q 105 371 157 326 q 53 500 53 415 q 120 646 53 589 q 310 703 188 703 q 514 653 424 703 l 499 518 q 408 569 453 551 q 313 588 364 588 q 233 567 261 588 q 206 510 206 547 q 221 464 206 482 q 265 433 236 446 q 354 399 293 421 q 497 319 447 364 q 546 192 546 274 z "},"ŝ":{"ha":583,"x_min":43,"x_max":546,"o":"m 278 -14 q 43 40 151 -14 l 58 178 q 272 108 165 108 q 359 127 329 108 q 389 183 389 146 q 358 246 389 225 q 258 292 328 267 q 105 371 157 326 q 53 500 53 415 q 120 646 53 589 q 310 703 188 703 q 514 653 424 703 l 499 518 q 408 569 453 551 q 313 588 364 588 q 233 567 261 588 q 206 510 206 547 q 221 464 206 482 q 265 433 236 446 q 354 399 293 421 q 497 319 447 364 q 546 192 546 274 q 479 42 546 99 q 278 -14 413 -14 m 126 875 l 307 1029 l 488 875 l 488 775 l 307 889 l 126 775 l 126 875 z "},"ș":{"ha":583,"x_min":43,"x_max":546,"o":"m 278 -14 q 43 40 151 -14 l 58 178 q 272 108 165 108 q 359 127 329 108 q 389 183 389 146 q 358 246 389 225 q 258 292 328 267 q 105 371 157 326 q 53 500 53 415 q 120 646 53 589 q 310 703 188 703 q 514 653 424 703 l 499 518 q 408 569 453 551 q 313 588 364 588 q 233 567 261 588 q 206 510 206 547 q 221 464 206 482 q 265 433 236 446 q 354 399 293 421 q 497 319 447 364 q 546 192 546 274 q 479 42 546 99 q 278 -14 413 -14 m 215 -431 l 268 -279 l 210 -279 l 210 -126 l 372 -126 l 372 -264 l 292 -431 l 215 -431 z "},"ṡ":{"ha":583,"x_min":43,"x_max":546,"o":"m 278 -14 q 43 40 151 -14 l 58 178 q 272 108 165 108 q 359 127 329 108 q 389 183 389 146 q 358 246 389 225 q 258 292 328 267 q 105 371 157 326 q 53 500 53 415 q 120 646 53 589 q 310 703 188 703 q 514 653 424 703 l 499 518 q 408 569 453 551 q 313 588 364 588 q 233 567 261 588 q 206 510 206 547 q 221 464 206 482 q 265 433 236 446 q 354 399 293 421 q 497 319 447 364 q 546 192 546 274 q 479 42 546 99 q 278 -14 413 -14 m 236 961 l 378 961 l 378 831 l 236 831 l 236 961 z "},"ṣ":{"ha":583,"x_min":43,"x_max":546,"o":"m 278 -14 q 43 40 151 -14 l 58 178 q 272 108 165 108 q 359 127 329 108 q 389 183 389 146 q 358 246 389 225 q 258 292 328 267 q 105 371 157 326 q 53 500 53 415 q 120 646 53 589 q 310 703 188 703 q 514 653 424 703 l 499 518 q 408 569 453 551 q 313 588 364 588 q 233 567 261 588 q 206 510 206 547 q 221 464 206 482 q 265 433 236 446 q 354 399 293 421 q 497 319 447 364 q 546 192 546 274 q 479 42 546 99 q 278 -14 413 -14 m 218 -112 l 360 -112 l 360 -243 l 218 -243 l 218 -112 z "},"ṩ":{"ha":583,"x_min":43,"x_max":546,"o":"m 278 -14 q 43 40 151 -14 l 58 178 q 272 108 165 108 q 359 127 329 108 q 389 183 389 146 q 358 246 389 225 q 258 292 328 267 q 105 371 157 326 q 53 500 53 415 q 120 646 53 589 q 310 703 188 703 q 514 653 424 703 l 499 518 q 408 569 453 551 q 313 588 364 588 q 233 567 261 588 q 206 510 206 547 q 221 464 206 482 q 265 433 236 446 q 354 399 293 421 q 497 319 447 364 q 546 192 546 274 q 479 42 546 99 q 278 -14 413 -14 m 236 961 l 378 961 l 378 831 l 236 831 l 236 961 m 218 -112 l 360 -112 l 360 -243 l 218 -243 l 218 -112 z "},"ß":{"ha":849,"x_min":24,"x_max":818,"o":"m 506 -19 q 365 -4 431 -19 l 365 121 q 507 106 438 106 q 619 136 578 106 q 660 221 660 167 q 628 305 660 272 q 533 378 597 338 q 440 449 471 417 q 408 532 408 481 q 431 608 408 575 q 511 699 453 640 q 565 763 550 738 q 581 825 581 789 q 544 902 581 874 q 443 931 508 931 q 319 883 361 931 q 276 749 276 836 l 276 0 l 124 0 l 124 564 l 24 564 l 38 689 l 124 689 l 124 746 q 210 981 124 901 q 446 1061 297 1061 q 656 1002 576 1061 q 735 843 735 943 q 712 741 735 779 q 636 653 689 703 q 581 591 596 613 q 567 546 567 569 q 589 497 567 518 q 660 444 611 475 q 741 387 710 413 q 795 321 772 361 q 818 225 818 281 q 775 90 818 146 q 660 8 732 35 q 506 -19 589 -19 z "},"t":{"ha":474,"x_min":24,"x_max":446,"o":"m 311 -14 q 174 38 221 -14 q 128 161 128 89 l 128 564 l 24 564 l 38 689 l 128 689 l 128 847 l 283 864 l 283 689 l 446 689 l 446 564 l 283 564 l 283 233 q 290 149 283 172 q 320 119 297 126 q 403 113 343 113 l 444 113 l 431 -14 l 311 -14 z "},"ŧ":{"ha":474,"x_min":24,"x_max":446,"o":"m 283 564 l 283 425 l 439 425 l 439 321 l 283 321 l 283 233 q 290 149 283 172 q 320 119 297 126 q 403 113 343 113 l 444 113 l 431 -14 l 311 -14 q 174 38 221 -14 q 128 161 128 89 l 128 321 l 24 321 l 24 425 l 128 425 l 128 564 l 24 564 l 38 689 l 128 689 l 128 847 l 283 864 l 283 689 l 446 689 l 446 564 l 283 564 z "},"ť":{"ha":474,"x_min":24,"x_max":485,"o":"m 311 -14 q 174 38 221 -14 q 128 161 128 89 l 128 564 l 24 564 l 38 689 l 128 689 l 128 847 l 283 864 l 283 689 l 446 689 l 446 564 l 283 564 l 283 233 q 290 149 283 172 q 320 119 297 126 q 403 113 343 113 l 444 113 l 431 -14 l 311 -14 m 350 996 l 485 996 l 446 756 l 350 756 l 350 996 z "},"ţ":{"ha":474,"x_min":24,"x_max":467,"o":"m 339 -75 q 433 -106 399 -75 q 467 -193 467 -137 q 424 -291 467 -257 q 313 -325 381 -325 q 201 -299 249 -325 l 225 -222 q 314 -246 275 -246 q 363 -233 344 -246 q 381 -197 381 -221 q 363 -159 381 -172 q 310 -146 344 -146 q 244 -157 276 -146 l 279 -12 q 166 47 204 -3 q 128 161 128 96 l 128 564 l 24 564 l 38 689 l 128 689 l 128 847 l 283 864 l 283 689 l 446 689 l 446 564 l 283 564 l 283 233 q 290 149 283 172 q 320 119 297 126 q 403 113 343 113 l 444 113 l 431 -14 l 351 -14 l 333 -75 l 339 -75 z "},"ț":{"ha":474,"x_min":24,"x_max":446,"o":"m 311 -14 q 174 38 221 -14 q 128 161 128 89 l 128 564 l 24 564 l 38 689 l 128 689 l 128 847 l 283 864 l 283 689 l 446 689 l 446 564 l 283 564 l 283 233 q 290 149 283 172 q 320 119 297 126 q 403 113 343 113 l 444 113 l 431 -14 l 311 -14 m 242 -431 l 294 -279 l 236 -279 l 236 -126 l 399 -126 l 399 -264 l 318 -431 l 242 -431 z "},"ẗ":{"ha":474,"x_min":6,"x_max":446,"o":"m 311 -14 q 174 38 221 -14 q 128 161 128 89 l 128 564 l 24 564 l 38 689 l 128 689 l 128 847 l 283 864 l 283 689 l 446 689 l 446 564 l 283 564 l 283 233 q 290 149 283 172 q 320 119 297 126 q 403 113 343 113 l 444 113 l 431 -14 l 311 -14 m 6 1101 l 133 1101 l 133 982 l 6 982 l 6 1101 m 281 1101 l 408 1101 l 408 982 l 281 982 l 281 1101 z "},"ṭ":{"ha":474,"x_min":24,"x_max":446,"o":"m 311 -14 q 174 38 221 -14 q 128 161 128 89 l 128 564 l 24 564 l 38 689 l 128 689 l 128 847 l 283 864 l 283 689 l 446 689 l 446 564 l 283 564 l 283 233 q 290 149 283 172 q 320 119 297 126 q 403 113 343 113 l 444 113 l 431 -14 l 311 -14 m 244 -112 l 386 -112 l 386 -243 l 244 -243 l 244 -112 z "},"ṯ":{"ha":474,"x_min":24,"x_max":542,"o":"m 311 -14 q 174 38 221 -14 q 128 161 128 89 l 128 564 l 24 564 l 38 689 l 128 689 l 128 847 l 283 864 l 283 689 l 446 689 l 446 564 l 283 564 l 283 233 q 290 149 283 172 q 320 119 297 126 q 403 113 343 113 l 444 113 l 431 -14 l 311 -14 m 89 -126 l 542 -126 l 542 -233 l 89 -233 l 89 -126 z "},"u":{"ha":753,"x_min":75,"x_max":671,"o":"m 354 -14 q 143 69 211 -14 q 75 308 75 153 l 75 689 l 231 689 l 231 321 q 265 168 231 218 q 375 118 299 118 q 515 183 467 118 l 515 689 l 671 689 l 671 0 l 528 0 l 521 54 q 446 4 489 22 q 354 -14 403 -14 z "},"ú":{"ha":753,"x_min":75,"x_max":671,"o":"m 354 -14 q 143 69 211 -14 q 75 308 75 153 l 75 689 l 231 689 l 231 321 q 265 168 231 218 q 375 118 299 118 q 515 183 467 118 l 515 689 l 671 689 l 671 0 l 528 0 l 521 54 q 446 4 489 22 q 354 -14 403 -14 m 243 896 l 511 1050 l 511 899 l 243 794 l 243 896 z "},"ŭ":{"ha":753,"x_min":75,"x_max":671,"o":"m 354 -14 q 143 69 211 -14 q 75 308 75 153 l 75 689 l 231 689 l 231 321 q 265 168 231 218 q 375 118 299 118 q 515 183 467 118 l 515 689 l 671 689 l 671 0 l 528 0 l 521 54 q 446 4 489 22 q 354 -14 403 -14 m 376 810 q 223 864 279 810 q 167 997 167 918 l 282 997 q 308 933 282 956 q 376 910 333 910 q 445 933 419 910 q 471 997 471 956 l 586 997 q 530 864 586 918 q 376 810 474 810 z "},"û":{"ha":753,"x_min":75,"x_max":671,"o":"m 354 -14 q 143 69 211 -14 q 75 308 75 153 l 75 689 l 231 689 l 231 321 q 265 168 231 218 q 375 118 299 118 q 515 183 467 118 l 515 689 l 671 689 l 671 0 l 528 0 l 521 54 q 446 4 489 22 q 354 -14 403 -14 m 196 875 l 376 1029 l 557 875 l 557 775 l 376 889 l 196 775 l 196 875 z "},"ȕ":{"ha":753,"x_min":75,"x_max":671,"o":"m 354 -14 q 143 69 211 -14 q 75 308 75 153 l 75 689 l 231 689 l 231 321 q 265 168 231 218 q 375 118 299 118 q 515 183 467 118 l 515 689 l 671 689 l 671 0 l 528 0 l 521 54 q 446 4 489 22 q 354 -14 403 -14 m 229 811 l 82 1053 l 233 1053 l 333 811 l 229 811 m 431 811 l 293 1053 l 443 1053 l 533 811 l 431 811 z "},"ü":{"ha":753,"x_min":75,"x_max":671,"o":"m 354 -14 q 143 69 211 -14 q 75 308 75 153 l 75 689 l 231 689 l 231 321 q 265 168 231 218 q 375 118 299 118 q 515 183 467 118 l 515 689 l 671 689 l 671 0 l 528 0 l 521 54 q 446 4 489 22 q 354 -14 403 -14 m 175 940 l 303 940 l 303 821 l 175 821 l 175 940 m 450 940 l 578 940 l 578 821 l 450 821 l 450 940 z "},"ụ":{"ha":753,"x_min":75,"x_max":671,"o":"m 354 -14 q 143 69 211 -14 q 75 308 75 153 l 75 689 l 231 689 l 231 321 q 265 168 231 218 q 375 118 299 118 q 515 183 467 118 l 515 689 l 671 689 l 671 0 l 528 0 l 521 54 q 446 4 489 22 q 354 -14 403 -14 m 306 -112 l 447 -112 l 447 -243 l 306 -243 l 306 -112 z "},"ù":{"ha":753,"x_min":75,"x_max":671,"o":"m 354 -14 q 143 69 211 -14 q 75 308 75 153 l 75 689 l 231 689 l 231 321 q 265 168 231 218 q 375 118 299 118 q 515 183 467 118 l 515 689 l 671 689 l 671 0 l 528 0 l 521 54 q 446 4 489 22 q 354 -14 403 -14 m 242 899 l 242 1050 l 510 896 l 510 794 l 242 899 z "},"ủ":{"ha":753,"x_min":75,"x_max":671,"o":"m 354 -14 q 143 69 211 -14 q 75 308 75 153 l 75 689 l 231 689 l 231 321 q 265 168 231 218 q 375 118 299 118 q 515 183 467 118 l 515 689 l 671 689 l 671 0 l 528 0 l 521 54 q 446 4 489 22 q 354 -14 403 -14 m 349 786 q 394 835 382 817 q 407 876 407 853 q 354 922 407 922 q 268 896 318 922 l 244 976 q 356 1003 297 1003 q 454 970 415 1003 q 493 881 493 938 q 471 806 493 838 q 399 738 449 775 l 349 786 z "},"ư":{"ha":753,"x_min":75,"x_max":835,"o":"m 835 792 q 789 669 835 722 q 671 594 743 617 l 671 0 l 528 0 l 521 54 q 446 4 489 22 q 354 -14 403 -14 q 143 69 211 -14 q 75 308 75 153 l 75 689 l 231 689 l 231 321 q 265 168 231 218 q 375 118 299 118 q 515 183 467 118 l 515 689 l 586 689 q 697 792 697 689 l 835 792 z "},"ứ":{"ha":753,"x_min":75,"x_max":835,"o":"m 835 792 q 789 669 835 722 q 671 594 743 617 l 671 0 l 528 0 l 521 54 q 446 4 489 22 q 354 -14 403 -14 q 143 69 211 -14 q 75 308 75 153 l 75 689 l 231 689 l 231 321 q 265 168 231 218 q 375 118 299 118 q 515 183 467 118 l 515 689 l 586 689 q 697 792 697 689 l 835 792 m 243 896 l 511 1050 l 511 899 l 243 794 l 243 896 z "},"ự":{"ha":753,"x_min":75,"x_max":835,"o":"m 835 792 q 789 669 835 722 q 671 594 743 617 l 671 0 l 528 0 l 521 54 q 446 4 489 22 q 354 -14 403 -14 q 143 69 211 -14 q 75 308 75 153 l 75 689 l 231 689 l 231 321 q 265 168 231 218 q 375 118 299 118 q 515 183 467 118 l 515 689 l 586 689 q 697 792 697 689 l 835 792 m 306 -112 l 447 -112 l 447 -243 l 306 -243 l 306 -112 z "},"ừ":{"ha":753,"x_min":75,"x_max":835,"o":"m 835 792 q 789 669 835 722 q 671 594 743 617 l 671 0 l 528 0 l 521 54 q 446 4 489 22 q 354 -14 403 -14 q 143 69 211 -14 q 75 308 75 153 l 75 689 l 231 689 l 231 321 q 265 168 231 218 q 375 118 299 118 q 515 183 467 118 l 515 689 l 586 689 q 697 792 697 689 l 835 792 m 242 899 l 242 1050 l 510 896 l 510 794 l 242 899 z "},"ử":{"ha":753,"x_min":75,"x_max":835,"o":"m 835 792 q 789 669 835 722 q 671 594 743 617 l 671 0 l 528 0 l 521 54 q 446 4 489 22 q 354 -14 403 -14 q 143 69 211 -14 q 75 308 75 153 l 75 689 l 231 689 l 231 321 q 265 168 231 218 q 375 118 299 118 q 515 183 467 118 l 515 689 l 586 689 q 697 792 697 689 l 835 792 m 349 786 q 394 835 382 817 q 407 876 407 853 q 354 922 407 922 q 268 896 318 922 l 244 976 q 356 1003 297 1003 q 454 970 415 1003 q 493 881 493 938 q 471 806 493 838 q 399 738 449 775 l 349 786 z "},"ữ":{"ha":753,"x_min":75,"x_max":835,"o":"m 835 792 q 789 669 835 722 q 671 594 743 617 l 671 0 l 528 0 l 521 54 q 446 4 489 22 q 354 -14 403 -14 q 143 69 211 -14 q 75 308 75 153 l 75 689 l 231 689 l 231 321 q 265 168 231 218 q 375 118 299 118 q 515 183 467 118 l 515 689 l 586 689 q 697 792 697 689 l 835 792 m 492 804 q 444 813 468 804 q 389 838 419 822 q 340 859 360 851 q 301 867 319 867 q 267 853 279 867 q 254 815 254 839 l 142 815 q 175 936 144 894 q 261 978 206 978 q 309 969 285 978 q 364 944 333 960 q 413 923 393 931 q 451 915 433 915 q 486 929 474 915 q 499 967 499 943 l 611 967 q 578 846 608 888 q 492 804 547 804 z "},"ű":{"ha":753,"x_min":75,"x_max":688,"o":"m 354 -14 q 143 69 211 -14 q 75 308 75 153 l 75 689 l 231 689 l 231 321 q 265 168 231 218 q 375 118 299 118 q 515 183 467 118 l 515 689 l 671 689 l 671 0 l 528 0 l 521 54 q 446 4 489 22 q 354 -14 403 -14 m 326 1053 l 478 1053 l 324 811 l 219 811 l 326 1053 m 536 1053 l 688 1053 l 524 811 l 421 811 l 536 1053 z "},"ȗ":{"ha":753,"x_min":75,"x_max":671,"o":"m 354 -14 q 143 69 211 -14 q 75 308 75 153 l 75 689 l 231 689 l 231 321 q 265 168 231 218 q 375 118 299 118 q 515 183 467 118 l 515 689 l 671 689 l 671 0 l 528 0 l 521 54 q 446 4 489 22 q 354 -14 403 -14 m 376 997 q 530 943 474 997 q 586 810 586 889 l 471 810 q 445 874 471 851 q 376 897 419 897 q 308 874 333 897 q 282 810 282 851 l 167 810 q 223 943 167 889 q 376 997 279 997 z "},"ū":{"ha":753,"x_min":75,"x_max":671,"o":"m 354 -14 q 143 69 211 -14 q 75 308 75 153 l 75 689 l 231 689 l 231 321 q 265 168 231 218 q 375 118 299 118 q 515 183 467 118 l 515 689 l 671 689 l 671 0 l 528 0 l 521 54 q 446 4 489 22 q 354 -14 403 -14 m 150 936 l 603 936 l 603 829 l 150 829 l 150 936 z "},"ṻ":{"ha":753,"x_min":75,"x_max":671,"o":"m 354 -14 q 143 69 211 -14 q 75 308 75 153 l 75 689 l 231 689 l 231 321 q 265 168 231 218 q 375 118 299 118 q 515 183 467 118 l 515 689 l 671 689 l 671 0 l 528 0 l 521 54 q 446 4 489 22 q 354 -14 403 -14 m 150 919 l 603 919 l 603 818 l 150 818 l 150 919 m 175 1163 l 303 1163 l 303 1049 l 175 1049 l 175 1163 m 450 1163 l 578 1163 l 578 1049 l 450 1049 l 450 1163 z "},"ų":{"ha":753,"x_min":75,"x_max":738,"o":"m 738 -264 q 618 -292 685 -292 q 517 -260 557 -292 q 476 -171 476 -228 q 510 -76 476 -121 q 589 0 543 -31 l 528 0 l 521 54 q 446 4 489 22 q 354 -14 403 -14 q 143 69 211 -14 q 75 308 75 153 l 75 689 l 231 689 l 231 321 q 265 168 231 218 q 375 118 299 118 q 515 183 467 118 l 515 689 l 671 689 l 671 0 q 590 -74 618 -39 q 563 -146 563 -110 q 581 -195 563 -178 q 629 -212 599 -212 q 714 -190 672 -212 l 738 -264 z "},"ů":{"ha":753,"x_min":75,"x_max":671,"o":"m 354 -14 q 143 69 211 -14 q 75 308 75 153 l 75 689 l 231 689 l 231 321 q 265 168 231 218 q 375 118 299 118 q 515 183 467 118 l 515 689 l 671 689 l 671 0 l 528 0 l 521 54 q 446 4 489 22 q 354 -14 403 -14 m 376 790 q 271 830 310 790 q 232 926 232 869 q 272 1024 232 983 q 376 1064 311 1064 q 482 1024 443 1064 q 521 926 521 985 q 482 830 521 869 q 376 790 443 790 m 376 858 q 424 877 404 858 q 443 926 443 896 q 424 976 443 957 q 376 994 406 994 q 328 976 347 994 q 310 926 310 957 q 329 877 310 896 q 376 858 349 858 z "},"ũ":{"ha":753,"x_min":75,"x_max":671,"o":"m 354 -14 q 143 69 211 -14 q 75 308 75 153 l 75 689 l 231 689 l 231 321 q 265 168 231 218 q 375 118 299 118 q 515 183 467 118 l 515 689 l 671 689 l 671 0 l 528 0 l 521 54 q 446 4 489 22 q 354 -14 403 -14 m 492 804 q 444 813 468 804 q 389 838 419 822 q 340 859 360 851 q 301 867 319 867 q 267 853 279 867 q 254 815 254 839 l 142 815 q 175 936 144 894 q 261 978 206 978 q 309 969 285 978 q 364 944 333 960 q 413 923 393 931 q 451 915 433 915 q 486 929 474 915 q 499 967 499 943 l 611 967 q 578 846 608 888 q 492 804 547 804 z "},"ṹ":{"ha":753,"x_min":75,"x_max":671,"o":"m 354 -14 q 143 69 211 -14 q 75 308 75 153 l 75 689 l 231 689 l 231 321 q 265 168 231 218 q 375 118 299 118 q 515 183 467 118 l 515 689 l 671 689 l 671 0 l 528 0 l 521 54 q 446 4 489 22 q 354 -14 403 -14 m 496 801 q 451 809 474 801 q 389 833 428 817 q 352 848 382 836 q 301 860 322 860 q 267 847 279 860 q 254 811 254 835 l 154 811 q 180 917 154 881 q 257 954 206 954 q 302 947 279 954 q 364 922 325 939 q 401 908 371 919 q 451 896 431 896 q 486 908 474 896 q 499 946 499 921 l 599 946 q 573 838 599 875 q 496 801 547 801 m 243 1099 l 511 1231 l 511 1089 l 243 1008 l 243 1099 z "},"v":{"ha":688,"x_min":7,"x_max":679,"o":"m 7 689 l 165 689 l 343 186 l 521 689 l 679 689 l 417 0 l 271 0 l 7 689 z "},"w":{"ha":1008,"x_min":15,"x_max":993,"o":"m 15 689 l 175 689 l 299 183 l 435 674 l 574 674 l 708 183 l 833 689 l 993 689 l 790 0 l 647 0 l 504 471 l 361 0 l 218 0 l 15 689 z "},"ẃ":{"ha":1008,"x_min":15,"x_max":993,"o":"m 15 689 l 175 689 l 299 183 l 435 674 l 574 674 l 708 183 l 833 689 l 993 689 l 790 0 l 647 0 l 504 471 l 361 0 l 218 0 l 15 689 m 371 896 l 639 1050 l 639 899 l 371 794 l 371 896 z "},"ŵ":{"ha":1008,"x_min":15,"x_max":993,"o":"m 15 689 l 175 689 l 299 183 l 435 674 l 574 674 l 708 183 l 833 689 l 993 689 l 790 0 l 647 0 l 504 471 l 361 0 l 218 0 l 15 689 m 324 875 l 504 1029 l 685 875 l 685 775 l 504 889 l 324 775 l 324 875 z "},"ẅ":{"ha":1008,"x_min":15,"x_max":993,"o":"m 15 689 l 175 689 l 299 183 l 435 674 l 574 674 l 708 183 l 833 689 l 993 689 l 790 0 l 647 0 l 504 471 l 361 0 l 218 0 l 15 689 m 303 940 l 431 940 l 431 821 l 303 821 l 303 940 m 578 940 l 706 940 l 706 821 l 578 821 l 578 940 z "},"ẁ":{"ha":1008,"x_min":15,"x_max":993,"o":"m 15 689 l 175 689 l 299 183 l 435 674 l 574 674 l 708 183 l 833 689 l 993 689 l 790 0 l 647 0 l 504 471 l 361 0 l 218 0 l 15 689 m 369 899 l 369 1050 l 638 896 l 638 794 l 369 899 z "},"x":{"ha":674,"x_min":14,"x_max":658,"o":"m 247 344 l 17 689 l 199 689 l 340 464 l 472 689 l 656 689 l 428 349 l 658 0 l 478 0 l 335 225 l 196 0 l 14 0 l 247 344 z "},"y":{"ha":729,"x_min":4,"x_max":725,"o":"m 292 40 l 4 689 l 176 689 l 367 221 l 551 689 l 725 689 l 296 -336 l 136 -336 l 292 40 z "},"ý":{"ha":729,"x_min":4,"x_max":725,"o":"m 292 40 l 4 689 l 176 689 l 367 221 l 551 689 l 725 689 l 296 -336 l 136 -336 l 292 40 m 232 896 l 500 1050 l 500 899 l 232 794 l 232 896 z "},"ŷ":{"ha":729,"x_min":4,"x_max":725,"o":"m 292 40 l 4 689 l 176 689 l 367 221 l 551 689 l 725 689 l 296 -336 l 136 -336 l 292 40 m 185 875 l 365 1029 l 546 875 l 546 775 l 365 889 l 185 775 l 185 875 z "},"ÿ":{"ha":729,"x_min":4,"x_max":725,"o":"m 292 40 l 4 689 l 176 689 l 367 221 l 551 689 l 725 689 l 296 -336 l 136 -336 l 292 40 m 164 940 l 292 940 l 292 821 l 164 821 l 164 940 m 439 940 l 567 940 l 567 821 l 439 821 l 439 940 z "},"ẏ":{"ha":729,"x_min":4,"x_max":725,"o":"m 292 40 l 4 689 l 176 689 l 367 221 l 551 689 l 725 689 l 296 -336 l 136 -336 l 292 40 m 294 961 l 436 961 l 436 831 l 294 831 l 294 961 z "},"ỵ":{"ha":729,"x_min":4,"x_max":725,"o":"m 292 40 l 4 689 l 176 689 l 367 221 l 551 689 l 725 689 l 296 -336 l 136 -336 l 292 40 m 458 -112 l 600 -112 l 600 -243 l 458 -243 l 458 -112 z "},"ỳ":{"ha":729,"x_min":4,"x_max":725,"o":"m 292 40 l 4 689 l 176 689 l 367 221 l 551 689 l 725 689 l 296 -336 l 136 -336 l 292 40 m 231 899 l 231 1050 l 499 896 l 499 794 l 231 899 z "},"ỷ":{"ha":729,"x_min":4,"x_max":725,"o":"m 292 40 l 4 689 l 176 689 l 367 221 l 551 689 l 725 689 l 296 -336 l 136 -336 l 292 40 m 338 786 q 383 835 371 817 q 396 876 396 853 q 343 922 396 922 q 257 896 307 922 l 233 976 q 344 1003 286 1003 q 443 970 404 1003 q 482 881 482 938 q 460 806 482 838 q 388 738 438 775 l 338 786 z "},"ȳ":{"ha":729,"x_min":4,"x_max":725,"o":"m 292 40 l 4 689 l 176 689 l 367 221 l 551 689 l 725 689 l 296 -336 l 136 -336 l 292 40 m 139 936 l 592 936 l 592 829 l 139 829 l 139 936 z "},"ỹ":{"ha":729,"x_min":4,"x_max":725,"o":"m 292 40 l 4 689 l 176 689 l 367 221 l 551 689 l 725 689 l 296 -336 l 136 -336 l 292 40 m 481 804 q 433 813 457 804 q 378 838 408 822 q 328 859 349 851 q 290 867 308 867 q 256 853 268 867 q 243 815 243 839 l 131 815 q 164 936 133 894 q 250 978 194 978 q 298 969 274 978 q 353 944 322 960 q 402 923 382 931 q 440 915 422 915 q 475 929 463 915 q 488 967 488 943 l 600 967 q 567 846 597 888 q 481 804 536 804 z "},"z":{"ha":656,"x_min":26,"x_max":628,"o":"m 275 133 l 626 133 l 626 0 l 26 0 l 379 557 l 56 557 l 56 689 l 628 689 l 275 133 z "},"ź":{"ha":656,"x_min":26,"x_max":628,"o":"m 275 133 l 626 133 l 626 0 l 26 0 l 379 557 l 56 557 l 56 689 l 628 689 l 275 133 m 203 901 l 471 1056 l 471 904 l 203 800 l 203 901 z "},"ž":{"ha":656,"x_min":26,"x_max":628,"o":"m 275 133 l 626 133 l 626 0 l 26 0 l 379 557 l 56 557 l 56 689 l 628 689 l 275 133 m 156 936 l 156 1036 l 336 922 l 517 1036 l 517 936 l 336 782 l 156 936 z "},"ż":{"ha":656,"x_min":26,"x_max":628,"o":"m 275 133 l 626 133 l 626 0 l 26 0 l 379 557 l 56 557 l 56 689 l 628 689 l 275 133 m 265 967 l 407 967 l 407 836 l 265 836 l 265 967 z "},"ẓ":{"ha":656,"x_min":26,"x_max":628,"o":"m 275 133 l 626 133 l 626 0 l 26 0 l 379 557 l 56 557 l 56 689 l 628 689 l 275 133 m 260 -112 l 401 -112 l 401 -243 l 260 -243 l 260 -112 z "}}}
